<?xml version="1.0" encoding="UTF-8" standalone="no"?>
<!DOCTYPE svg PUBLIC "-//W3C//DTD SVG 1.1//EN"
 "http://www.w3.org/Graphics/SVG/1.1/DTD/svg11.dtd">
<!-- Generated by graphviz version 2.40.1 (20161225.0304)
 -->
<!-- Title: dependencies Pages: 1 -->
<svg width="936pt" height="284pt"
 viewBox="0.00 0.00 936.00 284.00" xmlns="http://www.w3.org/2000/svg" xmlns:xlink="http://www.w3.org/1999/xlink">
<g id="graph0" class="graph" transform="scale(1 1) rotate(0) translate(4 280)">
<title>dependencies</title>
<polygon fill="#ffffff" stroke="transparent" points="-4,4 -4,-280 932,-280 932,4 -4,4"/>
<text text-anchor="start" x="443.0091" y="-42.4" font-family="sans-serif" font-weight="bold" font-size="14.00" fill="#000000">Legend</text>
<polygon fill="#ffffb3" stroke="transparent" points="230,-10 230,-30 250,-30 250,-10 230,-10"/>
<text text-anchor="start" x="253.629" y="-15.4" font-family="sans-serif" font-size="14.00" fill="#000000"> &#160;Declarations</text>
<polygon fill="#8dd3c7" stroke="transparent" points="343,-10 343,-30 363,-30 363,-10 343,-10"/>
<text text-anchor="start" x="366.7251" y="-15.4" font-family="sans-serif" font-size="14.00" fill="#000000"> &#160;Module</text>
<polygon fill="#80b1d3" stroke="transparent" points="429,-10 429,-30 449,-30 449,-10 429,-10"/>
<text text-anchor="start" x="452.7812" y="-15.4" font-family="sans-serif" font-size="14.00" fill="#000000"> &#160;Bootstrap</text>
<polygon fill="#fdb462" stroke="transparent" points="526,-10 526,-30 546,-30 546,-10 526,-10"/>
<text text-anchor="start" x="549.6732" y="-15.4" font-family="sans-serif" font-size="14.00" fill="#000000"> &#160;Providers</text>
<polygon fill="#fb8072" stroke="transparent" points="622,-10 622,-30 642,-30 642,-10 622,-10"/>
<text text-anchor="start" x="645.7258" y="-15.4" font-family="sans-serif" font-size="14.00" fill="#000000"> &#160;Exports</text>
<g id="clust1" class="cluster">
<title>cluster_NfsModule</title>
<polygon fill="none" stroke="#000000" stroke-dasharray="1,5" points="8,-70 8,-268 920,-268 920,-70 8,-70"/>
</g>
<g id="clust2" class="cluster">
<title>cluster_NfsModule_declarations</title>
<polygon fill="none" stroke="#000000" points="138,-78 138,-130 912,-130 912,-78 138,-78"/>
</g>
<g id="clust8" class="cluster">
<title>cluster_NfsModule_imports</title>
<polygon fill="none" stroke="#000000" points="16,-78 16,-130 130,-130 130,-78 16,-78"/>
</g>
<g id="clust9" class="cluster">
<title>cluster_NfsModule_exports</title>
<polygon fill="none" stroke="#000000" points="366,-208 366,-260 508,-260 508,-208 366,-208"/>
</g>
<!-- Nfs501Component -->
<g id="node1" class="node">
<title>Nfs501Component</title>
<polygon fill="#ffffb3" stroke="#000000" points="904.045,-122 781.955,-122 781.955,-86 904.045,-86 904.045,-122"/>
<text text-anchor="middle" x="843" y="-99.8" font-family="Times,serif" font-size="14.00" fill="#000000">Nfs501Component</text>
</g>
<!-- NfsModule -->
<g id="node6" class="node">
<title>NfsModule</title>
<polygon fill="#8dd3c7" stroke="#000000" points="476.762,-187 473.762,-191 452.762,-191 449.762,-187 397.238,-187 397.238,-151 476.762,-151 476.762,-187"/>
<text text-anchor="middle" x="437" y="-164.8" font-family="Times,serif" font-size="14.00" fill="#000000">NfsModule</text>
</g>
<!-- Nfs501Component&#45;&gt;NfsModule -->
<g id="edge1" class="edge">
<title>Nfs501Component&#45;&gt;NfsModule</title>
<path fill="none" stroke="#000000" d="M843,-122.2843C843,-143.3211 843,-175 843,-175 843,-175 487.04,-175 487.04,-175"/>
<polygon fill="#000000" stroke="#000000" points="487.04,-171.5001 477.04,-175 487.0399,-178.5001 487.04,-171.5001"/>
</g>
<!-- NfsDetailsComponent -->
<g id="node2" class="node">
<title>NfsDetailsComponent</title>
<polygon fill="#ffffb3" stroke="#000000" points="763.6965,-122 622.3035,-122 622.3035,-86 763.6965,-86 763.6965,-122"/>
<text text-anchor="middle" x="693" y="-99.8" font-family="Times,serif" font-size="14.00" fill="#000000">NfsDetailsComponent</text>
</g>
<!-- NfsDetailsComponent&#45;&gt;NfsModule -->
<g id="edge2" class="edge">
<title>NfsDetailsComponent&#45;&gt;NfsModule</title>
<path fill="none" stroke="#000000" d="M693,-122.0225C693,-139.3734 693,-163 693,-163 693,-163 487,-163 487,-163"/>
<polygon fill="#000000" stroke="#000000" points="487,-159.5001 477,-163 487,-166.5001 487,-159.5001"/>
</g>
<!-- NfsFormClientComponent -->
<g id="node3" class="node">
<title>NfsFormClientComponent</title>
<polygon fill="#ffffb3" stroke="#000000" points="604.101,-122 437.899,-122 437.899,-86 604.101,-86 604.101,-122"/>
<text text-anchor="middle" x="521" y="-99.8" font-family="Times,serif" font-size="14.00" fill="#000000">NfsFormClientComponent</text>
</g>
<!-- NfsFormClientComponent&#45;&gt;NfsModule -->
<g id="edge3" class="edge">
<title>NfsFormClientComponent&#45;&gt;NfsModule</title>
<path fill="none" stroke="#000000" d="M457.4152,-122.1061C457.4152,-122.1061 457.4152,-140.991 457.4152,-140.991"/>
<polygon fill="#000000" stroke="#000000" points="453.9152,-140.9909 457.4152,-150.991 460.9152,-140.991 453.9152,-140.9909"/>
</g>
<!-- NfsFormComponent -->
<g id="node4" class="node">
<title>NfsFormComponent</title>
<polygon fill="#ffffb3" stroke="#000000" points="419.8781,-122 288.1219,-122 288.1219,-86 419.8781,-86 419.8781,-122"/>
<text text-anchor="middle" x="354" y="-99.8" font-family="Times,serif" font-size="14.00" fill="#000000">NfsFormComponent</text>
</g>
<!-- NfsFormComponent&#45;&gt;NfsModule -->
<g id="edge4" class="edge">
<title>NfsFormComponent&#45;&gt;NfsModule</title>
<path fill="none" stroke="#000000" d="M408.5291,-122.1061C408.5291,-122.1061 408.5291,-140.991 408.5291,-140.991"/>
<polygon fill="#000000" stroke="#000000" points="405.0292,-140.9909 408.5291,-150.991 412.0292,-140.991 405.0292,-140.9909"/>
</g>
<!-- NfsListComponent -->
<g id="node5" class="node">
<title>NfsListComponent</title>
<polygon fill="#ffffb3" stroke="#000000" points="269.823,-122 146.177,-122 146.177,-86 269.823,-86 269.823,-122"/>
<text text-anchor="middle" x="208" y="-99.8" font-family="Times,serif" font-size="14.00" fill="#000000">NfsListComponent</text>
</g>
<!-- NfsListComponent&#45;&gt;NfsModule -->
<g id="edge5" class="edge">
<title>NfsListComponent&#45;&gt;NfsModule</title>
<path fill="none" stroke="#000000" d="M208,-122.0225C208,-139.3734 208,-163 208,-163 208,-163 387.1112,-163 387.1112,-163"/>
<polygon fill="#000000" stroke="#000000" points="387.1113,-166.5001 397.1112,-163 387.1112,-159.5001 387.1113,-166.5001"/>
</g>
<!-- Nfs501Component  -->
<g id="node8" class="node">
<title>Nfs501Component </title>
<polygon fill="#fb8072" stroke="#000000" points="500.0442,-252 373.9558,-252 373.9558,-216 500.0442,-216 500.0442,-252"/>
<text text-anchor="middle" x="437" y="-229.8" font-family="Times,serif" font-size="14.00" fill="#000000">Nfs501Component </text>
</g>
<!-- NfsModule&#45;&gt;Nfs501Component  -->
<g id="edge7" class="edge">
<title>NfsModule&#45;&gt;Nfs501Component </title>
<path fill="none" stroke="#000000" stroke-dasharray="5,2" d="M437,-187.1061C437,-187.1061 437,-205.991 437,-205.991"/>
<polygon fill="#000000" stroke="#000000" points="433.5001,-205.9909 437,-215.991 440.5001,-205.991 433.5001,-205.9909"/>
</g>
<!-- SharedModule -->
<g id="node7" class="node">
<title>SharedModule</title>
<polygon fill="#8dd3c7" stroke="#000000" points="122.4231,-122 119.4231,-126 98.4231,-126 95.4231,-122 23.5769,-122 23.5769,-86 122.4231,-86 122.4231,-122"/>
<text text-anchor="middle" x="73" y="-99.8" font-family="Times,serif" font-size="14.00" fill="#000000">SharedModule</text>
</g>
<!-- SharedModule&#45;&gt;NfsModule -->
<g id="edge6" class="edge">
<title>SharedModule&#45;&gt;NfsModule</title>
<path fill="none" stroke="#000000" d="M73,-122.2843C73,-143.3211 73,-175 73,-175 73,-175 387.0044,-175 387.0044,-175"/>
<polygon fill="#000000" stroke="#000000" points="387.0044,-178.5001 397.0044,-175 387.0044,-171.5001 387.0044,-178.5001"/>
</g>
</g>
</svg>
