<?xml version="1.0" encoding="UTF-8" standalone="no"?>
<!DOCTYPE svg PUBLIC "-//W3C//DTD SVG 1.1//EN"
 "http://www.w3.org/Graphics/SVG/1.1/DTD/svg11.dtd">
<!-- Generated by graphviz version 2.40.1 (20161225.0304)
 -->
<!-- Title: dependencies Pages: 1 -->
<svg width="1617pt" height="211pt"
 viewBox="0.00 0.00 1617.00 211.00" xmlns="http://www.w3.org/2000/svg" xmlns:xlink="http://www.w3.org/1999/xlink">
<g id="graph0" class="graph" transform="scale(1 1) rotate(0) translate(4 207)">
<title>dependencies</title>
<polygon fill="#ffffff" stroke="transparent" points="-4,4 -4,-207 1613,-207 1613,4 -4,4"/>
<text text-anchor="start" x="783.5091" y="-42.4" font-family="sans-serif" font-weight="bold" font-size="14.00" fill="#000000">Legend</text>
<polygon fill="#ffffb3" stroke="transparent" points="570.5,-10 570.5,-30 590.5,-30 590.5,-10 570.5,-10"/>
<text text-anchor="start" x="594.129" y="-15.4" font-family="sans-serif" font-size="14.00" fill="#000000"> &#160;Declarations</text>
<polygon fill="#8dd3c7" stroke="transparent" points="683.5,-10 683.5,-30 703.5,-30 703.5,-10 683.5,-10"/>
<text text-anchor="start" x="707.2251" y="-15.4" font-family="sans-serif" font-size="14.00" fill="#000000"> &#160;Module</text>
<polygon fill="#80b1d3" stroke="transparent" points="769.5,-10 769.5,-30 789.5,-30 789.5,-10 769.5,-10"/>
<text text-anchor="start" x="793.2812" y="-15.4" font-family="sans-serif" font-size="14.00" fill="#000000"> &#160;Bootstrap</text>
<polygon fill="#fdb462" stroke="transparent" points="866.5,-10 866.5,-30 886.5,-30 886.5,-10 866.5,-10"/>
<text text-anchor="start" x="890.1732" y="-15.4" font-family="sans-serif" font-size="14.00" fill="#000000"> &#160;Providers</text>
<polygon fill="#fb8072" stroke="transparent" points="962.5,-10 962.5,-30 982.5,-30 982.5,-10 962.5,-10"/>
<text text-anchor="start" x="986.2258" y="-15.4" font-family="sans-serif" font-size="14.00" fill="#000000"> &#160;Exports</text>
<g id="clust1" class="cluster">
<title>cluster_DashboardModule</title>
<polygon fill="none" stroke="#000000" stroke-dasharray="1,5" points="8,-70 8,-195 1601,-195 1601,-70 8,-70"/>
</g>
<g id="clust2" class="cluster">
<title>cluster_DashboardModule_declarations</title>
<polygon fill="none" stroke="#000000" points="284,-78 284,-130 1593,-130 1593,-78 284,-78"/>
</g>
<g id="clust12" class="cluster">
<title>cluster_DashboardModule_imports</title>
<polygon fill="none" stroke="#000000" points="16,-78 16,-130 276,-130 276,-78 16,-78"/>
</g>
<!-- DashboardComponent -->
<g id="node1" class="node">
<title>DashboardComponent</title>
<polygon fill="#ffffb3" stroke="#000000" points="1584.9734,-122 1443.0266,-122 1443.0266,-86 1584.9734,-86 1584.9734,-122"/>
<text text-anchor="middle" x="1514" y="-99.8" font-family="Times,serif" font-size="14.00" fill="#000000">DashboardComponent</text>
</g>
<!-- DashboardModule -->
<g id="node10" class="node">
<title>DashboardModule</title>
<polygon fill="#8dd3c7" stroke="#000000" points="826.191,-187 823.191,-191 802.191,-191 799.191,-187 705.809,-187 705.809,-151 826.191,-151 826.191,-187"/>
<text text-anchor="middle" x="766" y="-164.8" font-family="Times,serif" font-size="14.00" fill="#000000">DashboardModule</text>
</g>
<!-- DashboardComponent&#45;&gt;DashboardModule -->
<g id="edge1" class="edge">
<title>DashboardComponent&#45;&gt;DashboardModule</title>
<path fill="none" stroke="#000000" d="M1514,-122.0908C1514,-145.1328 1514,-182 1514,-182 1514,-182 836.2626,-182 836.2626,-182"/>
<polygon fill="#000000" stroke="#000000" points="836.2627,-178.5001 826.2626,-182 836.2626,-185.5001 836.2627,-178.5001"/>
</g>
<!-- HealthComponent -->
<g id="node2" class="node">
<title>HealthComponent</title>
<polygon fill="#ffffb3" stroke="#000000" points="1425.1499,-122 1306.8501,-122 1306.8501,-86 1425.1499,-86 1425.1499,-122"/>
<text text-anchor="middle" x="1366" y="-99.8" font-family="Times,serif" font-size="14.00" fill="#000000">HealthComponent</text>
</g>
<!-- HealthComponent&#45;&gt;DashboardModule -->
<g id="edge2" class="edge">
<title>HealthComponent&#45;&gt;DashboardModule</title>
<path fill="none" stroke="#000000" d="M1366,-122.2843C1366,-143.3211 1366,-175 1366,-175 1366,-175 836.2774,-175 836.2774,-175"/>
<polygon fill="#000000" stroke="#000000" points="836.2775,-171.5001 826.2774,-175 836.2774,-178.5001 836.2775,-171.5001"/>
</g>
<!-- HealthPieComponent -->
<g id="node3" class="node">
<title>HealthPieComponent</title>
<polygon fill="#ffffb3" stroke="#000000" points="1288.038,-122 1151.962,-122 1151.962,-86 1288.038,-86 1288.038,-122"/>
<text text-anchor="middle" x="1220" y="-99.8" font-family="Times,serif" font-size="14.00" fill="#000000">HealthPieComponent</text>
</g>
<!-- HealthPieComponent&#45;&gt;DashboardModule -->
<g id="edge3" class="edge">
<title>HealthPieComponent&#45;&gt;DashboardModule</title>
<path fill="none" stroke="#000000" d="M1220,-122.1061C1220,-141.3391 1220,-169 1220,-169 1220,-169 836.2877,-169 836.2877,-169"/>
<polygon fill="#000000" stroke="#000000" points="836.2877,-165.5001 826.2877,-169 836.2877,-172.5001 836.2877,-165.5001"/>
</g>
<!-- InfoCardComponent -->
<g id="node4" class="node">
<title>InfoCardComponent</title>
<polygon fill="#ffffb3" stroke="#000000" points="1133.8655,-122 1002.1345,-122 1002.1345,-86 1133.8655,-86 1133.8655,-122"/>
<text text-anchor="middle" x="1068" y="-99.8" font-family="Times,serif" font-size="14.00" fill="#000000">InfoCardComponent</text>
</g>
<!-- InfoCardComponent&#45;&gt;DashboardModule -->
<g id="edge4" class="edge">
<title>InfoCardComponent&#45;&gt;DashboardModule</title>
<path fill="none" stroke="#000000" d="M1068,-122.0225C1068,-139.3734 1068,-163 1068,-163 1068,-163 836.3884,-163 836.3884,-163"/>
<polygon fill="#000000" stroke="#000000" points="836.3884,-159.5001 826.3884,-163 836.3883,-166.5001 836.3884,-159.5001"/>
</g>
<!-- InfoGroupComponent -->
<g id="node5" class="node">
<title>InfoGroupComponent</title>
<polygon fill="#ffffb3" stroke="#000000" points="984.4214,-122 843.5786,-122 843.5786,-86 984.4214,-86 984.4214,-122"/>
<text text-anchor="middle" x="914" y="-99.8" font-family="Times,serif" font-size="14.00" fill="#000000">InfoGroupComponent</text>
</g>
<!-- InfoGroupComponent&#45;&gt;DashboardModule -->
<g id="edge5" class="edge">
<title>InfoGroupComponent&#45;&gt;DashboardModule</title>
<path fill="none" stroke="#000000" d="M914,-122.2396C914,-137.5706 914,-157 914,-157 914,-157 836.1973,-157 836.1973,-157"/>
<polygon fill="#000000" stroke="#000000" points="836.1973,-153.5001 826.1973,-157 836.1972,-160.5001 836.1973,-153.5001"/>
</g>
<!-- MdsSummaryPipe -->
<g id="node6" class="node">
<title>MdsSummaryPipe</title>
<polygon fill="#ffffb3" stroke="#000000" points="826.2162,-122 705.7838,-122 705.7838,-86 826.2162,-86 826.2162,-122"/>
<text text-anchor="middle" x="766" y="-99.8" font-family="Times,serif" font-size="14.00" fill="#000000">MdsSummaryPipe</text>
</g>
<!-- MdsSummaryPipe&#45;&gt;DashboardModule -->
<g id="edge6" class="edge">
<title>MdsSummaryPipe&#45;&gt;DashboardModule</title>
<path fill="none" stroke="#000000" d="M766,-122.1061C766,-122.1061 766,-140.991 766,-140.991"/>
<polygon fill="#000000" stroke="#000000" points="762.5001,-140.9909 766,-150.991 769.5001,-140.991 762.5001,-140.9909"/>
</g>
<!-- MgrSummaryPipe -->
<g id="node7" class="node">
<title>MgrSummaryPipe</title>
<polygon fill="#ffffb3" stroke="#000000" points="687.9328,-122 568.0672,-122 568.0672,-86 687.9328,-86 687.9328,-122"/>
<text text-anchor="middle" x="628" y="-99.8" font-family="Times,serif" font-size="14.00" fill="#000000">MgrSummaryPipe</text>
</g>
<!-- MgrSummaryPipe&#45;&gt;DashboardModule -->
<g id="edge7" class="edge">
<title>MgrSummaryPipe&#45;&gt;DashboardModule</title>
<path fill="none" stroke="#000000" d="M628,-122.2396C628,-137.5706 628,-157 628,-157 628,-157 695.8726,-157 695.8726,-157"/>
<polygon fill="#000000" stroke="#000000" points="695.8727,-160.5001 705.8726,-157 695.8726,-153.5001 695.8727,-160.5001"/>
</g>
<!-- MonSummaryPipe -->
<g id="node8" class="node">
<title>MonSummaryPipe</title>
<polygon fill="#ffffb3" stroke="#000000" points="549.7716,-122 428.2284,-122 428.2284,-86 549.7716,-86 549.7716,-122"/>
<text text-anchor="middle" x="489" y="-99.8" font-family="Times,serif" font-size="14.00" fill="#000000">MonSummaryPipe</text>
</g>
<!-- MonSummaryPipe&#45;&gt;DashboardModule -->
<g id="edge8" class="edge">
<title>MonSummaryPipe&#45;&gt;DashboardModule</title>
<path fill="none" stroke="#000000" d="M489,-122.0225C489,-139.3734 489,-163 489,-163 489,-163 695.8951,-163 695.8951,-163"/>
<polygon fill="#000000" stroke="#000000" points="695.8952,-166.5001 705.8951,-163 695.8951,-159.5001 695.8952,-166.5001"/>
</g>
<!-- OsdSummaryPipe -->
<g id="node9" class="node">
<title>OsdSummaryPipe</title>
<polygon fill="#ffffb3" stroke="#000000" points="409.8781,-122 292.1219,-122 292.1219,-86 409.8781,-86 409.8781,-122"/>
<text text-anchor="middle" x="351" y="-99.8" font-family="Times,serif" font-size="14.00" fill="#000000">OsdSummaryPipe</text>
</g>
<!-- OsdSummaryPipe&#45;&gt;DashboardModule -->
<g id="edge9" class="edge">
<title>OsdSummaryPipe&#45;&gt;DashboardModule</title>
<path fill="none" stroke="#000000" d="M351,-122.1061C351,-141.3391 351,-169 351,-169 351,-169 695.6554,-169 695.6554,-169"/>
<polygon fill="#000000" stroke="#000000" points="695.6555,-172.5001 705.6554,-169 695.6554,-165.5001 695.6555,-172.5001"/>
</g>
<!-- CephSharedModule -->
<g id="node11" class="node">
<title>CephSharedModule</title>
<polygon fill="#8dd3c7" stroke="#000000" points="267.9734,-122 264.9734,-126 243.9734,-126 240.9734,-122 140.0266,-122 140.0266,-86 267.9734,-86 267.9734,-122"/>
<text text-anchor="middle" x="204" y="-99.8" font-family="Times,serif" font-size="14.00" fill="#000000">CephSharedModule</text>
</g>
<!-- CephSharedModule&#45;&gt;DashboardModule -->
<g id="edge10" class="edge">
<title>CephSharedModule&#45;&gt;DashboardModule</title>
<path fill="none" stroke="#000000" d="M204,-122.2843C204,-143.3211 204,-175 204,-175 204,-175 695.8562,-175 695.8562,-175"/>
<polygon fill="#000000" stroke="#000000" points="695.8562,-178.5001 705.8562,-175 695.8561,-171.5001 695.8562,-178.5001"/>
</g>
<!-- SharedModule -->
<g id="node12" class="node">
<title>SharedModule</title>
<polygon fill="#8dd3c7" stroke="#000000" points="122.4231,-122 119.4231,-126 98.4231,-126 95.4231,-122 23.5769,-122 23.5769,-86 122.4231,-86 122.4231,-122"/>
<text text-anchor="middle" x="73" y="-99.8" font-family="Times,serif" font-size="14.00" fill="#000000">SharedModule</text>
</g>
<!-- SharedModule&#45;&gt;DashboardModule -->
<g id="edge11" class="edge">
<title>SharedModule&#45;&gt;DashboardModule</title>
<path fill="none" stroke="#000000" d="M73,-122.0908C73,-145.1328 73,-182 73,-182 73,-182 695.7131,-182 695.7131,-182"/>
<polygon fill="#000000" stroke="#000000" points="695.7131,-185.5001 705.7131,-182 695.7131,-178.5001 695.7131,-185.5001"/>
</g>
</g>
</svg>
