<?xml version="1.0" encoding="UTF-8" standalone="no"?>
<!DOCTYPE svg PUBLIC "-//W3C//DTD SVG 1.1//EN"
 "http://www.w3.org/Graphics/SVG/1.1/DTD/svg11.dtd">
<!-- Generated by graphviz version 2.40.1 (20161225.0304)
 -->
<!-- Title: dependencies Pages: 1 -->
<svg width="1247pt" height="284pt"
 viewBox="0.00 0.00 1247.00 284.00" xmlns="http://www.w3.org/2000/svg" xmlns:xlink="http://www.w3.org/1999/xlink">
<g id="graph0" class="graph" transform="scale(1 1) rotate(0) translate(4 280)">
<title>dependencies</title>
<polygon fill="#ffffff" stroke="transparent" points="-4,4 -4,-280 1243,-280 1243,4 -4,4"/>
<text text-anchor="start" x="598.5091" y="-42.4" font-family="sans-serif" font-weight="bold" font-size="14.00" fill="#000000">Legend</text>
<polygon fill="#ffffb3" stroke="transparent" points="385.5,-10 385.5,-30 405.5,-30 405.5,-10 385.5,-10"/>
<text text-anchor="start" x="409.129" y="-15.4" font-family="sans-serif" font-size="14.00" fill="#000000"> &#160;Declarations</text>
<polygon fill="#8dd3c7" stroke="transparent" points="498.5,-10 498.5,-30 518.5,-30 518.5,-10 498.5,-10"/>
<text text-anchor="start" x="522.2251" y="-15.4" font-family="sans-serif" font-size="14.00" fill="#000000"> &#160;Module</text>
<polygon fill="#80b1d3" stroke="transparent" points="584.5,-10 584.5,-30 604.5,-30 604.5,-10 584.5,-10"/>
<text text-anchor="start" x="608.2812" y="-15.4" font-family="sans-serif" font-size="14.00" fill="#000000"> &#160;Bootstrap</text>
<polygon fill="#fdb462" stroke="transparent" points="681.5,-10 681.5,-30 701.5,-30 701.5,-10 681.5,-10"/>
<text text-anchor="start" x="705.1732" y="-15.4" font-family="sans-serif" font-size="14.00" fill="#000000"> &#160;Providers</text>
<polygon fill="#fb8072" stroke="transparent" points="777.5,-10 777.5,-30 797.5,-30 797.5,-10 777.5,-10"/>
<text text-anchor="start" x="801.2258" y="-15.4" font-family="sans-serif" font-size="14.00" fill="#000000"> &#160;Exports</text>
<g id="clust1" class="cluster">
<title>cluster_PoolModule</title>
<polygon fill="none" stroke="#000000" stroke-dasharray="1,5" points="8,-70 8,-268 1231,-268 1231,-70 8,-70"/>
</g>
<g id="clust2" class="cluster">
<title>cluster_PoolModule_declarations</title>
<polygon fill="none" stroke="#000000" points="519,-78 519,-130 1223,-130 1223,-78 519,-78"/>
</g>
<g id="clust7" class="cluster">
<title>cluster_PoolModule_imports</title>
<polygon fill="none" stroke="#000000" points="16,-78 16,-130 511,-130 511,-78 16,-78"/>
</g>
<g id="clust8" class="cluster">
<title>cluster_PoolModule_exports</title>
<polygon fill="none" stroke="#000000" points="373,-208 373,-260 680,-260 680,-208 373,-208"/>
</g>
<!-- ErasureCodeProfileFormComponent -->
<g id="node1" class="node">
<title>ErasureCodeProfileFormComponent</title>
<polygon fill="#ffffb3" stroke="#000000" points="1215.0646,-122 992.9354,-122 992.9354,-86 1215.0646,-86 1215.0646,-122"/>
<text text-anchor="middle" x="1104" y="-99.8" font-family="Times,serif" font-size="14.00" fill="#000000">ErasureCodeProfileFormComponent</text>
</g>
<!-- PoolModule -->
<g id="node5" class="node">
<title>PoolModule</title>
<polygon fill="#8dd3c7" stroke="#000000" points="566.7233,-187 563.7233,-191 542.7233,-191 539.7233,-187 481.2767,-187 481.2767,-151 566.7233,-151 566.7233,-187"/>
<text text-anchor="middle" x="524" y="-164.8" font-family="Times,serif" font-size="14.00" fill="#000000">PoolModule</text>
</g>
<!-- ErasureCodeProfileFormComponent&#45;&gt;PoolModule -->
<g id="edge1" class="edge">
<title>ErasureCodeProfileFormComponent&#45;&gt;PoolModule</title>
<path fill="none" stroke="#000000" d="M1104,-122.2921C1104,-144.2057 1104,-178 1104,-178 1104,-178 576.6488,-178 576.6488,-178"/>
<polygon fill="#000000" stroke="#000000" points="576.6488,-174.5001 566.6488,-178 576.6487,-181.5001 576.6488,-174.5001"/>
</g>
<!-- PoolDetailsComponent -->
<g id="node2" class="node">
<title>PoolDetailsComponent</title>
<polygon fill="#ffffb3" stroke="#000000" points="975.1582,-122 828.8418,-122 828.8418,-86 975.1582,-86 975.1582,-122"/>
<text text-anchor="middle" x="902" y="-99.8" font-family="Times,serif" font-size="14.00" fill="#000000">PoolDetailsComponent</text>
</g>
<!-- PoolDetailsComponent&#45;&gt;PoolModule -->
<g id="edge2" class="edge">
<title>PoolDetailsComponent&#45;&gt;PoolModule</title>
<path fill="none" stroke="#000000" d="M902,-122.1061C902,-141.3391 902,-169 902,-169 902,-169 576.6266,-169 576.6266,-169"/>
<polygon fill="#000000" stroke="#000000" points="576.6267,-165.5001 566.6266,-169 576.6266,-172.5001 576.6267,-165.5001"/>
</g>
<!-- PoolFormComponent -->
<g id="node3" class="node">
<title>PoolFormComponent</title>
<polygon fill="#ffffb3" stroke="#000000" points="810.8398,-122 673.1602,-122 673.1602,-86 810.8398,-86 810.8398,-122"/>
<text text-anchor="middle" x="742" y="-99.8" font-family="Times,serif" font-size="14.00" fill="#000000">PoolFormComponent</text>
</g>
<!-- PoolFormComponent&#45;&gt;PoolModule -->
<g id="edge3" class="edge">
<title>PoolFormComponent&#45;&gt;PoolModule</title>
<path fill="none" stroke="#000000" d="M742,-122.027C742,-138.3976 742,-160 742,-160 742,-160 576.8097,-160 576.8097,-160"/>
<polygon fill="#000000" stroke="#000000" points="576.8097,-156.5001 566.8097,-160 576.8096,-163.5001 576.8097,-156.5001"/>
</g>
<!-- PoolListComponent -->
<g id="node4" class="node">
<title>PoolListComponent</title>
<polygon fill="#ffffb3" stroke="#000000" points="655.2842,-122 526.7158,-122 526.7158,-86 655.2842,-86 655.2842,-122"/>
<text text-anchor="middle" x="591" y="-99.8" font-family="Times,serif" font-size="14.00" fill="#000000">PoolListComponent</text>
</g>
<!-- PoolListComponent&#45;&gt;PoolModule -->
<g id="edge4" class="edge">
<title>PoolListComponent&#45;&gt;PoolModule</title>
<path fill="none" stroke="#000000" d="M546.6098,-122.1061C546.6098,-122.1061 546.6098,-140.991 546.6098,-140.991"/>
<polygon fill="#000000" stroke="#000000" points="543.1098,-140.9909 546.6098,-150.991 550.1098,-140.991 543.1098,-140.9909"/>
</g>
<!-- PoolFormComponent  -->
<g id="node10" class="node">
<title>PoolFormComponent </title>
<polygon fill="#fb8072" stroke="#000000" points="672.3395,-252 531.6605,-252 531.6605,-216 672.3395,-216 672.3395,-252"/>
<text text-anchor="middle" x="602" y="-229.8" font-family="Times,serif" font-size="14.00" fill="#000000">PoolFormComponent </text>
</g>
<!-- PoolModule&#45;&gt;PoolFormComponent  -->
<g id="edge9" class="edge">
<title>PoolModule&#45;&gt;PoolFormComponent </title>
<path fill="none" stroke="#000000" stroke-dasharray="5,2" d="M549.0959,-187.1061C549.0959,-187.1061 549.0959,-205.991 549.0959,-205.991"/>
<polygon fill="#000000" stroke="#000000" points="545.596,-205.9909 549.0959,-215.991 552.596,-205.991 545.596,-205.9909"/>
</g>
<!-- PoolListComponent  -->
<g id="node11" class="node">
<title>PoolListComponent </title>
<polygon fill="#fb8072" stroke="#000000" points="513.2843,-252 380.7157,-252 380.7157,-216 513.2843,-216 513.2843,-252"/>
<text text-anchor="middle" x="447" y="-229.8" font-family="Times,serif" font-size="14.00" fill="#000000">PoolListComponent </text>
</g>
<!-- PoolModule&#45;&gt;PoolListComponent  -->
<g id="edge10" class="edge">
<title>PoolModule&#45;&gt;PoolListComponent </title>
<path fill="none" stroke="#000000" stroke-dasharray="5,2" d="M497.2653,-187.1061C497.2653,-187.1061 497.2653,-205.991 497.2653,-205.991"/>
<polygon fill="#000000" stroke="#000000" points="493.7653,-205.9909 497.2653,-215.991 500.7653,-205.991 493.7653,-205.9909"/>
</g>
<!-- BlockModule -->
<g id="node6" class="node">
<title>BlockModule</title>
<polygon fill="#8dd3c7" stroke="#000000" points="503.4916,-122 500.4916,-126 479.4916,-126 476.4916,-122 410.5084,-122 410.5084,-86 503.4916,-86 503.4916,-122"/>
<text text-anchor="middle" x="457" y="-99.8" font-family="Times,serif" font-size="14.00" fill="#000000">BlockModule</text>
</g>
<!-- BlockModule&#45;&gt;PoolModule -->
<g id="edge5" class="edge">
<title>BlockModule&#45;&gt;PoolModule</title>
<path fill="none" stroke="#000000" d="M492.4422,-122.1061C492.4422,-122.1061 492.4422,-140.991 492.4422,-140.991"/>
<polygon fill="#000000" stroke="#000000" points="488.9422,-140.9909 492.4422,-150.991 495.9422,-140.991 488.9422,-140.9909"/>
</g>
<!-- CephSharedModule -->
<g id="node7" class="node">
<title>CephSharedModule</title>
<polygon fill="#8dd3c7" stroke="#000000" points="392.9734,-122 389.9734,-126 368.9734,-126 365.9734,-122 265.0266,-122 265.0266,-86 392.9734,-86 392.9734,-122"/>
<text text-anchor="middle" x="329" y="-99.8" font-family="Times,serif" font-size="14.00" fill="#000000">CephSharedModule</text>
</g>
<!-- CephSharedModule&#45;&gt;PoolModule -->
<g id="edge6" class="edge">
<title>CephSharedModule&#45;&gt;PoolModule</title>
<path fill="none" stroke="#000000" d="M386.9224,-122.027C386.9224,-138.3976 386.9224,-160 386.9224,-160 386.9224,-160 471.3792,-160 471.3792,-160"/>
<polygon fill="#000000" stroke="#000000" points="471.3792,-163.5001 481.3792,-160 471.3791,-156.5001 471.3792,-163.5001"/>
</g>
<!-- ServicesModule -->
<g id="node8" class="node">
<title>ServicesModule</title>
<polygon fill="#8dd3c7" stroke="#000000" points="247.472,-122 244.472,-126 223.472,-126 220.472,-122 140.528,-122 140.528,-86 247.472,-86 247.472,-122"/>
<text text-anchor="middle" x="194" y="-99.8" font-family="Times,serif" font-size="14.00" fill="#000000">ServicesModule</text>
</g>
<!-- ServicesModule&#45;&gt;PoolModule -->
<g id="edge7" class="edge">
<title>ServicesModule&#45;&gt;PoolModule</title>
<path fill="none" stroke="#000000" d="M194,-122.1061C194,-141.3391 194,-169 194,-169 194,-169 471.1966,-169 471.1966,-169"/>
<polygon fill="#000000" stroke="#000000" points="471.1966,-172.5001 481.1966,-169 471.1965,-165.5001 471.1966,-172.5001"/>
</g>
<!-- SharedModule -->
<g id="node9" class="node">
<title>SharedModule</title>
<polygon fill="#8dd3c7" stroke="#000000" points="122.4231,-122 119.4231,-126 98.4231,-126 95.4231,-122 23.5769,-122 23.5769,-86 122.4231,-86 122.4231,-122"/>
<text text-anchor="middle" x="73" y="-99.8" font-family="Times,serif" font-size="14.00" fill="#000000">SharedModule</text>
</g>
<!-- SharedModule&#45;&gt;PoolModule -->
<g id="edge8" class="edge">
<title>SharedModule&#45;&gt;PoolModule</title>
<path fill="none" stroke="#000000" d="M73,-122.2921C73,-144.2057 73,-178 73,-178 73,-178 471.1644,-178 471.1644,-178"/>
<polygon fill="#000000" stroke="#000000" points="471.1645,-181.5001 481.1644,-178 471.1644,-174.5001 471.1645,-181.5001"/>
</g>
</g>
</svg>
