<?xml version="1.0" encoding="UTF-8" standalone="no"?>
<!DOCTYPE svg PUBLIC "-//W3C//DTD SVG 1.1//EN"
 "http://www.w3.org/Graphics/SVG/1.1/DTD/svg11.dtd">
<!-- Generated by graphviz version 2.40.1 (20161225.0304)
 -->
<!-- Title: dependencies Pages: 1 -->
<svg width="820pt" height="211pt"
 viewBox="0.00 0.00 820.00 211.00" xmlns="http://www.w3.org/2000/svg" xmlns:xlink="http://www.w3.org/1999/xlink">
<g id="graph0" class="graph" transform="scale(1 1) rotate(0) translate(4 207)">
<title>dependencies</title>
<polygon fill="#ffffff" stroke="transparent" points="-4,4 -4,-207 816,-207 816,4 -4,4"/>
<text text-anchor="start" x="385.0091" y="-42.4" font-family="sans-serif" font-weight="bold" font-size="14.00" fill="#000000">Legend</text>
<polygon fill="#ffffb3" stroke="transparent" points="172,-10 172,-30 192,-30 192,-10 172,-10"/>
<text text-anchor="start" x="195.629" y="-15.4" font-family="sans-serif" font-size="14.00" fill="#000000"> &#160;Declarations</text>
<polygon fill="#8dd3c7" stroke="transparent" points="285,-10 285,-30 305,-30 305,-10 285,-10"/>
<text text-anchor="start" x="308.7251" y="-15.4" font-family="sans-serif" font-size="14.00" fill="#000000"> &#160;Module</text>
<polygon fill="#80b1d3" stroke="transparent" points="371,-10 371,-30 391,-30 391,-10 371,-10"/>
<text text-anchor="start" x="394.7812" y="-15.4" font-family="sans-serif" font-size="14.00" fill="#000000"> &#160;Bootstrap</text>
<polygon fill="#fdb462" stroke="transparent" points="468,-10 468,-30 488,-30 488,-10 468,-10"/>
<text text-anchor="start" x="491.6732" y="-15.4" font-family="sans-serif" font-size="14.00" fill="#000000"> &#160;Providers</text>
<polygon fill="#fb8072" stroke="transparent" points="564,-10 564,-30 584,-30 584,-10 564,-10"/>
<text text-anchor="start" x="587.7258" y="-15.4" font-family="sans-serif" font-size="14.00" fill="#000000"> &#160;Exports</text>
<g id="clust1" class="cluster">
<title>cluster_CephModule</title>
<polygon fill="none" stroke="#000000" stroke-dasharray="1,5" points="8,-70 8,-195 804,-195 804,-70 8,-70"/>
</g>
<g id="clust3" class="cluster">
<title>cluster_CephModule_imports</title>
<polygon fill="none" stroke="#000000" points="16,-78 16,-130 796,-130 796,-78 16,-78"/>
</g>
<!-- CephfsModule -->
<g id="node1" class="node">
<title>CephfsModule</title>
<polygon fill="#8dd3c7" stroke="#000000" points="787.7064,-122 784.7064,-126 763.7064,-126 760.7064,-122 688.2936,-122 688.2936,-86 787.7064,-86 787.7064,-122"/>
<text text-anchor="middle" x="738" y="-99.8" font-family="Times,serif" font-size="14.00" fill="#000000">CephfsModule</text>
</g>
<!-- CephModule -->
<g id="node7" class="node">
<title>CephModule</title>
<polygon fill="#8dd3c7" stroke="#000000" points="477.6011,-187 474.6011,-191 453.6011,-191 450.6011,-187 388.3989,-187 388.3989,-151 477.6011,-151 477.6011,-187"/>
<text text-anchor="middle" x="433" y="-164.8" font-family="Times,serif" font-size="14.00" fill="#000000">CephModule</text>
</g>
<!-- CephfsModule&#45;&gt;CephModule -->
<g id="edge1" class="edge">
<title>CephfsModule&#45;&gt;CephModule</title>
<path fill="none" stroke="#000000" d="M738,-122.2843C738,-143.3211 738,-175 738,-175 738,-175 487.6763,-175 487.6763,-175"/>
<polygon fill="#000000" stroke="#000000" points="487.6763,-171.5001 477.6763,-175 487.6762,-178.5001 487.6763,-171.5001"/>
</g>
<!-- ClusterModule -->
<g id="node2" class="node">
<title>ClusterModule</title>
<polygon fill="#8dd3c7" stroke="#000000" points="669.9874,-122 666.9874,-126 645.9874,-126 642.9874,-122 570.0126,-122 570.0126,-86 669.9874,-86 669.9874,-122"/>
<text text-anchor="middle" x="620" y="-99.8" font-family="Times,serif" font-size="14.00" fill="#000000">ClusterModule</text>
</g>
<!-- ClusterModule&#45;&gt;CephModule -->
<g id="edge2" class="edge">
<title>ClusterModule&#45;&gt;CephModule</title>
<path fill="none" stroke="#000000" d="M620,-122.0225C620,-139.3734 620,-163 620,-163 620,-163 487.7912,-163 487.7912,-163"/>
<polygon fill="#000000" stroke="#000000" points="487.7912,-159.5001 477.7912,-163 487.7911,-166.5001 487.7912,-159.5001"/>
</g>
<!-- DashboardModule -->
<g id="node3" class="node">
<title>DashboardModule</title>
<polygon fill="#8dd3c7" stroke="#000000" points="552.191,-122 549.191,-126 528.191,-126 525.191,-122 431.809,-122 431.809,-86 552.191,-86 552.191,-122"/>
<text text-anchor="middle" x="492" y="-99.8" font-family="Times,serif" font-size="14.00" fill="#000000">DashboardModule</text>
</g>
<!-- DashboardModule&#45;&gt;CephModule -->
<g id="edge3" class="edge">
<title>DashboardModule&#45;&gt;CephModule</title>
<path fill="none" stroke="#000000" d="M454.7276,-122.1061C454.7276,-122.1061 454.7276,-140.991 454.7276,-140.991"/>
<polygon fill="#000000" stroke="#000000" points="451.2276,-140.9909 454.7276,-150.991 458.2276,-140.991 451.2276,-140.9909"/>
</g>
<!-- NfsModule -->
<g id="node4" class="node">
<title>NfsModule</title>
<polygon fill="#8dd3c7" stroke="#000000" points="413.762,-122 410.762,-126 389.762,-126 386.762,-122 334.238,-122 334.238,-86 413.762,-86 413.762,-122"/>
<text text-anchor="middle" x="374" y="-99.8" font-family="Times,serif" font-size="14.00" fill="#000000">NfsModule</text>
</g>
<!-- NfsModule&#45;&gt;CephModule -->
<g id="edge4" class="edge">
<title>NfsModule&#45;&gt;CephModule</title>
<path fill="none" stroke="#000000" d="M401.1652,-122.1061C401.1652,-122.1061 401.1652,-140.991 401.1652,-140.991"/>
<polygon fill="#000000" stroke="#000000" points="397.6652,-140.9909 401.1652,-150.991 404.6652,-140.991 397.6652,-140.9909"/>
</g>
<!-- PerformanceCounterModule -->
<g id="node5" class="node">
<title>PerformanceCounterModule</title>
<polygon fill="#8dd3c7" stroke="#000000" points="316.1657,-122 313.1657,-126 292.1657,-126 289.1657,-122 139.8343,-122 139.8343,-86 316.1657,-86 316.1657,-122"/>
<text text-anchor="middle" x="228" y="-99.8" font-family="Times,serif" font-size="14.00" fill="#000000">PerformanceCounterModule</text>
</g>
<!-- PerformanceCounterModule&#45;&gt;CephModule -->
<g id="edge5" class="edge">
<title>PerformanceCounterModule&#45;&gt;CephModule</title>
<path fill="none" stroke="#000000" d="M228,-122.0225C228,-139.3734 228,-163 228,-163 228,-163 378.2652,-163 378.2652,-163"/>
<polygon fill="#000000" stroke="#000000" points="378.2652,-166.5001 388.2652,-163 378.2652,-159.5001 378.2652,-166.5001"/>
</g>
<!-- SharedModule -->
<g id="node6" class="node">
<title>SharedModule</title>
<polygon fill="#8dd3c7" stroke="#000000" points="122.4231,-122 119.4231,-126 98.4231,-126 95.4231,-122 23.5769,-122 23.5769,-86 122.4231,-86 122.4231,-122"/>
<text text-anchor="middle" x="73" y="-99.8" font-family="Times,serif" font-size="14.00" fill="#000000">SharedModule</text>
</g>
<!-- SharedModule&#45;&gt;CephModule -->
<g id="edge6" class="edge">
<title>SharedModule&#45;&gt;CephModule</title>
<path fill="none" stroke="#000000" d="M73,-122.2843C73,-143.3211 73,-175 73,-175 73,-175 378.1336,-175 378.1336,-175"/>
<polygon fill="#000000" stroke="#000000" points="378.1337,-178.5001 388.1336,-175 378.1336,-171.5001 378.1337,-178.5001"/>
</g>
</g>
</svg>
