<?xml version="1.0" encoding="UTF-8" standalone="no"?>
<!DOCTYPE svg PUBLIC "-//W3C//DTD SVG 1.1//EN"
 "http://www.w3.org/Graphics/SVG/1.1/DTD/svg11.dtd">
<!-- Generated by graphviz version 2.40.1 (20161225.0304)
 -->
<!-- Title: dependencies Pages: 1 -->
<svg width="989pt" height="211pt"
 viewBox="0.00 0.00 989.00 211.00" xmlns="http://www.w3.org/2000/svg" xmlns:xlink="http://www.w3.org/1999/xlink">
<g id="graph0" class="graph" transform="scale(1 1) rotate(0) translate(4 207)">
<title>dependencies</title>
<polygon fill="#ffffff" stroke="transparent" points="-4,4 -4,-207 985,-207 985,4 -4,4"/>
<text text-anchor="start" x="469.5091" y="-42.4" font-family="sans-serif" font-weight="bold" font-size="14.00" fill="#000000">Legend</text>
<polygon fill="#ffffb3" stroke="transparent" points="256.5,-10 256.5,-30 276.5,-30 276.5,-10 256.5,-10"/>
<text text-anchor="start" x="280.129" y="-15.4" font-family="sans-serif" font-size="14.00" fill="#000000"> &#160;Declarations</text>
<polygon fill="#8dd3c7" stroke="transparent" points="369.5,-10 369.5,-30 389.5,-30 389.5,-10 369.5,-10"/>
<text text-anchor="start" x="393.2251" y="-15.4" font-family="sans-serif" font-size="14.00" fill="#000000"> &#160;Module</text>
<polygon fill="#80b1d3" stroke="transparent" points="455.5,-10 455.5,-30 475.5,-30 475.5,-10 455.5,-10"/>
<text text-anchor="start" x="479.2812" y="-15.4" font-family="sans-serif" font-size="14.00" fill="#000000"> &#160;Bootstrap</text>
<polygon fill="#fdb462" stroke="transparent" points="552.5,-10 552.5,-30 572.5,-30 572.5,-10 552.5,-10"/>
<text text-anchor="start" x="576.1732" y="-15.4" font-family="sans-serif" font-size="14.00" fill="#000000"> &#160;Providers</text>
<polygon fill="#fb8072" stroke="transparent" points="648.5,-10 648.5,-30 668.5,-30 668.5,-10 648.5,-10"/>
<text text-anchor="start" x="672.2258" y="-15.4" font-family="sans-serif" font-size="14.00" fill="#000000"> &#160;Exports</text>
<g id="clust1" class="cluster">
<title>cluster_CephfsModule</title>
<polygon fill="none" stroke="#000000" stroke-dasharray="1,5" points="8,-70 8,-195 973,-195 973,-70 8,-70"/>
</g>
<g id="clust2" class="cluster">
<title>cluster_CephfsModule_declarations</title>
<polygon fill="none" stroke="#000000" points="285,-78 285,-130 965,-130 965,-78 285,-78"/>
</g>
<g id="clust7" class="cluster">
<title>cluster_CephfsModule_imports</title>
<polygon fill="none" stroke="#000000" points="16,-78 16,-130 277,-130 277,-78 16,-78"/>
</g>
<!-- CephfsChartComponent -->
<g id="node1" class="node">
<title>CephfsChartComponent</title>
<polygon fill="#ffffb3" stroke="#000000" points="957.0912,-122 804.9088,-122 804.9088,-86 957.0912,-86 957.0912,-122"/>
<text text-anchor="middle" x="881" y="-99.8" font-family="Times,serif" font-size="14.00" fill="#000000">CephfsChartComponent</text>
</g>
<!-- CephfsModule -->
<g id="node5" class="node">
<title>CephfsModule</title>
<polygon fill="#8dd3c7" stroke="#000000" points="496.7064,-187 493.7064,-191 472.7064,-191 469.7064,-187 397.2936,-187 397.2936,-151 496.7064,-151 496.7064,-187"/>
<text text-anchor="middle" x="447" y="-164.8" font-family="Times,serif" font-size="14.00" fill="#000000">CephfsModule</text>
</g>
<!-- CephfsChartComponent&#45;&gt;CephfsModule -->
<g id="edge1" class="edge">
<title>CephfsChartComponent&#45;&gt;CephfsModule</title>
<path fill="none" stroke="#000000" d="M881,-122.2843C881,-143.3211 881,-175 881,-175 881,-175 506.7853,-175 506.7853,-175"/>
<polygon fill="#000000" stroke="#000000" points="506.7854,-171.5001 496.7853,-175 506.7853,-178.5001 506.7854,-171.5001"/>
</g>
<!-- CephfsClientsComponent -->
<g id="node2" class="node">
<title>CephfsClientsComponent</title>
<polygon fill="#ffffb3" stroke="#000000" points="787.1568,-122 626.8432,-122 626.8432,-86 787.1568,-86 787.1568,-122"/>
<text text-anchor="middle" x="707" y="-99.8" font-family="Times,serif" font-size="14.00" fill="#000000">CephfsClientsComponent</text>
</g>
<!-- CephfsClientsComponent&#45;&gt;CephfsModule -->
<g id="edge2" class="edge">
<title>CephfsClientsComponent&#45;&gt;CephfsModule</title>
<path fill="none" stroke="#000000" d="M707,-122.0225C707,-139.3734 707,-163 707,-163 707,-163 506.823,-163 506.823,-163"/>
<polygon fill="#000000" stroke="#000000" points="506.823,-159.5001 496.823,-163 506.8229,-166.5001 506.823,-159.5001"/>
</g>
<!-- CephfsDetailComponent -->
<g id="node3" class="node">
<title>CephfsDetailComponent</title>
<polygon fill="#ffffb3" stroke="#000000" points="608.6965,-122 453.3035,-122 453.3035,-86 608.6965,-86 608.6965,-122"/>
<text text-anchor="middle" x="531" y="-99.8" font-family="Times,serif" font-size="14.00" fill="#000000">CephfsDetailComponent</text>
</g>
<!-- CephfsDetailComponent&#45;&gt;CephfsModule -->
<g id="edge3" class="edge">
<title>CephfsDetailComponent&#45;&gt;CephfsModule</title>
<path fill="none" stroke="#000000" d="M475.0025,-122.1061C475.0025,-122.1061 475.0025,-140.991 475.0025,-140.991"/>
<polygon fill="#000000" stroke="#000000" points="471.5025,-140.9909 475.0025,-150.991 478.5025,-140.991 471.5025,-140.9909"/>
</g>
<!-- CephfsListComponent -->
<g id="node4" class="node">
<title>CephfsListComponent</title>
<polygon fill="#ffffb3" stroke="#000000" points="435.2674,-122 292.7326,-122 292.7326,-86 435.2674,-86 435.2674,-122"/>
<text text-anchor="middle" x="364" y="-99.8" font-family="Times,serif" font-size="14.00" fill="#000000">CephfsListComponent</text>
</g>
<!-- CephfsListComponent&#45;&gt;CephfsModule -->
<g id="edge4" class="edge">
<title>CephfsListComponent&#45;&gt;CephfsModule</title>
<path fill="none" stroke="#000000" d="M416.3903,-122.1061C416.3903,-122.1061 416.3903,-140.991 416.3903,-140.991"/>
<polygon fill="#000000" stroke="#000000" points="412.8903,-140.9909 416.3903,-150.991 419.8903,-140.991 412.8903,-140.9909"/>
</g>
<!-- AppRoutingModule -->
<g id="node6" class="node">
<title>AppRoutingModule</title>
<polygon fill="#8dd3c7" stroke="#000000" points="269.2744,-122 266.2744,-126 245.2744,-126 242.2744,-122 140.7256,-122 140.7256,-86 269.2744,-86 269.2744,-122"/>
<text text-anchor="middle" x="205" y="-99.8" font-family="Times,serif" font-size="14.00" fill="#000000">AppRoutingModule</text>
</g>
<!-- AppRoutingModule&#45;&gt;CephfsModule -->
<g id="edge5" class="edge">
<title>AppRoutingModule&#45;&gt;CephfsModule</title>
<path fill="none" stroke="#000000" d="M205,-122.0225C205,-139.3734 205,-163 205,-163 205,-163 387.1509,-163 387.1509,-163"/>
<polygon fill="#000000" stroke="#000000" points="387.1509,-166.5001 397.1509,-163 387.1508,-159.5001 387.1509,-166.5001"/>
</g>
<!-- SharedModule -->
<g id="node7" class="node">
<title>SharedModule</title>
<polygon fill="#8dd3c7" stroke="#000000" points="122.4231,-122 119.4231,-126 98.4231,-126 95.4231,-122 23.5769,-122 23.5769,-86 122.4231,-86 122.4231,-122"/>
<text text-anchor="middle" x="73" y="-99.8" font-family="Times,serif" font-size="14.00" fill="#000000">SharedModule</text>
</g>
<!-- SharedModule&#45;&gt;CephfsModule -->
<g id="edge6" class="edge">
<title>SharedModule&#45;&gt;CephfsModule</title>
<path fill="none" stroke="#000000" d="M73,-122.2843C73,-143.3211 73,-175 73,-175 73,-175 387.3357,-175 387.3357,-175"/>
<polygon fill="#000000" stroke="#000000" points="387.3357,-178.5001 397.3357,-175 387.3357,-171.5001 387.3357,-178.5001"/>
</g>
</g>
</svg>
