<?xml version="1.0" encoding="UTF-8" standalone="no"?>
<!DOCTYPE svg PUBLIC "-//W3C//DTD SVG 1.1//EN"
 "http://www.w3.org/Graphics/SVG/1.1/DTD/svg11.dtd">
<!-- Generated by graphviz version 2.40.1 (20161225.0304)
 -->
<!-- Title: dependencies Pages: 1 -->
<svg width="1272pt" height="284pt"
 viewBox="0.00 0.00 1272.00 284.00" xmlns="http://www.w3.org/2000/svg" xmlns:xlink="http://www.w3.org/1999/xlink">
<g id="graph0" class="graph" transform="scale(1 1) rotate(0) translate(4 280)">
<title>dependencies</title>
<polygon fill="#ffffff" stroke="transparent" points="-4,4 -4,-280 1268,-280 1268,4 -4,4"/>
<text text-anchor="start" x="611.0091" y="-42.4" font-family="sans-serif" font-weight="bold" font-size="14.00" fill="#000000">Legend</text>
<polygon fill="#ffffb3" stroke="transparent" points="398,-10 398,-30 418,-30 418,-10 398,-10"/>
<text text-anchor="start" x="421.629" y="-15.4" font-family="sans-serif" font-size="14.00" fill="#000000"> &#160;Declarations</text>
<polygon fill="#8dd3c7" stroke="transparent" points="511,-10 511,-30 531,-30 531,-10 511,-10"/>
<text text-anchor="start" x="534.7251" y="-15.4" font-family="sans-serif" font-size="14.00" fill="#000000"> &#160;Module</text>
<polygon fill="#80b1d3" stroke="transparent" points="597,-10 597,-30 617,-30 617,-10 597,-10"/>
<text text-anchor="start" x="620.7812" y="-15.4" font-family="sans-serif" font-size="14.00" fill="#000000"> &#160;Bootstrap</text>
<polygon fill="#fdb462" stroke="transparent" points="694,-10 694,-30 714,-30 714,-10 694,-10"/>
<text text-anchor="start" x="717.6732" y="-15.4" font-family="sans-serif" font-size="14.00" fill="#000000"> &#160;Providers</text>
<polygon fill="#fb8072" stroke="transparent" points="790,-10 790,-30 810,-30 810,-10 790,-10"/>
<text text-anchor="start" x="813.7258" y="-15.4" font-family="sans-serif" font-size="14.00" fill="#000000"> &#160;Exports</text>
<g id="clust1" class="cluster">
<title>cluster_DirectivesModule</title>
<polygon fill="none" stroke="#000000" stroke-dasharray="1,5" points="8,-70 8,-268 1256,-268 1256,-70 8,-70"/>
</g>
<g id="clust2" class="cluster">
<title>cluster_DirectivesModule_declarations</title>
<polygon fill="none" stroke="#000000" points="30,-78 30,-130 1236,-130 1236,-78 30,-78"/>
</g>
<g id="clust11" class="cluster">
<title>cluster_DirectivesModule_exports</title>
<polygon fill="none" stroke="#000000" points="16,-208 16,-260 1248,-260 1248,-208 16,-208"/>
</g>
<!-- AutofocusDirective -->
<g id="node1" class="node">
<title>AutofocusDirective</title>
<polygon fill="#ffffb3" stroke="#000000" points="1228.4004,-122 1101.5996,-122 1101.5996,-86 1228.4004,-86 1228.4004,-122"/>
<text text-anchor="middle" x="1165" y="-99.8" font-family="Times,serif" font-size="14.00" fill="#000000">AutofocusDirective</text>
</g>
<!-- DirectivesModule -->
<g id="node8" class="node">
<title>DirectivesModule</title>
<polygon fill="#8dd3c7" stroke="#000000" points="648.5772,-187 645.5772,-191 624.5772,-191 621.5772,-187 531.4228,-187 531.4228,-151 648.5772,-151 648.5772,-187"/>
<text text-anchor="middle" x="590" y="-164.8" font-family="Times,serif" font-size="14.00" fill="#000000">DirectivesModule</text>
</g>
<!-- AutofocusDirective&#45;&gt;DirectivesModule -->
<g id="edge1" class="edge">
<title>AutofocusDirective&#45;&gt;DirectivesModule</title>
<path fill="none" stroke="#000000" d="M1105.9251,-122.2222C1105.9251,-140.8285 1105.9251,-167 1105.9251,-167 1105.9251,-167 658.6809,-167 658.6809,-167"/>
<polygon fill="#000000" stroke="#000000" points="658.6809,-163.5001 648.6809,-167 658.6808,-170.5001 658.6809,-163.5001"/>
</g>
<!-- Copy2ClipboardButtonDirective -->
<g id="node2" class="node">
<title>Copy2ClipboardButtonDirective</title>
<polygon fill="#ffffb3" stroke="#000000" points="1083.5308,-122 884.4692,-122 884.4692,-86 1083.5308,-86 1083.5308,-122"/>
<text text-anchor="middle" x="984" y="-99.8" font-family="Times,serif" font-size="14.00" fill="#000000">Copy2ClipboardButtonDirective</text>
</g>
<!-- Copy2ClipboardButtonDirective&#45;&gt;DirectivesModule -->
<g id="edge2" class="edge">
<title>Copy2ClipboardButtonDirective&#45;&gt;DirectivesModule</title>
<path fill="none" stroke="#000000" d="M1019.005,-122.0336C1019.005,-139.0597 1019.005,-162 1019.005,-162 1019.005,-162 658.7518,-162 658.7518,-162"/>
<polygon fill="#000000" stroke="#000000" points="658.7518,-158.5001 648.7518,-162 658.7518,-165.5001 658.7518,-158.5001"/>
</g>
<!-- DimlessBinaryDirective -->
<g id="node3" class="node">
<title>DimlessBinaryDirective</title>
<polygon fill="#ffffb3" stroke="#000000" points="866.0674,-122 713.9326,-122 713.9326,-86 866.0674,-86 866.0674,-122"/>
<text text-anchor="middle" x="790" y="-99.8" font-family="Times,serif" font-size="14.00" fill="#000000">DimlessBinaryDirective</text>
</g>
<!-- DimlessBinaryDirective&#45;&gt;DirectivesModule -->
<g id="edge3" class="edge">
<title>DimlessBinaryDirective&#45;&gt;DirectivesModule</title>
<path fill="none" stroke="#000000" d="M816.0946,-122.2396C816.0946,-137.5706 816.0946,-157 816.0946,-157 816.0946,-157 658.8135,-157 658.8135,-157"/>
<polygon fill="#000000" stroke="#000000" points="658.8135,-153.5001 648.8135,-157 658.8134,-160.5001 658.8135,-153.5001"/>
</g>
<!-- DimlessBinaryPerSecondDirective -->
<g id="node4" class="node">
<title>DimlessBinaryPerSecondDirective</title>
<polygon fill="#ffffb3" stroke="#000000" points="695.937,-122 484.063,-122 484.063,-86 695.937,-86 695.937,-122"/>
<text text-anchor="middle" x="590" y="-99.8" font-family="Times,serif" font-size="14.00" fill="#000000">DimlessBinaryPerSecondDirective</text>
</g>
<!-- DimlessBinaryPerSecondDirective&#45;&gt;DirectivesModule -->
<g id="edge4" class="edge">
<title>DimlessBinaryPerSecondDirective&#45;&gt;DirectivesModule</title>
<path fill="none" stroke="#000000" d="M590,-122.1061C590,-122.1061 590,-140.991 590,-140.991"/>
<polygon fill="#000000" stroke="#000000" points="586.5001,-140.9909 590,-150.991 593.5001,-140.991 586.5001,-140.9909"/>
</g>
<!-- IopsDirective -->
<g id="node5" class="node">
<title>IopsDirective</title>
<polygon fill="#ffffb3" stroke="#000000" points="466.1882,-122 373.8118,-122 373.8118,-86 466.1882,-86 466.1882,-122"/>
<text text-anchor="middle" x="420" y="-99.8" font-family="Times,serif" font-size="14.00" fill="#000000">IopsDirective</text>
</g>
<!-- IopsDirective&#45;&gt;DirectivesModule -->
<g id="edge5" class="edge">
<title>IopsDirective&#45;&gt;DirectivesModule</title>
<path fill="none" stroke="#000000" d="M433.8647,-122.2396C433.8647,-137.5706 433.8647,-157 433.8647,-157 433.8647,-157 521.4167,-157 521.4167,-157"/>
<polygon fill="#000000" stroke="#000000" points="521.4168,-160.5001 531.4167,-157 521.4167,-153.5001 521.4168,-160.5001"/>
</g>
<!-- MillisecondsDirective -->
<g id="node6" class="node">
<title>MillisecondsDirective</title>
<polygon fill="#ffffb3" stroke="#000000" points="356.4088,-122 215.5912,-122 215.5912,-86 356.4088,-86 356.4088,-122"/>
<text text-anchor="middle" x="286" y="-99.8" font-family="Times,serif" font-size="14.00" fill="#000000">MillisecondsDirective</text>
</g>
<!-- MillisecondsDirective&#45;&gt;DirectivesModule -->
<g id="edge6" class="edge">
<title>MillisecondsDirective&#45;&gt;DirectivesModule</title>
<path fill="none" stroke="#000000" d="M305.2347,-122.0336C305.2347,-139.0597 305.2347,-162 305.2347,-162 305.2347,-162 521.3417,-162 521.3417,-162"/>
<polygon fill="#000000" stroke="#000000" points="521.3418,-165.5001 531.3417,-162 521.3417,-158.5001 521.3418,-165.5001"/>
</g>
<!-- PasswordButtonDirective -->
<g id="node7" class="node">
<title>PasswordButtonDirective</title>
<polygon fill="#ffffb3" stroke="#000000" points="197.8543,-122 38.1457,-122 38.1457,-86 197.8543,-86 197.8543,-122"/>
<text text-anchor="middle" x="118" y="-99.8" font-family="Times,serif" font-size="14.00" fill="#000000">PasswordButtonDirective</text>
</g>
<!-- PasswordButtonDirective&#45;&gt;DirectivesModule -->
<g id="edge7" class="edge">
<title>PasswordButtonDirective&#45;&gt;DirectivesModule</title>
<path fill="none" stroke="#000000" d="M192.8021,-122.2222C192.8021,-140.8285 192.8021,-167 192.8021,-167 192.8021,-167 521.3921,-167 521.3921,-167"/>
<polygon fill="#000000" stroke="#000000" points="521.3921,-170.5001 531.3921,-167 521.392,-163.5001 521.3921,-170.5001"/>
</g>
<!-- AutofocusDirective  -->
<g id="node9" class="node">
<title>AutofocusDirective </title>
<polygon fill="#fb8072" stroke="#000000" points="1239.8998,-252 1110.1002,-252 1110.1002,-216 1239.8998,-216 1239.8998,-252"/>
<text text-anchor="middle" x="1175" y="-229.8" font-family="Times,serif" font-size="14.00" fill="#000000">AutofocusDirective </text>
</g>
<!-- DirectivesModule&#45;&gt;AutofocusDirective  -->
<g id="edge8" class="edge">
<title>DirectivesModule&#45;&gt;AutofocusDirective </title>
<path fill="none" stroke="#000000" stroke-dasharray="5,2" d="M648.7166,-172C795.947,-172 1169.125,-172 1169.125,-172 1169.125,-172 1169.125,-205.7333 1169.125,-205.7333"/>
<polygon fill="#000000" stroke="#000000" points="1165.6251,-205.7333 1169.125,-215.7333 1172.6251,-205.7333 1165.6251,-205.7333"/>
</g>
<!-- Copy2ClipboardButtonDirective  -->
<g id="node10" class="node">
<title>Copy2ClipboardButtonDirective </title>
<polygon fill="#fb8072" stroke="#000000" points="1092.5302,-252 889.4698,-252 889.4698,-216 1092.5302,-216 1092.5302,-252"/>
<text text-anchor="middle" x="991" y="-229.8" font-family="Times,serif" font-size="14.00" fill="#000000">Copy2ClipboardButtonDirective </text>
</g>
<!-- DirectivesModule&#45;&gt;Copy2ClipboardButtonDirective  -->
<g id="edge9" class="edge">
<title>DirectivesModule&#45;&gt;Copy2ClipboardButtonDirective </title>
<path fill="none" stroke="#000000" stroke-dasharray="5,2" d="M648.9271,-177C752.0163,-177 954.245,-177 954.245,-177 954.245,-177 954.245,-205.9648 954.245,-205.9648"/>
<polygon fill="#000000" stroke="#000000" points="950.7451,-205.9648 954.245,-215.9648 957.7451,-205.9649 950.7451,-205.9648"/>
</g>
<!-- DimlessBinaryDirective  -->
<g id="node11" class="node">
<title>DimlessBinaryDirective </title>
<polygon fill="#fb8072" stroke="#000000" points="871.568,-252 716.432,-252 716.432,-216 871.568,-216 871.568,-252"/>
<text text-anchor="middle" x="794" y="-229.8" font-family="Times,serif" font-size="14.00" fill="#000000">DimlessBinaryDirective </text>
</g>
<!-- DirectivesModule&#45;&gt;DimlessBinaryDirective  -->
<g id="edge10" class="edge">
<title>DirectivesModule&#45;&gt;DimlessBinaryDirective </title>
<path fill="none" stroke="#000000" stroke-dasharray="5,2" d="M648.6572,-182C699.9009,-182 766.1554,-182 766.1554,-182 766.1554,-182 766.1554,-205.8129 766.1554,-205.8129"/>
<polygon fill="#000000" stroke="#000000" points="762.6555,-205.8129 766.1554,-215.8129 769.6555,-205.813 762.6555,-205.8129"/>
</g>
<!-- DimlessBinaryPerSecondDirective  -->
<g id="node12" class="node">
<title>DimlessBinaryPerSecondDirective </title>
<polygon fill="#fb8072" stroke="#000000" points="697.9374,-252 482.0626,-252 482.0626,-216 697.9374,-216 697.9374,-252"/>
<text text-anchor="middle" x="590" y="-229.8" font-family="Times,serif" font-size="14.00" fill="#000000">DimlessBinaryPerSecondDirective </text>
</g>
<!-- DirectivesModule&#45;&gt;DimlessBinaryPerSecondDirective  -->
<g id="edge11" class="edge">
<title>DirectivesModule&#45;&gt;DimlessBinaryPerSecondDirective </title>
<path fill="none" stroke="#000000" stroke-dasharray="5,2" d="M590,-187.1061C590,-187.1061 590,-205.991 590,-205.991"/>
<polygon fill="#000000" stroke="#000000" points="586.5001,-205.9909 590,-215.991 593.5001,-205.991 586.5001,-205.9909"/>
</g>
<!-- IopsDirective  -->
<g id="node13" class="node">
<title>IopsDirective </title>
<polygon fill="#fb8072" stroke="#000000" points="463.6885,-252 368.3115,-252 368.3115,-216 463.6885,-216 463.6885,-252"/>
<text text-anchor="middle" x="416" y="-229.8" font-family="Times,serif" font-size="14.00" fill="#000000">IopsDirective </text>
</g>
<!-- DirectivesModule&#45;&gt;IopsDirective  -->
<g id="edge12" class="edge">
<title>DirectivesModule&#45;&gt;IopsDirective </title>
<path fill="none" stroke="#000000" stroke-dasharray="5,2" d="M531.3676,-182C476.8137,-182 403.8853,-182 403.8853,-182 403.8853,-182 403.8853,-205.8129 403.8853,-205.8129"/>
<polygon fill="#000000" stroke="#000000" points="400.3854,-205.8129 403.8853,-215.8129 407.3854,-205.813 400.3854,-205.8129"/>
</g>
<!-- MillisecondsDirective  -->
<g id="node14" class="node">
<title>MillisecondsDirective </title>
<polygon fill="#fb8072" stroke="#000000" points="349.9082,-252 206.0918,-252 206.0918,-216 349.9082,-216 349.9082,-252"/>
<text text-anchor="middle" x="278" y="-229.8" font-family="Times,serif" font-size="14.00" fill="#000000">MillisecondsDirective </text>
</g>
<!-- DirectivesModule&#45;&gt;MillisecondsDirective  -->
<g id="edge13" class="edge">
<title>DirectivesModule&#45;&gt;MillisecondsDirective </title>
<path fill="none" stroke="#000000" stroke-dasharray="5,2" d="M531.0947,-177C436.3233,-177 260.5153,-177 260.5153,-177 260.5153,-177 260.5153,-205.9648 260.5153,-205.9648"/>
<polygon fill="#000000" stroke="#000000" points="257.0154,-205.9648 260.5153,-215.9648 264.0154,-205.9649 257.0154,-205.9648"/>
</g>
<!-- PasswordButtonDirective  -->
<g id="node15" class="node">
<title>PasswordButtonDirective </title>
<polygon fill="#fb8072" stroke="#000000" points="187.8546,-252 24.1454,-252 24.1454,-216 187.8546,-216 187.8546,-252"/>
<text text-anchor="middle" x="106" y="-229.8" font-family="Times,serif" font-size="14.00" fill="#000000">PasswordButtonDirective </text>
</g>
<!-- DirectivesModule&#45;&gt;PasswordButtonDirective  -->
<g id="edge14" class="edge">
<title>DirectivesModule&#45;&gt;PasswordButtonDirective </title>
<path fill="none" stroke="#000000" stroke-dasharray="5,2" d="M531.0166,-172C403.3614,-172 112.875,-172 112.875,-172 112.875,-172 112.875,-205.7333 112.875,-205.7333"/>
<polygon fill="#000000" stroke="#000000" points="109.3751,-205.7333 112.875,-215.7333 116.3751,-205.7333 109.3751,-205.7333"/>
</g>
</g>
</svg>
