<?xml version="1.0" encoding="UTF-8" standalone="no"?>
<!DOCTYPE svg PUBLIC "-//W3C//DTD SVG 1.1//EN"
 "http://www.w3.org/Graphics/SVG/1.1/DTD/svg11.dtd">
<!-- Generated by graphviz version 2.40.1 (20161225.0304)
 -->
<!-- Title: dependencies Pages: 1 -->
<svg width="861pt" height="443pt"
 viewBox="0.00 0.00 861.00 443.11" xmlns="http://www.w3.org/2000/svg" xmlns:xlink="http://www.w3.org/1999/xlink">
<g id="graph0" class="graph" transform="scale(1 1) rotate(0) translate(4 439.1076)">
<title>dependencies</title>
<polygon fill="#ffffff" stroke="transparent" points="-4,4 -4,-439.1076 857,-439.1076 857,4 -4,4"/>
<text text-anchor="start" x="405.5091" y="-42.4" font-family="sans-serif" font-weight="bold" font-size="14.00" fill="#000000">Legend</text>
<polygon fill="#ffffb3" stroke="transparent" points="192.5,-10 192.5,-30 212.5,-30 212.5,-10 192.5,-10"/>
<text text-anchor="start" x="216.129" y="-15.4" font-family="sans-serif" font-size="14.00" fill="#000000"> &#160;Declarations</text>
<polygon fill="#8dd3c7" stroke="transparent" points="305.5,-10 305.5,-30 325.5,-30 325.5,-10 305.5,-10"/>
<text text-anchor="start" x="329.2251" y="-15.4" font-family="sans-serif" font-size="14.00" fill="#000000"> &#160;Module</text>
<polygon fill="#80b1d3" stroke="transparent" points="391.5,-10 391.5,-30 411.5,-30 411.5,-10 391.5,-10"/>
<text text-anchor="start" x="415.2812" y="-15.4" font-family="sans-serif" font-size="14.00" fill="#000000"> &#160;Bootstrap</text>
<polygon fill="#fdb462" stroke="transparent" points="488.5,-10 488.5,-30 508.5,-30 508.5,-10 488.5,-10"/>
<text text-anchor="start" x="512.1732" y="-15.4" font-family="sans-serif" font-size="14.00" fill="#000000"> &#160;Providers</text>
<polygon fill="#fb8072" stroke="transparent" points="584.5,-10 584.5,-30 604.5,-30 604.5,-10 584.5,-10"/>
<text text-anchor="start" x="608.2258" y="-15.4" font-family="sans-serif" font-size="14.00" fill="#000000"> &#160;Exports</text>
<g id="clust1" class="cluster">
<title>cluster_AppModule</title>
<polygon fill="none" stroke="#000000" stroke-dasharray="1,5" points="8,-70 8,-427.1076 845,-427.1076 845,-70 8,-70"/>
</g>
<g id="clust2" class="cluster">
<title>cluster_AppModule_declarations</title>
<polygon fill="none" stroke="#000000" points="715,-237.1076 715,-289.1076 837,-289.1076 837,-237.1076 715,-237.1076"/>
</g>
<g id="clust3" class="cluster">
<title>cluster_AppModule_AppComponent_providers</title>
<polygon fill="none" stroke="#000000" points="21,-78 21,-224.1076 837,-224.1076 837,-78 21,-78"/>
</g>
<g id="clust4" class="cluster">
<title>cluster_AppModule_imports</title>
<polygon fill="none" stroke="#000000" points="234,-237.1076 234,-289.1076 707,-289.1076 707,-237.1076 234,-237.1076"/>
</g>
<g id="clust5" class="cluster">
<title>cluster_AppModule_exports</title>
<polygon fill="none" stroke="#000000" points="332,-367.1076 332,-419.1076 450,-419.1076 450,-367.1076 332,-367.1076"/>
</g>
<g id="clust6" class="cluster">
<title>cluster_AppModule_bootstrap</title>
<polygon fill="none" stroke="#000000" points="458,-367.1076 458,-419.1076 582,-419.1076 582,-367.1076 458,-367.1076"/>
</g>
<g id="clust7" class="cluster">
<title>cluster_AppModule_providers</title>
<polygon fill="none" stroke="#000000" points="16,-237.1076 16,-289.1076 226,-289.1076 226,-237.1076 16,-237.1076"/>
</g>
<!-- AppComponent -->
<g id="node1" class="node">
<title>AppComponent</title>
<polygon fill="#ffffb3" stroke="#000000" points="828.9399,-281.1076 723.0601,-281.1076 723.0601,-245.1076 828.9399,-245.1076 828.9399,-281.1076"/>
<text text-anchor="middle" x="776" y="-258.9076" font-family="Times,serif" font-size="14.00" fill="#000000">AppComponent</text>
</g>
<!-- AppModule -->
<g id="node2" class="node">
<title>AppModule</title>
<polygon fill="#8dd3c7" stroke="#000000" points="496.6571,-346.1076 493.6571,-350.1076 472.6571,-350.1076 469.6571,-346.1076 413.3429,-346.1076 413.3429,-310.1076 496.6571,-310.1076 496.6571,-346.1076"/>
<text text-anchor="middle" x="455" y="-323.9076" font-family="Times,serif" font-size="14.00" fill="#000000">AppModule</text>
</g>
<!-- AppComponent&#45;&gt;AppModule -->
<g id="edge1" class="edge">
<title>AppComponent&#45;&gt;AppModule</title>
<path fill="none" stroke="#000000" d="M776,-281.3919C776,-302.4287 776,-334.1076 776,-334.1076 776,-334.1076 506.9651,-334.1076 506.9651,-334.1076"/>
<polygon fill="#000000" stroke="#000000" points="506.9652,-330.6077 496.9651,-334.1076 506.9651,-337.6077 506.9652,-330.6077"/>
</g>
<!-- SharedModule  -->
<g id="node8" class="node">
<title>SharedModule </title>
<polygon fill="#fb8072" stroke="#000000" points="441.9222,-411.1076 340.0778,-411.1076 340.0778,-375.1076 441.9222,-375.1076 441.9222,-411.1076"/>
<text text-anchor="middle" x="391" y="-388.9076" font-family="Times,serif" font-size="14.00" fill="#000000">SharedModule </text>
</g>
<!-- AppModule&#45;&gt;SharedModule  -->
<g id="edge7" class="edge">
<title>AppModule&#45;&gt;SharedModule </title>
<path fill="none" stroke="#000000" stroke-dasharray="5,2" d="M427.5665,-346.2138C427.5665,-346.2138 427.5665,-365.0986 427.5665,-365.0986"/>
<polygon fill="#000000" stroke="#000000" points="424.0665,-365.0986 427.5665,-375.0986 431.0665,-365.0987 424.0665,-365.0986"/>
</g>
<!-- AppComponent  -->
<g id="node9" class="node">
<title>AppComponent </title>
<polygon fill="#80b1d3" stroke="#000000" points="574.439,-411.1076 465.561,-411.1076 465.561,-375.1076 574.439,-375.1076 574.439,-411.1076"/>
<text text-anchor="middle" x="520" y="-388.9076" font-family="Times,serif" font-size="14.00" fill="#000000">AppComponent </text>
</g>
<!-- AppModule&#45;&gt;AppComponent  -->
<g id="edge8" class="edge">
<title>AppModule&#45;&gt;AppComponent </title>
<path fill="none" stroke="#000000" stroke-dasharray="1,5" d="M481.1794,-346.2138C481.1794,-346.2138 481.1794,-365.0986 481.1794,-365.0986"/>
<polygon fill="#000000" stroke="#000000" points="477.6794,-365.0986 481.1794,-375.0986 484.6794,-365.0987 477.6794,-365.0986"/>
</g>
<!-- {
 &#160;&#160;&#160;provide: TooltipConfig, useFactory: (): TooltipConfig =&gt; Object.assign(new TooltipConfig(), {
 &#160;&#160;&#160;&#160;&#160;&#160;&#160;container: 
 &#160;&#160;&#160;})
} -->
<g id="node3" class="node">
<title>{
 &#160;&#160;&#160;provide: TooltipConfig, useFactory: (): TooltipConfig =&gt; Object.assign(new TooltipConfig(), {
 &#160;&#160;&#160;&#160;&#160;&#160;&#160;container: 
 &#160;&#160;&#160;})
}</title>
<ellipse fill="#fdb462" stroke="#000000" cx="429" cy="-151.0538" rx="400.1427" ry="65.1077"/>
<text text-anchor="middle" x="429" y="-180.4538" font-family="Times,serif" font-size="14.00" fill="#000000">{</text>
<text text-anchor="middle" x="429" y="-163.6538" font-family="Times,serif" font-size="14.00" fill="#000000"> &#160;&#160;&#160;provide: TooltipConfig, useFactory: (): TooltipConfig =&gt; Object.assign(new TooltipConfig(), {</text>
<text text-anchor="middle" x="429" y="-146.8538" font-family="Times,serif" font-size="14.00" fill="#000000"> &#160;&#160;&#160;&#160;&#160;&#160;&#160;container: </text>
<text text-anchor="middle" x="429" y="-130.0538" font-family="Times,serif" font-size="14.00" fill="#000000"> &#160;&#160;&#160;})</text>
<text text-anchor="middle" x="429" y="-113.2538" font-family="Times,serif" font-size="14.00" fill="#000000">}</text>
</g>
<!-- {
 &#160;&#160;&#160;provide: TooltipConfig, useFactory: (): TooltipConfig =&gt; Object.assign(new TooltipConfig(), {
 &#160;&#160;&#160;&#160;&#160;&#160;&#160;container: 
 &#160;&#160;&#160;})
}&#45;&gt;AppComponent -->
<g id="edge2" class="edge">
<title>{
 &#160;&#160;&#160;provide: TooltipConfig, useFactory: (): TooltipConfig =&gt; Object.assign(new TooltipConfig(), {
 &#160;&#160;&#160;&#160;&#160;&#160;&#160;container: 
 &#160;&#160;&#160;})
}&#45;&gt;AppComponent</title>
<path fill="none" stroke="#000000" d="M776,-183.7657C776,-183.7657 776,-234.8334 776,-234.8334"/>
<polygon fill="#000000" stroke="#000000" points="772.5001,-234.8334 776,-244.8334 779.5001,-234.8334 772.5001,-234.8334"/>
</g>
<!-- AppRoutingModule -->
<g id="node4" class="node">
<title>AppRoutingModule</title>
<polygon fill="#8dd3c7" stroke="#000000" points="699.2744,-281.1076 696.2744,-285.1076 675.2744,-285.1076 672.2744,-281.1076 570.7256,-281.1076 570.7256,-245.1076 699.2744,-245.1076 699.2744,-281.1076"/>
<text text-anchor="middle" x="635" y="-258.9076" font-family="Times,serif" font-size="14.00" fill="#000000">AppRoutingModule</text>
</g>
<!-- AppRoutingModule&#45;&gt;AppModule -->
<g id="edge3" class="edge">
<title>AppRoutingModule&#45;&gt;AppModule</title>
<path fill="none" stroke="#000000" d="M636.9283,-281.1302C636.9283,-298.481 636.9283,-322.1076 636.9283,-322.1076 636.9283,-322.1076 506.738,-322.1076 506.738,-322.1076"/>
<polygon fill="#000000" stroke="#000000" points="506.7381,-318.6077 496.738,-322.1076 506.738,-325.6077 506.7381,-318.6077"/>
</g>
<!-- CephModule -->
<g id="node5" class="node">
<title>CephModule</title>
<polygon fill="#8dd3c7" stroke="#000000" points="552.6011,-281.1076 549.6011,-285.1076 528.6011,-285.1076 525.6011,-281.1076 463.3989,-281.1076 463.3989,-245.1076 552.6011,-245.1076 552.6011,-281.1076"/>
<text text-anchor="middle" x="508" y="-258.9076" font-family="Times,serif" font-size="14.00" fill="#000000">CephModule</text>
</g>
<!-- CephModule&#45;&gt;AppModule -->
<g id="edge4" class="edge">
<title>CephModule&#45;&gt;AppModule</title>
<path fill="none" stroke="#000000" d="M480.1389,-281.2138C480.1389,-281.2138 480.1389,-300.0986 480.1389,-300.0986"/>
<polygon fill="#000000" stroke="#000000" points="476.6389,-300.0986 480.1389,-310.0986 483.6389,-300.0987 476.6389,-300.0986"/>
</g>
<!-- CoreModule -->
<g id="node6" class="node">
<title>CoreModule</title>
<polygon fill="#8dd3c7" stroke="#000000" points="445.2619,-281.1076 442.2619,-285.1076 421.2619,-285.1076 418.2619,-281.1076 358.7381,-281.1076 358.7381,-245.1076 445.2619,-245.1076 445.2619,-281.1076"/>
<text text-anchor="middle" x="402" y="-258.9076" font-family="Times,serif" font-size="14.00" fill="#000000">CoreModule</text>
</g>
<!-- CoreModule&#45;&gt;AppModule -->
<g id="edge5" class="edge">
<title>CoreModule&#45;&gt;AppModule</title>
<path fill="none" stroke="#000000" d="M429.2763,-281.2138C429.2763,-281.2138 429.2763,-300.0986 429.2763,-300.0986"/>
<polygon fill="#000000" stroke="#000000" points="425.7764,-300.0986 429.2763,-310.0986 432.7764,-300.0987 425.7764,-300.0986"/>
</g>
<!-- SharedModule -->
<g id="node7" class="node">
<title>SharedModule</title>
<polygon fill="#8dd3c7" stroke="#000000" points="340.4231,-281.1076 337.4231,-285.1076 316.4231,-285.1076 313.4231,-281.1076 241.5769,-281.1076 241.5769,-245.1076 340.4231,-245.1076 340.4231,-281.1076"/>
<text text-anchor="middle" x="291" y="-258.9076" font-family="Times,serif" font-size="14.00" fill="#000000">SharedModule</text>
</g>
<!-- SharedModule&#45;&gt;AppModule -->
<g id="edge6" class="edge">
<title>SharedModule&#45;&gt;AppModule</title>
<path fill="none" stroke="#000000" d="M290.9139,-281.1302C290.9139,-298.481 290.9139,-322.1076 290.9139,-322.1076 290.9139,-322.1076 403.1696,-322.1076 403.1696,-322.1076"/>
<polygon fill="#000000" stroke="#000000" points="403.1696,-325.6077 413.1696,-322.1076 403.1696,-318.6077 403.1696,-325.6077"/>
</g>
<!-- ApiInterceptorService -->
<g id="node10" class="node">
<title>ApiInterceptorService</title>
<ellipse fill="#fdb462" stroke="#000000" cx="121" cy="-263.1076" rx="96.6656" ry="18"/>
<text text-anchor="middle" x="121" y="-258.9076" font-family="Times,serif" font-size="14.00" fill="#000000">ApiInterceptorService</text>
</g>
<!-- ApiInterceptorService&#45;&gt;AppModule -->
<g id="edge9" class="edge">
<title>ApiInterceptorService&#45;&gt;AppModule</title>
<path fill="none" stroke="#000000" d="M121,-281.3919C121,-302.4287 121,-334.1076 121,-334.1076 121,-334.1076 403.0369,-334.1076 403.0369,-334.1076"/>
<polygon fill="#000000" stroke="#000000" points="403.0369,-337.6077 413.0369,-334.1076 403.0368,-330.6077 403.0369,-337.6077"/>
</g>
</g>
</svg>
