<?xml version="1.0" encoding="UTF-8" standalone="no"?>
<!DOCTYPE svg PUBLIC "-//W3C//DTD SVG 1.1//EN"
 "http://www.w3.org/Graphics/SVG/1.1/DTD/svg11.dtd">
<!-- Generated by graphviz version 2.40.1 (20161225.0304)
 -->
<!-- Title: dependencies Pages: 1 -->
<svg width="1744pt" height="284pt"
 viewBox="0.00 0.00 1744.00 284.00" xmlns="http://www.w3.org/2000/svg" xmlns:xlink="http://www.w3.org/1999/xlink">
<g id="graph0" class="graph" transform="scale(1 1) rotate(0) translate(4 280)">
<title>dependencies</title>
<polygon fill="#ffffff" stroke="transparent" points="-4,4 -4,-280 1740,-280 1740,4 -4,4"/>
<text text-anchor="start" x="847.0091" y="-42.4" font-family="sans-serif" font-weight="bold" font-size="14.00" fill="#000000">Legend</text>
<polygon fill="#ffffb3" stroke="transparent" points="634,-10 634,-30 654,-30 654,-10 634,-10"/>
<text text-anchor="start" x="657.629" y="-15.4" font-family="sans-serif" font-size="14.00" fill="#000000"> &#160;Declarations</text>
<polygon fill="#8dd3c7" stroke="transparent" points="747,-10 747,-30 767,-30 767,-10 747,-10"/>
<text text-anchor="start" x="770.7251" y="-15.4" font-family="sans-serif" font-size="14.00" fill="#000000"> &#160;Module</text>
<polygon fill="#80b1d3" stroke="transparent" points="833,-10 833,-30 853,-30 853,-10 833,-10"/>
<text text-anchor="start" x="856.7812" y="-15.4" font-family="sans-serif" font-size="14.00" fill="#000000"> &#160;Bootstrap</text>
<polygon fill="#fdb462" stroke="transparent" points="930,-10 930,-30 950,-30 950,-10 930,-10"/>
<text text-anchor="start" x="953.6732" y="-15.4" font-family="sans-serif" font-size="14.00" fill="#000000"> &#160;Providers</text>
<polygon fill="#fb8072" stroke="transparent" points="1026,-10 1026,-30 1046,-30 1046,-10 1026,-10"/>
<text text-anchor="start" x="1049.7258" y="-15.4" font-family="sans-serif" font-size="14.00" fill="#000000"> &#160;Exports</text>
<g id="clust1" class="cluster">
<title>cluster_NavigationModule</title>
<polygon fill="none" stroke="#000000" stroke-dasharray="1,5" points="8,-70 8,-268 1728,-268 1728,-70 8,-70"/>
</g>
<g id="clust2" class="cluster">
<title>cluster_NavigationModule_declarations</title>
<polygon fill="none" stroke="#000000" points="390,-78 390,-130 1720,-130 1720,-78 390,-78"/>
</g>
<g id="clust11" class="cluster">
<title>cluster_NavigationModule_imports</title>
<polygon fill="none" stroke="#000000" points="16,-78 16,-130 382,-130 382,-78 16,-78"/>
</g>
<g id="clust12" class="cluster">
<title>cluster_NavigationModule_exports</title>
<polygon fill="none" stroke="#000000" points="651,-208 651,-260 992,-260 992,-208 651,-208"/>
</g>
<!-- AboutComponent -->
<g id="node1" class="node">
<title>AboutComponent</title>
<polygon fill="#ffffb3" stroke="#000000" points="1712.3301,-122 1595.6699,-122 1595.6699,-86 1712.3301,-86 1712.3301,-122"/>
<text text-anchor="middle" x="1654" y="-99.8" font-family="Times,serif" font-size="14.00" fill="#000000">AboutComponent</text>
</g>
<!-- NavigationModule -->
<g id="node9" class="node">
<title>NavigationModule</title>
<polygon fill="#8dd3c7" stroke="#000000" points="878.7576,-187 875.7576,-191 854.7576,-191 851.7576,-187 757.2424,-187 757.2424,-151 878.7576,-151 878.7576,-187"/>
<text text-anchor="middle" x="818" y="-164.8" font-family="Times,serif" font-size="14.00" fill="#000000">NavigationModule</text>
</g>
<!-- AboutComponent&#45;&gt;NavigationModule -->
<g id="edge1" class="edge">
<title>AboutComponent&#45;&gt;NavigationModule</title>
<path fill="none" stroke="#000000" d="M1654,-122.2479C1654,-145.0179 1654,-181 1654,-181 1654,-181 888.7965,-181 888.7965,-181"/>
<polygon fill="#000000" stroke="#000000" points="888.7965,-177.5001 878.7965,-181 888.7964,-184.5001 888.7965,-177.5001"/>
</g>
<!-- AdministrationComponent -->
<g id="node2" class="node">
<title>AdministrationComponent</title>
<polygon fill="#ffffb3" stroke="#000000" points="1578.1024,-122 1411.8976,-122 1411.8976,-86 1578.1024,-86 1578.1024,-122"/>
<text text-anchor="middle" x="1495" y="-99.8" font-family="Times,serif" font-size="14.00" fill="#000000">AdministrationComponent</text>
</g>
<!-- AdministrationComponent&#45;&gt;NavigationModule -->
<g id="edge2" class="edge">
<title>AdministrationComponent&#45;&gt;NavigationModule</title>
<path fill="none" stroke="#000000" d="M1495,-122.2843C1495,-143.3211 1495,-175 1495,-175 1495,-175 888.9738,-175 888.9738,-175"/>
<polygon fill="#000000" stroke="#000000" points="888.9739,-171.5001 878.9738,-175 888.9738,-178.5001 888.9739,-171.5001"/>
</g>
<!-- BreadcrumbsComponent -->
<g id="node3" class="node">
<title>BreadcrumbsComponent</title>
<polygon fill="#ffffb3" stroke="#000000" points="1393.9692,-122 1238.0308,-122 1238.0308,-86 1393.9692,-86 1393.9692,-122"/>
<text text-anchor="middle" x="1316" y="-99.8" font-family="Times,serif" font-size="14.00" fill="#000000">BreadcrumbsComponent</text>
</g>
<!-- BreadcrumbsComponent&#45;&gt;NavigationModule -->
<g id="edge3" class="edge">
<title>BreadcrumbsComponent&#45;&gt;NavigationModule</title>
<path fill="none" stroke="#000000" d="M1316,-122.1061C1316,-141.3391 1316,-169 1316,-169 1316,-169 889.0646,-169 889.0646,-169"/>
<polygon fill="#000000" stroke="#000000" points="889.0646,-165.5001 879.0646,-169 889.0645,-172.5001 889.0646,-165.5001"/>
</g>
<!-- DashboardHelpComponent -->
<g id="node4" class="node">
<title>DashboardHelpComponent</title>
<polygon fill="#ffffb3" stroke="#000000" points="1219.6853,-122 1050.3147,-122 1050.3147,-86 1219.6853,-86 1219.6853,-122"/>
<text text-anchor="middle" x="1135" y="-99.8" font-family="Times,serif" font-size="14.00" fill="#000000">DashboardHelpComponent</text>
</g>
<!-- DashboardHelpComponent&#45;&gt;NavigationModule -->
<g id="edge4" class="edge">
<title>DashboardHelpComponent&#45;&gt;NavigationModule</title>
<path fill="none" stroke="#000000" d="M1135,-122.0225C1135,-139.3734 1135,-163 1135,-163 1135,-163 889.1208,-163 889.1208,-163"/>
<polygon fill="#000000" stroke="#000000" points="889.1208,-159.5001 879.1208,-163 889.1208,-166.5001 889.1208,-159.5001"/>
</g>
<!-- IdentityComponent -->
<g id="node5" class="node">
<title>IdentityComponent</title>
<polygon fill="#ffffb3" stroke="#000000" points="1032.3795,-122 907.6205,-122 907.6205,-86 1032.3795,-86 1032.3795,-122"/>
<text text-anchor="middle" x="970" y="-99.8" font-family="Times,serif" font-size="14.00" fill="#000000">IdentityComponent</text>
</g>
<!-- IdentityComponent&#45;&gt;NavigationModule -->
<g id="edge5" class="edge">
<title>IdentityComponent&#45;&gt;NavigationModule</title>
<path fill="none" stroke="#000000" d="M945.6475,-122.2396C945.6475,-137.5706 945.6475,-157 945.6475,-157 945.6475,-157 888.833,-157 888.833,-157"/>
<polygon fill="#000000" stroke="#000000" points="888.833,-153.5001 878.833,-157 888.8329,-160.5001 888.833,-153.5001"/>
</g>
<!-- NavigationComponent -->
<g id="node6" class="node">
<title>NavigationComponent</title>
<polygon fill="#ffffb3" stroke="#000000" points="889.5407,-122 746.4593,-122 746.4593,-86 889.5407,-86 889.5407,-122"/>
<text text-anchor="middle" x="818" y="-99.8" font-family="Times,serif" font-size="14.00" fill="#000000">NavigationComponent</text>
</g>
<!-- NavigationComponent&#45;&gt;NavigationModule -->
<g id="edge6" class="edge">
<title>NavigationComponent&#45;&gt;NavigationModule</title>
<path fill="none" stroke="#000000" d="M818,-122.1061C818,-122.1061 818,-140.991 818,-140.991"/>
<polygon fill="#000000" stroke="#000000" points="814.5001,-140.9909 818,-150.991 821.5001,-140.991 814.5001,-140.9909"/>
</g>
<!-- NotificationsComponent -->
<g id="node7" class="node">
<title>NotificationsComponent</title>
<polygon fill="#ffffb3" stroke="#000000" points="728.427,-122 573.573,-122 573.573,-86 728.427,-86 728.427,-122"/>
<text text-anchor="middle" x="651" y="-99.8" font-family="Times,serif" font-size="14.00" fill="#000000">NotificationsComponent</text>
</g>
<!-- NotificationsComponent&#45;&gt;NavigationModule -->
<g id="edge7" class="edge">
<title>NotificationsComponent&#45;&gt;NavigationModule</title>
<path fill="none" stroke="#000000" d="M693.8466,-122.2396C693.8466,-137.5706 693.8466,-157 693.8466,-157 693.8466,-157 747.0144,-157 747.0144,-157"/>
<polygon fill="#000000" stroke="#000000" points="747.0145,-160.5001 757.0144,-157 747.0144,-153.5001 747.0145,-160.5001"/>
</g>
<!-- TaskManagerComponent -->
<g id="node8" class="node">
<title>TaskManagerComponent</title>
<polygon fill="#ffffb3" stroke="#000000" points="556.2935,-122 397.7065,-122 397.7065,-86 556.2935,-86 556.2935,-122"/>
<text text-anchor="middle" x="477" y="-99.8" font-family="Times,serif" font-size="14.00" fill="#000000">TaskManagerComponent</text>
</g>
<!-- TaskManagerComponent&#45;&gt;NavigationModule -->
<g id="edge8" class="edge">
<title>TaskManagerComponent&#45;&gt;NavigationModule</title>
<path fill="none" stroke="#000000" d="M477,-122.0225C477,-139.3734 477,-163 477,-163 477,-163 747.036,-163 747.036,-163"/>
<polygon fill="#000000" stroke="#000000" points="747.0361,-166.5001 757.036,-163 747.036,-159.5001 747.0361,-166.5001"/>
</g>
<!-- BreadcrumbsComponent  -->
<g id="node13" class="node">
<title>BreadcrumbsComponent </title>
<polygon fill="#fb8072" stroke="#000000" points="983.9699,-252 824.0301,-252 824.0301,-216 983.9699,-216 983.9699,-252"/>
<text text-anchor="middle" x="904" y="-229.8" font-family="Times,serif" font-size="14.00" fill="#000000">BreadcrumbsComponent </text>
</g>
<!-- NavigationModule&#45;&gt;BreadcrumbsComponent  -->
<g id="edge12" class="edge">
<title>NavigationModule&#45;&gt;BreadcrumbsComponent </title>
<path fill="none" stroke="#000000" stroke-dasharray="5,2" d="M851.5721,-187.1061C851.5721,-187.1061 851.5721,-205.991 851.5721,-205.991"/>
<polygon fill="#000000" stroke="#000000" points="848.0721,-205.9909 851.5721,-215.991 855.0721,-205.991 848.0721,-205.9909"/>
</g>
<!-- NavigationComponent  -->
<g id="node14" class="node">
<title>NavigationComponent </title>
<polygon fill="#fb8072" stroke="#000000" points="806.54,-252 659.46,-252 659.46,-216 806.54,-216 806.54,-252"/>
<text text-anchor="middle" x="733" y="-229.8" font-family="Times,serif" font-size="14.00" fill="#000000">NavigationComponent </text>
</g>
<!-- NavigationModule&#45;&gt;NavigationComponent  -->
<g id="edge13" class="edge">
<title>NavigationModule&#45;&gt;NavigationComponent </title>
<path fill="none" stroke="#000000" stroke-dasharray="5,2" d="M781.8207,-187.1061C781.8207,-187.1061 781.8207,-205.991 781.8207,-205.991"/>
<polygon fill="#000000" stroke="#000000" points="778.3207,-205.9909 781.8207,-215.991 785.3207,-205.991 778.3207,-205.9909"/>
</g>
<!-- AppRoutingModule -->
<g id="node10" class="node">
<title>AppRoutingModule</title>
<polygon fill="#8dd3c7" stroke="#000000" points="374.2744,-122 371.2744,-126 350.2744,-126 347.2744,-122 245.7256,-122 245.7256,-86 374.2744,-86 374.2744,-122"/>
<text text-anchor="middle" x="310" y="-99.8" font-family="Times,serif" font-size="14.00" fill="#000000">AppRoutingModule</text>
</g>
<!-- AppRoutingModule&#45;&gt;NavigationModule -->
<g id="edge9" class="edge">
<title>AppRoutingModule&#45;&gt;NavigationModule</title>
<path fill="none" stroke="#000000" d="M310,-122.1061C310,-141.3391 310,-169 310,-169 310,-169 747.2279,-169 747.2279,-169"/>
<polygon fill="#000000" stroke="#000000" points="747.2279,-172.5001 757.2279,-169 747.2279,-165.5001 747.2279,-172.5001"/>
</g>
<!-- AuthModule -->
<g id="node11" class="node">
<title>AuthModule</title>
<polygon fill="#8dd3c7" stroke="#000000" points="227.5482,-122 224.5482,-126 203.5482,-126 200.5482,-122 140.4518,-122 140.4518,-86 227.5482,-86 227.5482,-122"/>
<text text-anchor="middle" x="184" y="-99.8" font-family="Times,serif" font-size="14.00" fill="#000000">AuthModule</text>
</g>
<!-- AuthModule&#45;&gt;NavigationModule -->
<g id="edge10" class="edge">
<title>AuthModule&#45;&gt;NavigationModule</title>
<path fill="none" stroke="#000000" d="M184,-122.2843C184,-143.3211 184,-175 184,-175 184,-175 747.2094,-175 747.2094,-175"/>
<polygon fill="#000000" stroke="#000000" points="747.2094,-178.5001 757.2094,-175 747.2094,-171.5001 747.2094,-178.5001"/>
</g>
<!-- SharedModule -->
<g id="node12" class="node">
<title>SharedModule</title>
<polygon fill="#8dd3c7" stroke="#000000" points="122.4231,-122 119.4231,-126 98.4231,-126 95.4231,-122 23.5769,-122 23.5769,-86 122.4231,-86 122.4231,-122"/>
<text text-anchor="middle" x="73" y="-99.8" font-family="Times,serif" font-size="14.00" fill="#000000">SharedModule</text>
</g>
<!-- SharedModule&#45;&gt;NavigationModule -->
<g id="edge11" class="edge">
<title>SharedModule&#45;&gt;NavigationModule</title>
<path fill="none" stroke="#000000" d="M73,-122.2479C73,-145.0179 73,-181 73,-181 73,-181 747.0335,-181 747.0335,-181"/>
<polygon fill="#000000" stroke="#000000" points="747.0336,-184.5001 757.0335,-181 747.0335,-177.5001 747.0336,-184.5001"/>
</g>
</g>
</svg>
