<?xml version="1.0" encoding="UTF-8" standalone="no"?>
<!DOCTYPE svg PUBLIC "-//W3C//DTD SVG 1.1//EN"
 "http://www.w3.org/Graphics/SVG/1.1/DTD/svg11.dtd">
<!-- Generated by graphviz version 2.40.1 (20161225.0304)
 -->
<!-- Title: dependencies Pages: 1 -->
<svg width="2619pt" height="284pt"
 viewBox="0.00 0.00 2619.00 284.00" xmlns="http://www.w3.org/2000/svg" xmlns:xlink="http://www.w3.org/1999/xlink">
<g id="graph0" class="graph" transform="scale(1 1) rotate(0) translate(4 280)">
<title>dependencies</title>
<polygon fill="#ffffff" stroke="transparent" points="-4,4 -4,-280 2615,-280 2615,4 -4,4"/>
<text text-anchor="start" x="1284.5091" y="-42.4" font-family="sans-serif" font-weight="bold" font-size="14.00" fill="#000000">Legend</text>
<polygon fill="#ffffb3" stroke="transparent" points="1071.5,-10 1071.5,-30 1091.5,-30 1091.5,-10 1071.5,-10"/>
<text text-anchor="start" x="1095.129" y="-15.4" font-family="sans-serif" font-size="14.00" fill="#000000"> &#160;Declarations</text>
<polygon fill="#8dd3c7" stroke="transparent" points="1184.5,-10 1184.5,-30 1204.5,-30 1204.5,-10 1184.5,-10"/>
<text text-anchor="start" x="1208.2251" y="-15.4" font-family="sans-serif" font-size="14.00" fill="#000000"> &#160;Module</text>
<polygon fill="#80b1d3" stroke="transparent" points="1270.5,-10 1270.5,-30 1290.5,-30 1290.5,-10 1270.5,-10"/>
<text text-anchor="start" x="1294.2812" y="-15.4" font-family="sans-serif" font-size="14.00" fill="#000000"> &#160;Bootstrap</text>
<polygon fill="#fdb462" stroke="transparent" points="1367.5,-10 1367.5,-30 1387.5,-30 1387.5,-10 1367.5,-10"/>
<text text-anchor="start" x="1391.1732" y="-15.4" font-family="sans-serif" font-size="14.00" fill="#000000"> &#160;Providers</text>
<polygon fill="#fb8072" stroke="transparent" points="1463.5,-10 1463.5,-30 1483.5,-30 1483.5,-10 1463.5,-10"/>
<text text-anchor="start" x="1487.2258" y="-15.4" font-family="sans-serif" font-size="14.00" fill="#000000"> &#160;Exports</text>
<g id="clust1" class="cluster">
<title>cluster_PipesModule</title>
<polygon fill="none" stroke="#000000" stroke-dasharray="1,5" points="8,-70 8,-268 2603,-268 2603,-70 8,-70"/>
</g>
<g id="clust2" class="cluster">
<title>cluster_PipesModule_declarations</title>
<polygon fill="none" stroke="#000000" points="57,-78 57,-130 2569,-130 2569,-78 57,-78"/>
</g>
<g id="clust24" class="cluster">
<title>cluster_PipesModule_exports</title>
<polygon fill="none" stroke="#000000" points="16,-208 16,-260 2595,-260 2595,-208 16,-208"/>
</g>
<!-- BooleanTextPipe -->
<g id="node1" class="node">
<title>BooleanTextPipe</title>
<polygon fill="#ffffb3" stroke="#000000" points="2560.7022,-122 2447.2978,-122 2447.2978,-86 2560.7022,-86 2560.7022,-122"/>
<text text-anchor="middle" x="2504" y="-99.8" font-family="Times,serif" font-size="14.00" fill="#000000">BooleanTextPipe</text>
</g>
<!-- PipesModule -->
<g id="node21" class="node">
<title>PipesModule</title>
<polygon fill="#8dd3c7" stroke="#000000" points="1249.8823,-187 1246.8823,-191 1225.8823,-191 1222.8823,-187 1160.1177,-187 1160.1177,-151 1249.8823,-151 1249.8823,-187"/>
<text text-anchor="middle" x="1205" y="-164.8" font-family="Times,serif" font-size="14.00" fill="#000000">PipesModule</text>
</g>
<!-- BooleanTextPipe&#45;&gt;PipesModule -->
<g id="edge1" class="edge">
<title>BooleanTextPipe&#45;&gt;PipesModule</title>
<path fill="none" stroke="#000000" d="M2461.6122,-122.1061C2461.6122,-141.3391 2461.6122,-169 2461.6122,-169 2461.6122,-169 1260.094,-169 1260.094,-169"/>
<polygon fill="#000000" stroke="#000000" points="1260.094,-165.5001 1250.094,-169 1260.094,-172.5001 1260.094,-165.5001"/>
</g>
<!-- CdDatePipe -->
<g id="node2" class="node">
<title>CdDatePipe</title>
<polygon fill="#ffffb3" stroke="#000000" points="2429.6515,-122 2346.3485,-122 2346.3485,-86 2429.6515,-86 2429.6515,-122"/>
<text text-anchor="middle" x="2388" y="-99.8" font-family="Times,serif" font-size="14.00" fill="#000000">CdDatePipe</text>
</g>
<!-- CdDatePipe&#45;&gt;PipesModule -->
<g id="edge2" class="edge">
<title>CdDatePipe&#45;&gt;PipesModule</title>
<path fill="none" stroke="#000000" d="M2356.4362,-122.2222C2356.4362,-140.8285 2356.4362,-167 2356.4362,-167 2356.4362,-167 1260.1377,-167 1260.1377,-167"/>
<polygon fill="#000000" stroke="#000000" points="1260.1377,-163.5001 1250.1377,-167 1260.1376,-170.5001 1260.1377,-163.5001"/>
</g>
<!-- CephReleaseNamePipe -->
<g id="node3" class="node">
<title>CephReleaseNamePipe</title>
<polygon fill="#ffffb3" stroke="#000000" points="2327.8961,-122 2180.1039,-122 2180.1039,-86 2327.8961,-86 2327.8961,-122"/>
<text text-anchor="middle" x="2254" y="-99.8" font-family="Times,serif" font-size="14.00" fill="#000000">CephReleaseNamePipe</text>
</g>
<!-- CephReleaseNamePipe&#45;&gt;PipesModule -->
<g id="edge3" class="edge">
<title>CephReleaseNamePipe&#45;&gt;PipesModule</title>
<path fill="none" stroke="#000000" d="M2188.4272,-122.302C2188.4272,-140.2699 2188.4272,-165 2188.4272,-165 2188.4272,-165 1260.1353,-165 1260.1353,-165"/>
<polygon fill="#000000" stroke="#000000" points="1260.1354,-161.5001 1250.1353,-165 1260.1353,-168.5001 1260.1354,-161.5001"/>
</g>
<!-- CephShortVersionPipe -->
<g id="node4" class="node">
<title>CephShortVersionPipe</title>
<polygon fill="#ffffb3" stroke="#000000" points="2162.5898,-122 2017.4102,-122 2017.4102,-86 2162.5898,-86 2162.5898,-122"/>
<text text-anchor="middle" x="2090" y="-99.8" font-family="Times,serif" font-size="14.00" fill="#000000">CephShortVersionPipe</text>
</g>
<!-- CephShortVersionPipe&#45;&gt;PipesModule -->
<g id="edge4" class="edge">
<title>CephShortVersionPipe&#45;&gt;PipesModule</title>
<path fill="none" stroke="#000000" d="M2023.5801,-122.0225C2023.5801,-139.3734 2023.5801,-163 2023.5801,-163 2023.5801,-163 1259.8837,-163 1259.8837,-163"/>
<polygon fill="#000000" stroke="#000000" points="1259.8837,-159.5001 1249.8837,-163 1259.8836,-166.5001 1259.8837,-159.5001"/>
</g>
<!-- DimlessBinaryPerSecondPipe -->
<g id="node5" class="node">
<title>DimlessBinaryPerSecondPipe</title>
<polygon fill="#ffffb3" stroke="#000000" points="1999.2422,-122 1814.7578,-122 1814.7578,-86 1999.2422,-86 1999.2422,-122"/>
<text text-anchor="middle" x="1907" y="-99.8" font-family="Times,serif" font-size="14.00" fill="#000000">DimlessBinaryPerSecondPipe</text>
</g>
<!-- DimlessBinaryPerSecondPipe&#45;&gt;PipesModule -->
<g id="edge5" class="edge">
<title>DimlessBinaryPerSecondPipe&#45;&gt;PipesModule</title>
<path fill="none" stroke="#000000" d="M1819.254,-122.0336C1819.254,-139.0597 1819.254,-162 1819.254,-162 1819.254,-162 1260.1676,-162 1260.1676,-162"/>
<polygon fill="#000000" stroke="#000000" points="1260.1676,-158.5001 1250.1676,-162 1260.1675,-165.5001 1260.1676,-158.5001"/>
</g>
<!-- DimlessBinaryPipe -->
<g id="node6" class="node">
<title>DimlessBinaryPipe</title>
<polygon fill="#ffffb3" stroke="#000000" points="1796.3725,-122 1671.6275,-122 1671.6275,-86 1796.3725,-86 1796.3725,-122"/>
<text text-anchor="middle" x="1734" y="-99.8" font-family="Times,serif" font-size="14.00" fill="#000000">DimlessBinaryPipe</text>
</g>
<!-- DimlessBinaryPipe&#45;&gt;PipesModule -->
<g id="edge6" class="edge">
<title>DimlessBinaryPipe&#45;&gt;PipesModule</title>
<path fill="none" stroke="#000000" d="M1756.8954,-122.027C1756.8954,-138.3976 1756.8954,-160 1756.8954,-160 1756.8954,-160 1260.1639,-160 1260.1639,-160"/>
<polygon fill="#000000" stroke="#000000" points="1260.164,-156.5001 1250.1639,-160 1260.1639,-163.5001 1260.164,-156.5001"/>
</g>
<!-- DimlessPipe -->
<g id="node7" class="node">
<title>DimlessPipe</title>
<polygon fill="#ffffb3" stroke="#000000" points="1653.2703,-122 1566.7297,-122 1566.7297,-86 1653.2703,-86 1653.2703,-122"/>
<text text-anchor="middle" x="1610" y="-99.8" font-family="Times,serif" font-size="14.00" fill="#000000">DimlessPipe</text>
</g>
<!-- DimlessPipe&#45;&gt;PipesModule -->
<g id="edge7" class="edge">
<title>DimlessPipe&#45;&gt;PipesModule</title>
<path fill="none" stroke="#000000" d="M1625.545,-122.2819C1625.545,-137.9478 1625.545,-158 1625.545,-158 1625.545,-158 1260.0057,-158 1260.0057,-158"/>
<polygon fill="#000000" stroke="#000000" points="1260.0057,-154.5001 1250.0057,-158 1260.0056,-161.5001 1260.0057,-154.5001"/>
</g>
<!-- EmptyPipe -->
<g id="node8" class="node">
<title>EmptyPipe</title>
<polygon fill="#ffffb3" stroke="#000000" points="1549.2219,-122 1470.7781,-122 1470.7781,-86 1549.2219,-86 1549.2219,-122"/>
<text text-anchor="middle" x="1510" y="-99.8" font-family="Times,serif" font-size="14.00" fill="#000000">EmptyPipe</text>
</g>
<!-- EmptyPipe&#45;&gt;PipesModule -->
<g id="edge8" class="edge">
<title>EmptyPipe&#45;&gt;PipesModule</title>
<path fill="none" stroke="#000000" d="M1523.0369,-122.2396C1523.0369,-137.5706 1523.0369,-157 1523.0369,-157 1523.0369,-157 1259.8924,-157 1259.8924,-157"/>
<polygon fill="#000000" stroke="#000000" points="1259.8924,-153.5001 1249.8924,-157 1259.8924,-160.5001 1259.8924,-153.5001"/>
</g>
<!-- EncodeUriPipe -->
<g id="node9" class="node">
<title>EncodeUriPipe</title>
<polygon fill="#ffffb3" stroke="#000000" points="1452.5285,-122 1351.4715,-122 1351.4715,-86 1452.5285,-86 1452.5285,-122"/>
<text text-anchor="middle" x="1402" y="-99.8" font-family="Times,serif" font-size="14.00" fill="#000000">EncodeUriPipe</text>
</g>
<!-- EncodeUriPipe&#45;&gt;PipesModule -->
<g id="edge9" class="edge">
<title>EncodeUriPipe&#45;&gt;PipesModule</title>
<path fill="none" stroke="#000000" d="M1384.9954,-122.1243C1384.9954,-136.7832 1384.9954,-155 1384.9954,-155 1384.9954,-155 1259.9561,-155 1259.9561,-155"/>
<polygon fill="#000000" stroke="#000000" points="1259.9562,-151.5001 1249.9561,-155 1259.9561,-158.5001 1259.9562,-151.5001"/>
</g>
<!-- FilterPipe -->
<g id="node10" class="node">
<title>FilterPipe</title>
<polygon fill="#ffffb3" stroke="#000000" points="1333.7177,-122 1262.2823,-122 1262.2823,-86 1333.7177,-86 1333.7177,-122"/>
<text text-anchor="middle" x="1298" y="-99.8" font-family="Times,serif" font-size="14.00" fill="#000000">FilterPipe</text>
</g>
<!-- FilterPipe&#45;&gt;PipesModule -->
<g id="edge10" class="edge">
<title>FilterPipe&#45;&gt;PipesModule</title>
<path fill="none" stroke="#000000" d="M1295.875,-122.2458C1295.875,-136.1772 1295.875,-153 1295.875,-153 1295.875,-153 1259.905,-153 1259.905,-153"/>
<polygon fill="#000000" stroke="#000000" points="1259.9051,-149.5001 1249.905,-153 1259.905,-156.5001 1259.9051,-149.5001"/>
</g>
<!-- HealthColorPipe -->
<g id="node11" class="node">
<title>HealthColorPipe</title>
<polygon fill="#ffffb3" stroke="#000000" points="1244.0926,-122 1133.9074,-122 1133.9074,-86 1244.0926,-86 1244.0926,-122"/>
<text text-anchor="middle" x="1189" y="-99.8" font-family="Times,serif" font-size="14.00" fill="#000000">HealthColorPipe</text>
</g>
<!-- HealthColorPipe&#45;&gt;PipesModule -->
<g id="edge11" class="edge">
<title>HealthColorPipe&#45;&gt;PipesModule</title>
<path fill="none" stroke="#000000" d="M1202.0526,-122.1061C1202.0526,-122.1061 1202.0526,-140.991 1202.0526,-140.991"/>
<polygon fill="#000000" stroke="#000000" points="1198.5527,-140.9909 1202.0526,-150.991 1205.5527,-140.991 1198.5527,-140.9909"/>
</g>
<!-- IopsPipe -->
<g id="node12" class="node">
<title>IopsPipe</title>
<polygon fill="#ffffb3" stroke="#000000" points="1115.493,-122 1050.507,-122 1050.507,-86 1115.493,-86 1115.493,-122"/>
<text text-anchor="middle" x="1083" y="-99.8" font-family="Times,serif" font-size="14.00" fill="#000000">IopsPipe</text>
</g>
<!-- IopsPipe&#45;&gt;PipesModule -->
<g id="edge12" class="edge">
<title>IopsPipe&#45;&gt;PipesModule</title>
<path fill="none" stroke="#000000" d="M1110.3715,-122.2458C1110.3715,-136.1772 1110.3715,-153 1110.3715,-153 1110.3715,-153 1149.9029,-153 1149.9029,-153"/>
<polygon fill="#000000" stroke="#000000" points="1149.9029,-156.5001 1159.9029,-153 1149.9028,-149.5001 1149.9029,-156.5001"/>
</g>
<!-- ListPipe -->
<g id="node13" class="node">
<title>ListPipe</title>
<polygon fill="#ffffb3" stroke="#000000" points="1032.1671,-122 969.8329,-122 969.8329,-86 1032.1671,-86 1032.1671,-122"/>
<text text-anchor="middle" x="1001" y="-99.8" font-family="Times,serif" font-size="14.00" fill="#000000">ListPipe</text>
</g>
<!-- ListPipe&#45;&gt;PipesModule -->
<g id="edge13" class="edge">
<title>ListPipe&#45;&gt;PipesModule</title>
<path fill="none" stroke="#000000" d="M1025.7081,-122.1243C1025.7081,-136.7832 1025.7081,-155 1025.7081,-155 1025.7081,-155 1149.7571,-155 1149.7571,-155"/>
<polygon fill="#000000" stroke="#000000" points="1149.7571,-158.5001 1159.7571,-155 1149.757,-151.5001 1149.7571,-158.5001"/>
</g>
<!-- LogPriorityPipe -->
<g id="node14" class="node">
<title>LogPriorityPipe</title>
<polygon fill="#ffffb3" stroke="#000000" points="952.2162,-122 845.7838,-122 845.7838,-86 952.2162,-86 952.2162,-122"/>
<text text-anchor="middle" x="899" y="-99.8" font-family="Times,serif" font-size="14.00" fill="#000000">LogPriorityPipe</text>
</g>
<!-- LogPriorityPipe&#45;&gt;PipesModule -->
<g id="edge14" class="edge">
<title>LogPriorityPipe&#45;&gt;PipesModule</title>
<path fill="none" stroke="#000000" d="M943.483,-122.2396C943.483,-137.5706 943.483,-157 943.483,-157 943.483,-157 1150.0436,-157 1150.0436,-157"/>
<polygon fill="#000000" stroke="#000000" points="1150.0437,-160.5001 1160.0436,-157 1150.0436,-153.5001 1150.0437,-160.5001"/>
</g>
<!-- MillisecondsPipe -->
<g id="node15" class="node">
<title>MillisecondsPipe</title>
<polygon fill="#ffffb3" stroke="#000000" points="827.7134,-122 714.2866,-122 714.2866,-86 827.7134,-86 827.7134,-122"/>
<text text-anchor="middle" x="771" y="-99.8" font-family="Times,serif" font-size="14.00" fill="#000000">MillisecondsPipe</text>
</g>
<!-- MillisecondsPipe&#45;&gt;PipesModule -->
<g id="edge15" class="edge">
<title>MillisecondsPipe&#45;&gt;PipesModule</title>
<path fill="none" stroke="#000000" d="M816.2493,-122.0091C816.2493,-138.0494 816.2493,-159 816.2493,-159 816.2493,-159 1150.0256,-159 1150.0256,-159"/>
<polygon fill="#000000" stroke="#000000" points="1150.0256,-162.5001 1160.0256,-159 1150.0255,-155.5001 1150.0256,-162.5001"/>
</g>
<!-- OrdinalPipe -->
<g id="node16" class="node">
<title>OrdinalPipe</title>
<polygon fill="#ffffb3" stroke="#000000" points="696.6515,-122 613.3485,-122 613.3485,-86 696.6515,-86 696.6515,-122"/>
<text text-anchor="middle" x="655" y="-99.8" font-family="Times,serif" font-size="14.00" fill="#000000">OrdinalPipe</text>
</g>
<!-- OrdinalPipe&#45;&gt;PipesModule -->
<g id="edge16" class="edge">
<title>OrdinalPipe&#45;&gt;PipesModule</title>
<path fill="none" stroke="#000000" d="M681.6094,-122.0352C681.6094,-138.7344 681.6094,-161 681.6094,-161 681.6094,-161 1149.923,-161 1149.923,-161"/>
<polygon fill="#000000" stroke="#000000" points="1149.9231,-164.5001 1159.923,-161 1149.923,-157.5001 1149.9231,-164.5001"/>
</g>
<!-- RbdConfigurationSourcePipe -->
<g id="node17" class="node">
<title>RbdConfigurationSourcePipe</title>
<polygon fill="#ffffb3" stroke="#000000" points="594.6414,-122 413.3586,-122 413.3586,-86 594.6414,-86 594.6414,-122"/>
<text text-anchor="middle" x="504" y="-99.8" font-family="Times,serif" font-size="14.00" fill="#000000">RbdConfigurationSourcePipe</text>
</g>
<!-- RbdConfigurationSourcePipe&#45;&gt;PipesModule -->
<g id="edge17" class="edge">
<title>RbdConfigurationSourcePipe&#45;&gt;PipesModule</title>
<path fill="none" stroke="#000000" d="M590.1226,-122.0225C590.1226,-139.3734 590.1226,-163 590.1226,-163 590.1226,-163 1149.7866,-163 1149.7866,-163"/>
<polygon fill="#000000" stroke="#000000" points="1149.7866,-166.5001 1159.7866,-163 1149.7866,-159.5001 1149.7866,-166.5001"/>
</g>
<!-- RelativeDatePipe -->
<g id="node18" class="node">
<title>RelativeDatePipe</title>
<polygon fill="#ffffb3" stroke="#000000" points="394.9664,-122 281.0336,-122 281.0336,-86 394.9664,-86 394.9664,-122"/>
<text text-anchor="middle" x="338" y="-99.8" font-family="Times,serif" font-size="14.00" fill="#000000">RelativeDatePipe</text>
</g>
<!-- RelativeDatePipe&#45;&gt;PipesModule -->
<g id="edge18" class="edge">
<title>RelativeDatePipe&#45;&gt;PipesModule</title>
<path fill="none" stroke="#000000" d="M388.7064,-122.302C388.7064,-140.2699 388.7064,-165 388.7064,-165 388.7064,-165 1149.9498,-165 1149.9498,-165"/>
<polygon fill="#000000" stroke="#000000" points="1149.9498,-168.5001 1159.9498,-165 1149.9497,-161.5001 1149.9498,-168.5001"/>
</g>
<!-- RoundPipe -->
<g id="node19" class="node">
<title>RoundPipe</title>
<polygon fill="#ffffb3" stroke="#000000" points="263.2247,-122 184.7753,-122 184.7753,-86 263.2247,-86 263.2247,-122"/>
<text text-anchor="middle" x="224" y="-99.8" font-family="Times,serif" font-size="14.00" fill="#000000">RoundPipe</text>
</g>
<!-- RoundPipe&#45;&gt;PipesModule -->
<g id="edge19" class="edge">
<title>RoundPipe&#45;&gt;PipesModule</title>
<path fill="none" stroke="#000000" d="M255.1895,-122.2222C255.1895,-140.8285 255.1895,-167 255.1895,-167 255.1895,-167 1149.8276,-167 1149.8276,-167"/>
<polygon fill="#000000" stroke="#000000" points="1149.8277,-170.5001 1159.8276,-167 1149.8276,-163.5001 1149.8277,-170.5001"/>
</g>
<!-- UpperFirstPipe -->
<g id="node20" class="node">
<title>UpperFirstPipe</title>
<polygon fill="#ffffb3" stroke="#000000" points="166.5396,-122 65.4604,-122 65.4604,-86 166.5396,-86 166.5396,-122"/>
<text text-anchor="middle" x="116" y="-99.8" font-family="Times,serif" font-size="14.00" fill="#000000">UpperFirstPipe</text>
</g>
<!-- UpperFirstPipe&#45;&gt;PipesModule -->
<g id="edge20" class="edge">
<title>UpperFirstPipe&#45;&gt;PipesModule</title>
<path fill="none" stroke="#000000" d="M156.9536,-122.1061C156.9536,-141.3391 156.9536,-169 156.9535,-169 156.9535,-169 1149.9668,-169 1149.9668,-169"/>
<polygon fill="#000000" stroke="#000000" points="1149.9668,-172.5001 1159.9668,-169 1149.9667,-165.5001 1149.9668,-172.5001"/>
</g>
<!-- BooleanTextPipe  -->
<g id="node22" class="node">
<title>BooleanTextPipe </title>
<polygon fill="#fb8072" stroke="#000000" points="2587.2024,-252 2470.7976,-252 2470.7976,-216 2587.2024,-216 2587.2024,-252"/>
<text text-anchor="middle" x="2529" y="-229.8" font-family="Times,serif" font-size="14.00" fill="#000000">BooleanTextPipe </text>
</g>
<!-- PipesModule&#45;&gt;BooleanTextPipe  -->
<g id="edge21" class="edge">
<title>PipesModule&#45;&gt;BooleanTextPipe </title>
<path fill="none" stroke="#000000" stroke-dasharray="5,2" d="M1250.1147,-170C1480.575,-170 2515.625,-170 2515.625,-170 2515.625,-170 2515.625,-205.8314 2515.625,-205.8314"/>
<polygon fill="#000000" stroke="#000000" points="2512.1251,-205.8313 2515.625,-215.8314 2519.1251,-205.8314 2512.1251,-205.8313"/>
</g>
<!-- CdDatePipe  -->
<g id="node23" class="node">
<title>CdDatePipe </title>
<polygon fill="#fb8072" stroke="#000000" points="2452.6509,-252 2365.3491,-252 2365.3491,-216 2452.6509,-216 2452.6509,-252"/>
<text text-anchor="middle" x="2409" y="-229.8" font-family="Times,serif" font-size="14.00" fill="#000000">CdDatePipe </text>
</g>
<!-- PipesModule&#45;&gt;CdDatePipe  -->
<g id="edge22" class="edge">
<title>PipesModule&#45;&gt;CdDatePipe </title>
<path fill="none" stroke="#000000" stroke-dasharray="5,2" d="M1249.9352,-172C1467.1148,-172 2397.625,-172 2397.625,-172 2397.625,-172 2397.625,-205.7333 2397.625,-205.7333"/>
<polygon fill="#000000" stroke="#000000" points="2394.1251,-205.7333 2397.625,-215.7333 2401.1251,-205.7333 2394.1251,-205.7333"/>
</g>
<!-- CephReleaseNamePipe  -->
<g id="node24" class="node">
<title>CephReleaseNamePipe </title>
<polygon fill="#fb8072" stroke="#000000" points="2347.3956,-252 2196.6044,-252 2196.6044,-216 2347.3956,-216 2347.3956,-252"/>
<text text-anchor="middle" x="2272" y="-229.8" font-family="Times,serif" font-size="14.00" fill="#000000">CephReleaseNamePipe </text>
</g>
<!-- PipesModule&#45;&gt;CephReleaseNamePipe  -->
<g id="edge23" class="edge">
<title>PipesModule&#45;&gt;CephReleaseNamePipe </title>
<path fill="none" stroke="#000000" stroke-dasharray="5,2" d="M1250.0852,-174C1451.8601,-174 2262.125,-174 2262.125,-174 2262.125,-174 2262.125,-205.998 2262.125,-205.998"/>
<polygon fill="#000000" stroke="#000000" points="2258.6251,-205.998 2262.125,-215.998 2265.6251,-205.9981 2258.6251,-205.998"/>
</g>
<!-- CephShortVersionPipe  -->
<g id="node25" class="node">
<title>CephShortVersionPipe </title>
<polygon fill="#fb8072" stroke="#000000" points="2178.0904,-252 2029.9096,-252 2029.9096,-216 2178.0904,-216 2178.0904,-252"/>
<text text-anchor="middle" x="2104" y="-229.8" font-family="Times,serif" font-size="14.00" fill="#000000">CephShortVersionPipe </text>
</g>
<!-- PipesModule&#45;&gt;CephShortVersionPipe  -->
<g id="edge24" class="edge">
<title>PipesModule&#45;&gt;CephShortVersionPipe </title>
<path fill="none" stroke="#000000" stroke-dasharray="5,2" d="M1250.1085,-175C1431.2586,-175 2096.125,-175 2096.125,-175 2096.125,-175 2096.125,-205.9775 2096.125,-205.9775"/>
<polygon fill="#000000" stroke="#000000" points="2092.6251,-205.9774 2096.125,-215.9775 2099.6251,-205.9775 2092.6251,-205.9774"/>
</g>
<!-- DimlessBinaryPerSecondPipe  -->
<g id="node26" class="node">
<title>DimlessBinaryPerSecondPipe </title>
<polygon fill="#fb8072" stroke="#000000" points="2012.2422,-252 1823.7578,-252 1823.7578,-216 2012.2422,-216 2012.2422,-252"/>
<text text-anchor="middle" x="1918" y="-229.8" font-family="Times,serif" font-size="14.00" fill="#000000">DimlessBinaryPerSecondPipe </text>
</g>
<!-- PipesModule&#45;&gt;DimlessBinaryPerSecondPipe  -->
<g id="edge25" class="edge">
<title>PipesModule&#45;&gt;DimlessBinaryPerSecondPipe </title>
<path fill="none" stroke="#000000" stroke-dasharray="5,2" d="M1250.0077,-177C1405.6533,-177 1911.625,-177 1911.625,-177 1911.625,-177 1911.625,-205.9648 1911.625,-205.9648"/>
<polygon fill="#000000" stroke="#000000" points="1908.1251,-205.9648 1911.625,-215.9648 1915.1251,-205.9649 1908.1251,-205.9648"/>
</g>
<!-- DimlessBinaryPipe  -->
<g id="node27" class="node">
<title>DimlessBinaryPipe </title>
<polygon fill="#fb8072" stroke="#000000" points="1806.3729,-252 1677.6271,-252 1677.6271,-216 1806.3729,-216 1806.3729,-252"/>
<text text-anchor="middle" x="1742" y="-229.8" font-family="Times,serif" font-size="14.00" fill="#000000">DimlessBinaryPipe </text>
</g>
<!-- PipesModule&#45;&gt;DimlessBinaryPipe  -->
<g id="edge26" class="edge">
<title>PipesModule&#45;&gt;DimlessBinaryPipe </title>
<path fill="none" stroke="#000000" stroke-dasharray="5,2" d="M1250.019,-179C1375.043,-179 1717.3546,-179 1717.3546,-179 1717.3546,-179 1717.3546,-205.9909 1717.3546,-205.9909"/>
<polygon fill="#000000" stroke="#000000" points="1713.8547,-205.9909 1717.3546,-215.9909 1720.8547,-205.991 1713.8547,-205.9909"/>
</g>
<!-- DimlessPipe  -->
<g id="node28" class="node">
<title>DimlessPipe </title>
<polygon fill="#fb8072" stroke="#000000" points="1660.2704,-252 1569.7296,-252 1569.7296,-216 1660.2704,-216 1660.2704,-252"/>
<text text-anchor="middle" x="1615" y="-229.8" font-family="Times,serif" font-size="14.00" fill="#000000">DimlessPipe </text>
</g>
<!-- PipesModule&#45;&gt;DimlessPipe  -->
<g id="edge27" class="edge">
<title>PipesModule&#45;&gt;DimlessPipe </title>
<path fill="none" stroke="#000000" stroke-dasharray="5,2" d="M1250.0483,-181C1353.1992,-181 1597.705,-181 1597.705,-181 1597.705,-181 1597.705,-205.7604 1597.705,-205.7604"/>
<polygon fill="#000000" stroke="#000000" points="1594.2051,-205.7604 1597.705,-215.7604 1601.2051,-205.7604 1594.2051,-205.7604"/>
</g>
<!-- EmptyPipe  -->
<g id="node29" class="node">
<title>EmptyPipe </title>
<polygon fill="#fb8072" stroke="#000000" points="1551.7221,-252 1470.2779,-252 1470.2779,-216 1551.7221,-216 1551.7221,-252"/>
<text text-anchor="middle" x="1511" y="-229.8" font-family="Times,serif" font-size="14.00" fill="#000000">EmptyPipe </text>
</g>
<!-- PipesModule&#45;&gt;EmptyPipe  -->
<g id="edge28" class="edge">
<title>PipesModule&#45;&gt;EmptyPipe </title>
<path fill="none" stroke="#000000" stroke-dasharray="5,2" d="M1249.9794,-182C1331.8774,-182 1496.9631,-182 1496.9631,-182 1496.9631,-182 1496.9631,-205.8129 1496.9631,-205.8129"/>
<polygon fill="#000000" stroke="#000000" points="1493.4632,-205.8129 1496.9631,-215.8129 1500.4632,-205.813 1493.4632,-205.8129"/>
</g>
<!-- EncodeUriPipe  -->
<g id="node30" class="node">
<title>EncodeUriPipe </title>
<polygon fill="#fb8072" stroke="#000000" points="1452.5274,-252 1347.4726,-252 1347.4726,-216 1452.5274,-216 1452.5274,-252"/>
<text text-anchor="middle" x="1400" y="-229.8" font-family="Times,serif" font-size="14.00" fill="#000000">EncodeUriPipe </text>
</g>
<!-- PipesModule&#45;&gt;EncodeUriPipe  -->
<g id="edge29" class="edge">
<title>PipesModule&#45;&gt;EncodeUriPipe </title>
<path fill="none" stroke="#000000" stroke-dasharray="5,2" d="M1250.0707,-184C1312.7838,-184 1418.7546,-184 1418.7546,-184 1418.7546,-184 1418.7546,-205.9489 1418.7546,-205.9489"/>
<polygon fill="#000000" stroke="#000000" points="1415.2547,-205.9488 1418.7546,-215.9489 1422.2547,-205.9489 1415.2547,-205.9488"/>
</g>
<!-- FilterPipe  -->
<g id="node31" class="node">
<title>FilterPipe </title>
<polygon fill="#fb8072" stroke="#000000" points="1329.2179,-252 1254.7821,-252 1254.7821,-216 1329.2179,-216 1329.2179,-252"/>
<text text-anchor="middle" x="1292" y="-229.8" font-family="Times,serif" font-size="14.00" fill="#000000">FilterPipe </text>
</g>
<!-- PipesModule&#45;&gt;FilterPipe  -->
<g id="edge30" class="edge">
<title>PipesModule&#45;&gt;FilterPipe </title>
<path fill="none" stroke="#000000" stroke-dasharray="5,2" d="M1250.1544,-186C1255.1715,-186 1258.5163,-186 1258.5163,-186 1258.5163,-186 1258.5163,-205.8533 1258.5163,-205.8533"/>
<polygon fill="#000000" stroke="#000000" points="1255.0164,-205.8532 1258.5163,-215.8533 1262.0164,-205.8533 1255.0164,-205.8532"/>
</g>
<!-- HealthColorPipe  -->
<g id="node32" class="node">
<title>HealthColorPipe </title>
<polygon fill="#fb8072" stroke="#000000" points="1236.5933,-252 1123.4067,-252 1123.4067,-216 1236.5933,-216 1236.5933,-252"/>
<text text-anchor="middle" x="1180" y="-229.8" font-family="Times,serif" font-size="14.00" fill="#000000">HealthColorPipe </text>
</g>
<!-- PipesModule&#45;&gt;HealthColorPipe  -->
<g id="edge31" class="edge">
<title>PipesModule&#45;&gt;HealthColorPipe </title>
<path fill="none" stroke="#000000" stroke-dasharray="5,2" d="M1198.4276,-187.1061C1198.4276,-187.1061 1198.4276,-205.991 1198.4276,-205.991"/>
<polygon fill="#000000" stroke="#000000" points="1194.9277,-205.9909 1198.4276,-215.991 1201.9277,-205.991 1194.9277,-205.9909"/>
</g>
<!-- IopsPipe  -->
<g id="node33" class="node">
<title>IopsPipe </title>
<polygon fill="#fb8072" stroke="#000000" points="1105.4948,-252 1036.5052,-252 1036.5052,-216 1105.4948,-216 1105.4948,-252"/>
<text text-anchor="middle" x="1071" y="-229.8" font-family="Times,serif" font-size="14.00" fill="#000000">IopsPipe </text>
</g>
<!-- PipesModule&#45;&gt;IopsPipe  -->
<g id="edge32" class="edge">
<title>PipesModule&#45;&gt;IopsPipe </title>
<path fill="none" stroke="#000000" stroke-dasharray="5,2" d="M1159.8225,-186C1123.2832,-186 1077.875,-186 1077.875,-186 1077.875,-186 1077.875,-205.8533 1077.875,-205.8533"/>
<polygon fill="#000000" stroke="#000000" points="1074.3751,-205.8532 1077.875,-215.8533 1081.3751,-205.8533 1074.3751,-205.8532"/>
</g>
<!-- ListPipe  -->
<g id="node34" class="node">
<title>ListPipe </title>
<polygon fill="#fb8072" stroke="#000000" points="1019.1664,-252 952.8336,-252 952.8336,-216 1019.1664,-216 1019.1664,-252"/>
<text text-anchor="middle" x="986" y="-229.8" font-family="Times,serif" font-size="14.00" fill="#000000">ListPipe </text>
</g>
<!-- PipesModule&#45;&gt;ListPipe  -->
<g id="edge33" class="edge">
<title>PipesModule&#45;&gt;ListPipe </title>
<path fill="none" stroke="#000000" stroke-dasharray="5,2" d="M1160.074,-184C1098.2157,-184 994.375,-184 994.375,-184 994.375,-184 994.375,-205.9489 994.375,-205.9489"/>
<polygon fill="#000000" stroke="#000000" points="990.8751,-205.9488 994.375,-215.9489 997.8751,-205.9489 990.8751,-205.9488"/>
</g>
<!-- LogPriorityPipe  -->
<g id="node35" class="node">
<title>LogPriorityPipe </title>
<polygon fill="#fb8072" stroke="#000000" points="934.7164,-252 825.2836,-252 825.2836,-216 934.7164,-216 934.7164,-252"/>
<text text-anchor="middle" x="880" y="-229.8" font-family="Times,serif" font-size="14.00" fill="#000000">LogPriorityPipe </text>
</g>
<!-- PipesModule&#45;&gt;LogPriorityPipe  -->
<g id="edge34" class="edge">
<title>PipesModule&#45;&gt;LogPriorityPipe </title>
<path fill="none" stroke="#000000" stroke-dasharray="5,2" d="M1159.9219,-182C1072.9253,-182 890.375,-182 890.375,-182 890.375,-182 890.375,-205.8129 890.375,-205.8129"/>
<polygon fill="#000000" stroke="#000000" points="886.8751,-205.8129 890.375,-215.8129 893.8751,-205.813 886.8751,-205.8129"/>
</g>
<!-- MillisecondsPipe  -->
<g id="node36" class="node">
<title>MillisecondsPipe </title>
<polygon fill="#fb8072" stroke="#000000" points="807.2136,-252 690.7864,-252 690.7864,-216 807.2136,-216 807.2136,-252"/>
<text text-anchor="middle" x="749" y="-229.8" font-family="Times,serif" font-size="14.00" fill="#000000">MillisecondsPipe </text>
</g>
<!-- PipesModule&#45;&gt;MillisecondsPipe  -->
<g id="edge35" class="edge">
<title>PipesModule&#45;&gt;MillisecondsPipe </title>
<path fill="none" stroke="#000000" stroke-dasharray="5,2" d="M1159.9708,-180C1047.0614,-180 760.875,-180 760.875,-180 760.875,-180 760.875,-205.7181 760.875,-205.7181"/>
<polygon fill="#000000" stroke="#000000" points="757.3751,-205.718 760.875,-215.7181 764.3751,-205.7181 757.3751,-205.718"/>
</g>
<!-- OrdinalPipe  -->
<g id="node37" class="node">
<title>OrdinalPipe </title>
<polygon fill="#fb8072" stroke="#000000" points="672.6509,-252 585.3491,-252 585.3491,-216 672.6509,-216 672.6509,-252"/>
<text text-anchor="middle" x="629" y="-229.8" font-family="Times,serif" font-size="14.00" fill="#000000">OrdinalPipe </text>
</g>
<!-- PipesModule&#45;&gt;OrdinalPipe  -->
<g id="edge36" class="edge">
<title>PipesModule&#45;&gt;OrdinalPipe </title>
<path fill="none" stroke="#000000" stroke-dasharray="5,2" d="M1159.9492,-178C1026.559,-178 642.875,-178 642.875,-178 642.875,-178 642.875,-205.973 642.875,-205.973"/>
<polygon fill="#000000" stroke="#000000" points="639.3751,-205.973 642.875,-215.973 646.3751,-205.973 639.3751,-205.973"/>
</g>
<!-- RbdConfigurationSourcePipe  -->
<g id="node38" class="node">
<title>RbdConfigurationSourcePipe </title>
<polygon fill="#fb8072" stroke="#000000" points="567.6411,-252 382.3589,-252 382.3589,-216 567.6411,-216 567.6411,-252"/>
<text text-anchor="middle" x="475" y="-229.8" font-family="Times,serif" font-size="14.00" fill="#000000">RbdConfigurationSourcePipe </text>
</g>
<!-- PipesModule&#45;&gt;RbdConfigurationSourcePipe  -->
<g id="edge37" class="edge">
<title>PipesModule&#45;&gt;RbdConfigurationSourcePipe </title>
<path fill="none" stroke="#000000" stroke-dasharray="5,2" d="M1160.0263,-176C1003.2568,-176 490.375,-176 490.375,-176 490.375,-176 490.375,-205.9664 490.375,-205.9664"/>
<polygon fill="#000000" stroke="#000000" points="486.8751,-205.9663 490.375,-215.9664 493.8751,-205.9664 486.8751,-205.9663"/>
</g>
<!-- RelativeDatePipe  -->
<g id="node39" class="node">
<title>RelativeDatePipe </title>
<polygon fill="#fb8072" stroke="#000000" points="364.9673,-252 247.0327,-252 247.0327,-216 364.9673,-216 364.9673,-252"/>
<text text-anchor="middle" x="306" y="-229.8" font-family="Times,serif" font-size="14.00" fill="#000000">RelativeDatePipe </text>
</g>
<!-- PipesModule&#45;&gt;RelativeDatePipe  -->
<g id="edge38" class="edge">
<title>PipesModule&#45;&gt;RelativeDatePipe </title>
<path fill="none" stroke="#000000" stroke-dasharray="5,2" d="M1160.0425,-174C980.2826,-174 322.875,-174 322.875,-174 322.875,-174 322.875,-205.998 322.875,-205.998"/>
<polygon fill="#000000" stroke="#000000" points="319.3751,-205.998 322.875,-215.998 326.3751,-205.9981 319.3751,-205.998"/>
</g>
<!-- RoundPipe  -->
<g id="node40" class="node">
<title>RoundPipe </title>
<polygon fill="#fb8072" stroke="#000000" points="228.7249,-252 147.2751,-252 147.2751,-216 228.7249,-216 228.7249,-252"/>
<text text-anchor="middle" x="188" y="-229.8" font-family="Times,serif" font-size="14.00" fill="#000000">RoundPipe </text>
</g>
<!-- PipesModule&#45;&gt;RoundPipe  -->
<g id="edge39" class="edge">
<title>PipesModule&#45;&gt;RoundPipe </title>
<path fill="none" stroke="#000000" stroke-dasharray="5,2" d="M1159.8468,-172C965.1059,-172 206.875,-172 206.875,-172 206.875,-172 206.875,-205.7333 206.875,-205.7333"/>
<polygon fill="#000000" stroke="#000000" points="203.3751,-205.7333 206.875,-215.7333 210.3751,-205.7333 203.3751,-205.7333"/>
</g>
<!-- UpperFirstPipe  -->
<g id="node41" class="node">
<title>UpperFirstPipe </title>
<polygon fill="#fb8072" stroke="#000000" points="129.5386,-252 24.4614,-252 24.4614,-216 129.5386,-216 129.5386,-252"/>
<text text-anchor="middle" x="77" y="-229.8" font-family="Times,serif" font-size="14.00" fill="#000000">UpperFirstPipe </text>
</g>
<!-- PipesModule&#45;&gt;UpperFirstPipe  -->
<g id="edge40" class="edge">
<title>PipesModule&#45;&gt;UpperFirstPipe </title>
<path fill="none" stroke="#000000" stroke-dasharray="5,2" d="M1159.862,-170C952.0385,-170 97.375,-170 97.375,-170 97.375,-170 97.375,-205.8314 97.375,-205.8314"/>
<polygon fill="#000000" stroke="#000000" points="93.8751,-205.8313 97.375,-215.8314 100.8751,-205.8314 93.8751,-205.8313"/>
</g>
</g>
</svg>
