<?xml version="1.0" encoding="UTF-8" standalone="no"?>
<!DOCTYPE svg PUBLIC "-//W3C//DTD SVG 1.1//EN"
 "http://www.w3.org/Graphics/SVG/1.1/DTD/svg11.dtd">
<!-- Generated by graphviz version 2.40.1 (20161225.0304)
 -->
<!-- Title: dependencies Pages: 1 -->
<svg width="1232pt" height="284pt"
 viewBox="0.00 0.00 1232.00 284.00" xmlns="http://www.w3.org/2000/svg" xmlns:xlink="http://www.w3.org/1999/xlink">
<g id="graph0" class="graph" transform="scale(1 1) rotate(0) translate(4 280)">
<title>dependencies</title>
<polygon fill="#ffffff" stroke="transparent" points="-4,4 -4,-280 1228,-280 1228,4 -4,4"/>
<text text-anchor="start" x="591.0091" y="-42.4" font-family="sans-serif" font-weight="bold" font-size="14.00" fill="#000000">Legend</text>
<polygon fill="#ffffb3" stroke="transparent" points="378,-10 378,-30 398,-30 398,-10 378,-10"/>
<text text-anchor="start" x="401.629" y="-15.4" font-family="sans-serif" font-size="14.00" fill="#000000"> &#160;Declarations</text>
<polygon fill="#8dd3c7" stroke="transparent" points="491,-10 491,-30 511,-30 511,-10 491,-10"/>
<text text-anchor="start" x="514.7251" y="-15.4" font-family="sans-serif" font-size="14.00" fill="#000000"> &#160;Module</text>
<polygon fill="#80b1d3" stroke="transparent" points="577,-10 577,-30 597,-30 597,-10 577,-10"/>
<text text-anchor="start" x="600.7812" y="-15.4" font-family="sans-serif" font-size="14.00" fill="#000000"> &#160;Bootstrap</text>
<polygon fill="#fdb462" stroke="transparent" points="674,-10 674,-30 694,-30 694,-10 674,-10"/>
<text text-anchor="start" x="697.6732" y="-15.4" font-family="sans-serif" font-size="14.00" fill="#000000"> &#160;Providers</text>
<polygon fill="#fb8072" stroke="transparent" points="770,-10 770,-30 790,-30 790,-10 770,-10"/>
<text text-anchor="start" x="793.7258" y="-15.4" font-family="sans-serif" font-size="14.00" fill="#000000"> &#160;Exports</text>
<g id="clust1" class="cluster">
<title>cluster_MirroringModule</title>
<polygon fill="none" stroke="#000000" stroke-dasharray="1,5" points="8,-70 8,-268 1216,-268 1216,-70 8,-70"/>
</g>
<g id="clust2" class="cluster">
<title>cluster_MirroringModule_declarations</title>
<polygon fill="none" stroke="#000000" points="138,-78 138,-130 1208,-130 1208,-78 138,-78"/>
</g>
<g id="clust9" class="cluster">
<title>cluster_MirroringModule_imports</title>
<polygon fill="none" stroke="#000000" points="16,-78 16,-130 130,-130 130,-78 16,-78"/>
</g>
<g id="clust10" class="cluster">
<title>cluster_MirroringModule_exports</title>
<polygon fill="none" stroke="#000000" points="564,-208 564,-260 720,-260 720,-208 564,-208"/>
</g>
<!-- DaemonListComponent -->
<g id="node1" class="node">
<title>DaemonListComponent</title>
<polygon fill="#ffffb3" stroke="#000000" points="1200.0379,-122 1049.9621,-122 1049.9621,-86 1200.0379,-86 1200.0379,-122"/>
<text text-anchor="middle" x="1125" y="-99.8" font-family="Times,serif" font-size="14.00" fill="#000000">DaemonListComponent</text>
</g>
<!-- MirroringModule -->
<g id="node7" class="node">
<title>MirroringModule</title>
<polygon fill="#8dd3c7" stroke="#000000" points="699.2577,-187 696.2577,-191 675.2577,-191 672.2577,-187 584.7423,-187 584.7423,-151 699.2577,-151 699.2577,-187"/>
<text text-anchor="middle" x="642" y="-164.8" font-family="Times,serif" font-size="14.00" fill="#000000">MirroringModule</text>
</g>
<!-- DaemonListComponent&#45;&gt;MirroringModule -->
<g id="edge1" class="edge">
<title>DaemonListComponent&#45;&gt;MirroringModule</title>
<path fill="none" stroke="#000000" d="M1125,-122.2921C1125,-144.2057 1125,-178 1125,-178 1125,-178 709.3032,-178 709.3032,-178"/>
<polygon fill="#000000" stroke="#000000" points="709.3032,-174.5001 699.3032,-178 709.3031,-181.5001 709.3032,-174.5001"/>
</g>
<!-- ImageListComponent -->
<g id="node2" class="node">
<title>ImageListComponent</title>
<polygon fill="#ffffb3" stroke="#000000" points="1032.0912,-122 893.9088,-122 893.9088,-86 1032.0912,-86 1032.0912,-122"/>
<text text-anchor="middle" x="963" y="-99.8" font-family="Times,serif" font-size="14.00" fill="#000000">ImageListComponent</text>
</g>
<!-- ImageListComponent&#45;&gt;MirroringModule -->
<g id="edge2" class="edge">
<title>ImageListComponent&#45;&gt;MirroringModule</title>
<path fill="none" stroke="#000000" d="M963,-122.1061C963,-141.3391 963,-169 963,-169 963,-169 709.3884,-169 709.3884,-169"/>
<polygon fill="#000000" stroke="#000000" points="709.3884,-165.5001 699.3884,-169 709.3883,-172.5001 709.3884,-165.5001"/>
</g>
<!-- MirrorHealthColorPipe -->
<g id="node3" class="node">
<title>MirrorHealthColorPipe</title>
<polygon fill="#ffffb3" stroke="#000000" points="875.9102,-122 728.0898,-122 728.0898,-86 875.9102,-86 875.9102,-122"/>
<text text-anchor="middle" x="802" y="-99.8" font-family="Times,serif" font-size="14.00" fill="#000000">MirrorHealthColorPipe</text>
</g>
<!-- MirrorHealthColorPipe&#45;&gt;MirroringModule -->
<g id="edge3" class="edge">
<title>MirrorHealthColorPipe&#45;&gt;MirroringModule</title>
<path fill="none" stroke="#000000" d="M802,-122.027C802,-138.3976 802,-160 802,-160 802,-160 709.3117,-160 709.3117,-160"/>
<polygon fill="#000000" stroke="#000000" points="709.3118,-156.5001 699.3117,-160 709.3117,-163.5001 709.3118,-156.5001"/>
</g>
<!-- OverviewComponent -->
<g id="node4" class="node">
<title>OverviewComponent</title>
<polygon fill="#ffffb3" stroke="#000000" points="710.0268,-122 573.9732,-122 573.9732,-86 710.0268,-86 710.0268,-122"/>
<text text-anchor="middle" x="642" y="-99.8" font-family="Times,serif" font-size="14.00" fill="#000000">OverviewComponent</text>
</g>
<!-- OverviewComponent&#45;&gt;MirroringModule -->
<g id="edge4" class="edge">
<title>OverviewComponent&#45;&gt;MirroringModule</title>
<path fill="none" stroke="#000000" d="M642,-122.1061C642,-122.1061 642,-140.991 642,-140.991"/>
<polygon fill="#000000" stroke="#000000" points="638.5001,-140.9909 642,-150.991 645.5001,-140.991 638.5001,-140.9909"/>
</g>
<!-- PoolEditModeModalComponent -->
<g id="node5" class="node">
<title>PoolEditModeModalComponent</title>
<polygon fill="#ffffb3" stroke="#000000" points="555.5489,-122 356.4511,-122 356.4511,-86 555.5489,-86 555.5489,-122"/>
<text text-anchor="middle" x="456" y="-99.8" font-family="Times,serif" font-size="14.00" fill="#000000">PoolEditModeModalComponent</text>
</g>
<!-- PoolEditModeModalComponent&#45;&gt;MirroringModule -->
<g id="edge5" class="edge">
<title>PoolEditModeModalComponent&#45;&gt;MirroringModule</title>
<path fill="none" stroke="#000000" d="M456,-122.027C456,-138.3976 456,-160 456,-160 456,-160 574.6762,-160 574.6762,-160"/>
<polygon fill="#000000" stroke="#000000" points="574.6762,-163.5001 584.6762,-160 574.6761,-156.5001 574.6762,-163.5001"/>
</g>
<!-- PoolEditPeerModalComponent -->
<g id="node6" class="node">
<title>PoolEditPeerModalComponent</title>
<polygon fill="#ffffb3" stroke="#000000" points="337.7617,-122 146.2383,-122 146.2383,-86 337.7617,-86 337.7617,-122"/>
<text text-anchor="middle" x="242" y="-99.8" font-family="Times,serif" font-size="14.00" fill="#000000">PoolEditPeerModalComponent</text>
</g>
<!-- PoolEditPeerModalComponent&#45;&gt;MirroringModule -->
<g id="edge6" class="edge">
<title>PoolEditPeerModalComponent&#45;&gt;MirroringModule</title>
<path fill="none" stroke="#000000" d="M242,-122.1061C242,-141.3391 242,-169 242,-169 242,-169 574.6898,-169 574.6898,-169"/>
<polygon fill="#000000" stroke="#000000" points="574.6898,-172.5001 584.6898,-169 574.6897,-165.5001 574.6898,-172.5001"/>
</g>
<!-- OverviewComponent  -->
<g id="node9" class="node">
<title>OverviewComponent </title>
<polygon fill="#fb8072" stroke="#000000" points="712.026,-252 571.974,-252 571.974,-216 712.026,-216 712.026,-252"/>
<text text-anchor="middle" x="642" y="-229.8" font-family="Times,serif" font-size="14.00" fill="#000000">OverviewComponent </text>
</g>
<!-- MirroringModule&#45;&gt;OverviewComponent  -->
<g id="edge8" class="edge">
<title>MirroringModule&#45;&gt;OverviewComponent </title>
<path fill="none" stroke="#000000" stroke-dasharray="5,2" d="M642,-187.1061C642,-187.1061 642,-205.991 642,-205.991"/>
<polygon fill="#000000" stroke="#000000" points="638.5001,-205.9909 642,-215.991 645.5001,-205.991 638.5001,-205.9909"/>
</g>
<!-- SharedModule -->
<g id="node8" class="node">
<title>SharedModule</title>
<polygon fill="#8dd3c7" stroke="#000000" points="122.4231,-122 119.4231,-126 98.4231,-126 95.4231,-122 23.5769,-122 23.5769,-86 122.4231,-86 122.4231,-122"/>
<text text-anchor="middle" x="73" y="-99.8" font-family="Times,serif" font-size="14.00" fill="#000000">SharedModule</text>
</g>
<!-- SharedModule&#45;&gt;MirroringModule -->
<g id="edge7" class="edge">
<title>SharedModule&#45;&gt;MirroringModule</title>
<path fill="none" stroke="#000000" d="M73,-122.2921C73,-144.2057 73,-178 73,-178 73,-178 574.5737,-178 574.5737,-178"/>
<polygon fill="#000000" stroke="#000000" points="574.5737,-181.5001 584.5737,-178 574.5736,-174.5001 574.5737,-181.5001"/>
</g>
</g>
</svg>
