<?xml version="1.0" encoding="UTF-8" standalone="no"?>
<!DOCTYPE svg PUBLIC "-//W3C//DTD SVG 1.1//EN"
 "http://www.w3.org/Graphics/SVG/1.1/DTD/svg11.dtd">
<!-- Generated by graphviz version 2.40.1 (20161225.0304)
 -->
<!-- Title: dependencies Pages: 1 -->
<svg width="1394pt" height="211pt"
 viewBox="0.00 0.00 1394.00 211.00" xmlns="http://www.w3.org/2000/svg" xmlns:xlink="http://www.w3.org/1999/xlink">
<g id="graph0" class="graph" transform="scale(1 1) rotate(0) translate(4 207)">
<title>dependencies</title>
<polygon fill="#ffffff" stroke="transparent" points="-4,4 -4,-207 1390,-207 1390,4 -4,4"/>
<text text-anchor="start" x="672.0091" y="-42.4" font-family="sans-serif" font-weight="bold" font-size="14.00" fill="#000000">Legend</text>
<polygon fill="#ffffb3" stroke="transparent" points="459,-10 459,-30 479,-30 479,-10 459,-10"/>
<text text-anchor="start" x="482.629" y="-15.4" font-family="sans-serif" font-size="14.00" fill="#000000"> &#160;Declarations</text>
<polygon fill="#8dd3c7" stroke="transparent" points="572,-10 572,-30 592,-30 592,-10 572,-10"/>
<text text-anchor="start" x="595.7251" y="-15.4" font-family="sans-serif" font-size="14.00" fill="#000000"> &#160;Module</text>
<polygon fill="#80b1d3" stroke="transparent" points="658,-10 658,-30 678,-30 678,-10 658,-10"/>
<text text-anchor="start" x="681.7812" y="-15.4" font-family="sans-serif" font-size="14.00" fill="#000000"> &#160;Bootstrap</text>
<polygon fill="#fdb462" stroke="transparent" points="755,-10 755,-30 775,-30 775,-10 755,-10"/>
<text text-anchor="start" x="778.6732" y="-15.4" font-family="sans-serif" font-size="14.00" fill="#000000"> &#160;Providers</text>
<polygon fill="#fb8072" stroke="transparent" points="851,-10 851,-30 871,-30 871,-10 851,-10"/>
<text text-anchor="start" x="874.7258" y="-15.4" font-family="sans-serif" font-size="14.00" fill="#000000"> &#160;Exports</text>
<g id="clust1" class="cluster">
<title>cluster_AuthModule</title>
<polygon fill="none" stroke="#000000" stroke-dasharray="1,5" points="8,-70 8,-195 1378,-195 1378,-70 8,-70"/>
</g>
<g id="clust2" class="cluster">
<title>cluster_AuthModule_declarations</title>
<polygon fill="none" stroke="#000000" points="138,-78 138,-130 1370,-130 1370,-78 138,-78"/>
</g>
<g id="clust11" class="cluster">
<title>cluster_AuthModule_imports</title>
<polygon fill="none" stroke="#000000" points="16,-78 16,-130 130,-130 130,-78 16,-78"/>
</g>
<!-- LoginComponent -->
<g id="node1" class="node">
<title>LoginComponent</title>
<polygon fill="#ffffb3" stroke="#000000" points="1362.2758,-122 1247.7242,-122 1247.7242,-86 1362.2758,-86 1362.2758,-122"/>
<text text-anchor="middle" x="1305" y="-99.8" font-family="Times,serif" font-size="14.00" fill="#000000">LoginComponent</text>
</g>
<!-- AuthModule -->
<g id="node9" class="node">
<title>AuthModule</title>
<polygon fill="#8dd3c7" stroke="#000000" points="724.5482,-187 721.5482,-191 700.5482,-191 697.5482,-187 637.4518,-187 637.4518,-151 724.5482,-151 724.5482,-187"/>
<text text-anchor="middle" x="681" y="-164.8" font-family="Times,serif" font-size="14.00" fill="#000000">AuthModule</text>
</g>
<!-- LoginComponent&#45;&gt;AuthModule -->
<g id="edge1" class="edge">
<title>LoginComponent&#45;&gt;AuthModule</title>
<path fill="none" stroke="#000000" d="M1305,-122.0109C1305,-144.4852 1305,-180 1305,-180 1305,-180 734.8785,-180 734.8785,-180"/>
<polygon fill="#000000" stroke="#000000" points="734.8785,-176.5001 724.8785,-180 734.8784,-183.5001 734.8785,-176.5001"/>
</g>
<!-- RoleDetailsComponent -->
<g id="node2" class="node">
<title>RoleDetailsComponent</title>
<polygon fill="#ffffb3" stroke="#000000" points="1229.927,-122 1082.073,-122 1082.073,-86 1229.927,-86 1229.927,-122"/>
<text text-anchor="middle" x="1156" y="-99.8" font-family="Times,serif" font-size="14.00" fill="#000000">RoleDetailsComponent</text>
</g>
<!-- RoleDetailsComponent&#45;&gt;AuthModule -->
<g id="edge2" class="edge">
<title>RoleDetailsComponent&#45;&gt;AuthModule</title>
<path fill="none" stroke="#000000" d="M1156,-122.1289C1156,-142.5724 1156,-173 1156,-173 1156,-173 734.8354,-173 734.8354,-173"/>
<polygon fill="#000000" stroke="#000000" points="734.8355,-169.5001 724.8354,-173 734.8354,-176.5001 734.8355,-169.5001"/>
</g>
<!-- RoleFormComponent -->
<g id="node3" class="node">
<title>RoleFormComponent</title>
<polygon fill="#ffffb3" stroke="#000000" points="1064.108,-122 925.892,-122 925.892,-86 1064.108,-86 1064.108,-122"/>
<text text-anchor="middle" x="995" y="-99.8" font-family="Times,serif" font-size="14.00" fill="#000000">RoleFormComponent</text>
</g>
<!-- RoleFormComponent&#45;&gt;AuthModule -->
<g id="edge3" class="edge">
<title>RoleFormComponent&#45;&gt;AuthModule</title>
<path fill="none" stroke="#000000" d="M995,-122.2667C995,-140.5552 995,-166 995,-166 995,-166 734.6604,-166 734.6604,-166"/>
<polygon fill="#000000" stroke="#000000" points="734.6604,-162.5001 724.6604,-166 734.6603,-169.5001 734.6604,-162.5001"/>
</g>
<!-- RoleListComponent -->
<g id="node4" class="node">
<title>RoleListComponent</title>
<polygon fill="#ffffb3" stroke="#000000" points="907.5534,-122 778.4466,-122 778.4466,-86 907.5534,-86 907.5534,-122"/>
<text text-anchor="middle" x="843" y="-99.8" font-family="Times,serif" font-size="14.00" fill="#000000">RoleListComponent</text>
</g>
<!-- RoleListComponent&#45;&gt;AuthModule -->
<g id="edge4" class="edge">
<title>RoleListComponent&#45;&gt;AuthModule</title>
<path fill="none" stroke="#000000" d="M843,-122.0091C843,-138.0494 843,-159 843,-159 843,-159 734.8395,-159 734.8395,-159"/>
<polygon fill="#000000" stroke="#000000" points="734.8396,-155.5001 724.8395,-159 734.8395,-162.5001 734.8396,-155.5001"/>
</g>
<!-- SsoNotFoundComponent -->
<g id="node5" class="node">
<title>SsoNotFoundComponent</title>
<polygon fill="#ffffb3" stroke="#000000" points="760.3398,-122 601.6602,-122 601.6602,-86 760.3398,-86 760.3398,-122"/>
<text text-anchor="middle" x="681" y="-99.8" font-family="Times,serif" font-size="14.00" fill="#000000">SsoNotFoundComponent</text>
</g>
<!-- SsoNotFoundComponent&#45;&gt;AuthModule -->
<g id="edge5" class="edge">
<title>SsoNotFoundComponent&#45;&gt;AuthModule</title>
<path fill="none" stroke="#000000" d="M681,-122.1061C681,-122.1061 681,-140.991 681,-140.991"/>
<polygon fill="#000000" stroke="#000000" points="677.5001,-140.9909 681,-150.991 684.5001,-140.991 677.5001,-140.9909"/>
</g>
<!-- UserFormComponent -->
<g id="node6" class="node">
<title>UserFormComponent</title>
<polygon fill="#ffffb3" stroke="#000000" points="584.0926,-122 445.9074,-122 445.9074,-86 584.0926,-86 584.0926,-122"/>
<text text-anchor="middle" x="515" y="-99.8" font-family="Times,serif" font-size="14.00" fill="#000000">UserFormComponent</text>
</g>
<!-- UserFormComponent&#45;&gt;AuthModule -->
<g id="edge6" class="edge">
<title>UserFormComponent&#45;&gt;AuthModule</title>
<path fill="none" stroke="#000000" d="M515,-122.0091C515,-138.0494 515,-159 515,-159 515,-159 627.3855,-159 627.3855,-159"/>
<polygon fill="#000000" stroke="#000000" points="627.3855,-162.5001 637.3855,-159 627.3854,-155.5001 627.3855,-162.5001"/>
</g>
<!-- UserListComponent -->
<g id="node7" class="node">
<title>UserListComponent</title>
<polygon fill="#ffffb3" stroke="#000000" points="427.538,-122 298.462,-122 298.462,-86 427.538,-86 427.538,-122"/>
<text text-anchor="middle" x="363" y="-99.8" font-family="Times,serif" font-size="14.00" fill="#000000">UserListComponent</text>
</g>
<!-- UserListComponent&#45;&gt;AuthModule -->
<g id="edge7" class="edge">
<title>UserListComponent&#45;&gt;AuthModule</title>
<path fill="none" stroke="#000000" d="M363,-122.2667C363,-140.5552 363,-166 363,-166 363,-166 627.4502,-166 627.4502,-166"/>
<polygon fill="#000000" stroke="#000000" points="627.4503,-169.5001 637.4502,-166 627.4502,-162.5001 627.4503,-169.5001"/>
</g>
<!-- UserTabsComponent -->
<g id="node8" class="node">
<title>UserTabsComponent</title>
<polygon fill="#ffffb3" stroke="#000000" points="280.4706,-122 145.5294,-122 145.5294,-86 280.4706,-86 280.4706,-122"/>
<text text-anchor="middle" x="213" y="-99.8" font-family="Times,serif" font-size="14.00" fill="#000000">UserTabsComponent</text>
</g>
<!-- UserTabsComponent&#45;&gt;AuthModule -->
<g id="edge8" class="edge">
<title>UserTabsComponent&#45;&gt;AuthModule</title>
<path fill="none" stroke="#000000" d="M213,-122.1289C213,-142.5724 213,-173 213,-173 213,-173 627.392,-173 627.392,-173"/>
<polygon fill="#000000" stroke="#000000" points="627.392,-176.5001 637.392,-173 627.3919,-169.5001 627.392,-176.5001"/>
</g>
<!-- SharedModule -->
<g id="node10" class="node">
<title>SharedModule</title>
<polygon fill="#8dd3c7" stroke="#000000" points="122.4231,-122 119.4231,-126 98.4231,-126 95.4231,-122 23.5769,-122 23.5769,-86 122.4231,-86 122.4231,-122"/>
<text text-anchor="middle" x="73" y="-99.8" font-family="Times,serif" font-size="14.00" fill="#000000">SharedModule</text>
</g>
<!-- SharedModule&#45;&gt;AuthModule -->
<g id="edge9" class="edge">
<title>SharedModule&#45;&gt;AuthModule</title>
<path fill="none" stroke="#000000" d="M73,-122.0109C73,-144.4852 73,-180 73,-180 73,-180 627.2741,-180 627.2741,-180"/>
<polygon fill="#000000" stroke="#000000" points="627.2742,-183.5001 637.2741,-180 627.2741,-176.5001 627.2742,-183.5001"/>
</g>
</g>
</svg>
