<?xml version="1.0" encoding="UTF-8" standalone="no"?>
<!DOCTYPE svg PUBLIC "-//W3C//DTD SVG 1.1//EN"
 "http://www.w3.org/Graphics/SVG/1.1/DTD/svg11.dtd">
<!-- Generated by graphviz version 2.40.1 (20161225.0304)
 -->
<!-- Title: dependencies Pages: 1 -->
<svg width="504pt" height="284pt"
 viewBox="0.00 0.00 504.00 284.00" xmlns="http://www.w3.org/2000/svg" xmlns:xlink="http://www.w3.org/1999/xlink">
<g id="graph0" class="graph" transform="scale(1 1) rotate(0) translate(4 280)">
<title>dependencies</title>
<polygon fill="#ffffff" stroke="transparent" points="-4,4 -4,-280 500,-280 500,4 -4,4"/>
<text text-anchor="start" x="227.0091" y="-42.4" font-family="sans-serif" font-weight="bold" font-size="14.00" fill="#000000">Legend</text>
<polygon fill="#ffffb3" stroke="transparent" points="14,-10 14,-30 34,-30 34,-10 14,-10"/>
<text text-anchor="start" x="37.629" y="-15.4" font-family="sans-serif" font-size="14.00" fill="#000000"> &#160;Declarations</text>
<polygon fill="#8dd3c7" stroke="transparent" points="127,-10 127,-30 147,-30 147,-10 127,-10"/>
<text text-anchor="start" x="150.7251" y="-15.4" font-family="sans-serif" font-size="14.00" fill="#000000"> &#160;Module</text>
<polygon fill="#80b1d3" stroke="transparent" points="213,-10 213,-30 233,-30 233,-10 213,-10"/>
<text text-anchor="start" x="236.7812" y="-15.4" font-family="sans-serif" font-size="14.00" fill="#000000"> &#160;Bootstrap</text>
<polygon fill="#fdb462" stroke="transparent" points="310,-10 310,-30 330,-30 330,-10 310,-10"/>
<text text-anchor="start" x="333.6732" y="-15.4" font-family="sans-serif" font-size="14.00" fill="#000000"> &#160;Providers</text>
<polygon fill="#fb8072" stroke="transparent" points="406,-10 406,-30 426,-30 426,-10 406,-10"/>
<text text-anchor="start" x="429.7258" y="-15.4" font-family="sans-serif" font-size="14.00" fill="#000000"> &#160;Exports</text>
<g id="clust1" class="cluster">
<title>cluster_CoreModule</title>
<polygon fill="none" stroke="#000000" stroke-dasharray="1,5" points="12,-70 12,-268 484,-268 484,-70 12,-70"/>
</g>
<g id="clust2" class="cluster">
<title>cluster_CoreModule_declarations</title>
<polygon fill="none" stroke="#000000" points="166,-78 166,-130 476,-130 476,-78 166,-78"/>
</g>
<g id="clust5" class="cluster">
<title>cluster_CoreModule_imports</title>
<polygon fill="none" stroke="#000000" points="20,-78 20,-130 158,-130 158,-78 20,-78"/>
</g>
<g id="clust6" class="cluster">
<title>cluster_CoreModule_exports</title>
<polygon fill="none" stroke="#000000" points="172,-208 172,-260 314,-260 314,-208 172,-208"/>
</g>
<!-- ForbiddenComponent -->
<g id="node1" class="node">
<title>ForbiddenComponent</title>
<polygon fill="#ffffb3" stroke="#000000" points="468.3809,-122 329.6191,-122 329.6191,-86 468.3809,-86 468.3809,-122"/>
<text text-anchor="middle" x="399" y="-99.8" font-family="Times,serif" font-size="14.00" fill="#000000">ForbiddenComponent</text>
</g>
<!-- CoreModule -->
<g id="node3" class="node">
<title>CoreModule</title>
<polygon fill="#8dd3c7" stroke="#000000" points="286.2619,-187 283.2619,-191 262.2619,-191 259.2619,-187 199.7381,-187 199.7381,-151 286.2619,-151 286.2619,-187"/>
<text text-anchor="middle" x="243" y="-164.8" font-family="Times,serif" font-size="14.00" fill="#000000">CoreModule</text>
</g>
<!-- ForbiddenComponent&#45;&gt;CoreModule -->
<g id="edge1" class="edge">
<title>ForbiddenComponent&#45;&gt;CoreModule</title>
<path fill="none" stroke="#000000" d="M399,-122.1061C399,-141.3391 399,-169 399,-169 399,-169 296.4547,-169 296.4547,-169"/>
<polygon fill="#000000" stroke="#000000" points="296.4547,-165.5001 286.4547,-169 296.4547,-172.5001 296.4547,-165.5001"/>
</g>
<!-- NotFoundComponent -->
<g id="node2" class="node">
<title>NotFoundComponent</title>
<polygon fill="#ffffb3" stroke="#000000" points="312.1122,-122 173.8878,-122 173.8878,-86 312.1122,-86 312.1122,-122"/>
<text text-anchor="middle" x="243" y="-99.8" font-family="Times,serif" font-size="14.00" fill="#000000">NotFoundComponent</text>
</g>
<!-- NotFoundComponent&#45;&gt;CoreModule -->
<g id="edge2" class="edge">
<title>NotFoundComponent&#45;&gt;CoreModule</title>
<path fill="none" stroke="#000000" d="M243,-122.1061C243,-122.1061 243,-140.991 243,-140.991"/>
<polygon fill="#000000" stroke="#000000" points="239.5001,-140.9909 243,-150.991 246.5001,-140.991 239.5001,-140.9909"/>
</g>
<!-- NavigationModule  -->
<g id="node5" class="node">
<title>NavigationModule </title>
<polygon fill="#fb8072" stroke="#000000" points="305.7577,-252 180.2423,-252 180.2423,-216 305.7577,-216 305.7577,-252"/>
<text text-anchor="middle" x="243" y="-229.8" font-family="Times,serif" font-size="14.00" fill="#000000">NavigationModule </text>
</g>
<!-- CoreModule&#45;&gt;NavigationModule  -->
<g id="edge4" class="edge">
<title>CoreModule&#45;&gt;NavigationModule </title>
<path fill="none" stroke="#000000" stroke-dasharray="5,2" d="M243,-187.1061C243,-187.1061 243,-205.991 243,-205.991"/>
<polygon fill="#000000" stroke="#000000" points="239.5001,-205.9909 243,-215.991 246.5001,-205.991 239.5001,-205.9909"/>
</g>
<!-- NavigationModule -->
<g id="node4" class="node">
<title>NavigationModule</title>
<polygon fill="#8dd3c7" stroke="#000000" points="149.7576,-122 146.7576,-126 125.7576,-126 122.7576,-122 28.2424,-122 28.2424,-86 149.7576,-86 149.7576,-122"/>
<text text-anchor="middle" x="89" y="-99.8" font-family="Times,serif" font-size="14.00" fill="#000000">NavigationModule</text>
</g>
<!-- NavigationModule&#45;&gt;CoreModule -->
<g id="edge3" class="edge">
<title>NavigationModule&#45;&gt;CoreModule</title>
<path fill="none" stroke="#000000" d="M89,-122.1061C89,-141.3391 89,-169 89,-169 89,-169 189.6926,-169 189.6926,-169"/>
<polygon fill="#000000" stroke="#000000" points="189.6926,-172.5001 199.6926,-169 189.6926,-165.5001 189.6926,-172.5001"/>
</g>
</g>
</svg>
