<?xml version="1.0" encoding="UTF-8" standalone="no"?>
<!DOCTYPE svg PUBLIC "-//W3C//DTD SVG 1.1//EN"
 "http://www.w3.org/Graphics/SVG/1.1/DTD/svg11.dtd">
<!-- Generated by graphviz version 2.40.1 (20161225.0304)
 -->
<!-- Title: dependencies Pages: 1 -->
<svg width="3246pt" height="284pt"
 viewBox="0.00 0.00 3246.00 284.00" xmlns="http://www.w3.org/2000/svg" xmlns:xlink="http://www.w3.org/1999/xlink">
<g id="graph0" class="graph" transform="scale(1 1) rotate(0) translate(4 280)">
<title>dependencies</title>
<polygon fill="#ffffff" stroke="transparent" points="-4,4 -4,-280 3242,-280 3242,4 -4,4"/>
<text text-anchor="start" x="1598.0091" y="-42.4" font-family="sans-serif" font-weight="bold" font-size="14.00" fill="#000000">Legend</text>
<polygon fill="#ffffb3" stroke="transparent" points="1385,-10 1385,-30 1405,-30 1405,-10 1385,-10"/>
<text text-anchor="start" x="1408.629" y="-15.4" font-family="sans-serif" font-size="14.00" fill="#000000"> &#160;Declarations</text>
<polygon fill="#8dd3c7" stroke="transparent" points="1498,-10 1498,-30 1518,-30 1518,-10 1498,-10"/>
<text text-anchor="start" x="1521.7251" y="-15.4" font-family="sans-serif" font-size="14.00" fill="#000000"> &#160;Module</text>
<polygon fill="#80b1d3" stroke="transparent" points="1584,-10 1584,-30 1604,-30 1604,-10 1584,-10"/>
<text text-anchor="start" x="1607.7812" y="-15.4" font-family="sans-serif" font-size="14.00" fill="#000000"> &#160;Bootstrap</text>
<polygon fill="#fdb462" stroke="transparent" points="1681,-10 1681,-30 1701,-30 1701,-10 1681,-10"/>
<text text-anchor="start" x="1704.6732" y="-15.4" font-family="sans-serif" font-size="14.00" fill="#000000"> &#160;Providers</text>
<polygon fill="#fb8072" stroke="transparent" points="1777,-10 1777,-30 1797,-30 1797,-10 1777,-10"/>
<text text-anchor="start" x="1800.7258" y="-15.4" font-family="sans-serif" font-size="14.00" fill="#000000"> &#160;Exports</text>
<g id="clust1" class="cluster">
<title>cluster_ComponentsModule</title>
<polygon fill="none" stroke="#000000" stroke-dasharray="1,5" points="8,-70 8,-268 3230,-268 3230,-70 8,-70"/>
</g>
<g id="clust2" class="cluster">
<title>cluster_ComponentsModule_declarations</title>
<polygon fill="none" stroke="#000000" points="158,-78 158,-130 3222,-130 3222,-78 158,-78"/>
</g>
<g id="clust21" class="cluster">
<title>cluster_ComponentsModule_imports</title>
<polygon fill="none" stroke="#000000" points="16,-78 16,-130 150,-130 150,-78 16,-78"/>
</g>
<g id="clust22" class="cluster">
<title>cluster_ComponentsModule_exports</title>
<polygon fill="none" stroke="#000000" points="210,-208 210,-260 2867,-260 2867,-208 210,-208"/>
</g>
<!-- BackButtonComponent -->
<g id="node1" class="node">
<title>BackButtonComponent</title>
<polygon fill="#ffffb3" stroke="#000000" points="3214.2162,-122 3065.7838,-122 3065.7838,-86 3214.2162,-86 3214.2162,-122"/>
<text text-anchor="middle" x="3140" y="-99.8" font-family="Times,serif" font-size="14.00" fill="#000000">BackButtonComponent</text>
</g>
<!-- ComponentsModule -->
<g id="node19" class="node">
<title>ComponentsModule</title>
<polygon fill="#8dd3c7" stroke="#000000" points="1616.3272,-187 1613.3272,-191 1592.3272,-191 1589.3272,-187 1485.6728,-187 1485.6728,-151 1616.3272,-151 1616.3272,-187"/>
<text text-anchor="middle" x="1551" y="-164.8" font-family="Times,serif" font-size="14.00" fill="#000000">ComponentsModule</text>
</g>
<!-- BackButtonComponent&#45;&gt;ComponentsModule -->
<g id="edge1" class="edge">
<title>BackButtonComponent&#45;&gt;ComponentsModule</title>
<path fill="none" stroke="#000000" d="M3140,-122.308C3140,-142.1455 3140,-171 3140,-171 3140,-171 1626.2531,-171 1626.2531,-171"/>
<polygon fill="#000000" stroke="#000000" points="1626.2531,-167.5001 1616.2531,-171 1626.2531,-174.5001 1626.2531,-167.5001"/>
</g>
<!-- ConfirmationModalComponent -->
<g id="node2" class="node">
<title>ConfirmationModalComponent</title>
<polygon fill="#ffffb3" stroke="#000000" points="3047.8173,-122 2854.1827,-122 2854.1827,-86 3047.8173,-86 3047.8173,-122"/>
<text text-anchor="middle" x="2951" y="-99.8" font-family="Times,serif" font-size="14.00" fill="#000000">ConfirmationModalComponent</text>
</g>
<!-- ConfirmationModalComponent&#45;&gt;ComponentsModule -->
<g id="edge2" class="edge">
<title>ConfirmationModalComponent&#45;&gt;ComponentsModule</title>
<path fill="none" stroke="#000000" d="M2953.2583,-122.1686C2953.2583,-141.0898 2953.2583,-168 2953.2583,-168 2953.2583,-168 1626.2865,-168 1626.2865,-168"/>
<polygon fill="#000000" stroke="#000000" points="1626.2866,-164.5001 1616.2865,-168 1626.2865,-171.5001 1626.2866,-164.5001"/>
</g>
<!-- CriticalConfirmationModalComponent -->
<g id="node3" class="node">
<title>CriticalConfirmationModalComponent</title>
<polygon fill="#ffffb3" stroke="#000000" points="2836.806,-122 2601.194,-122 2601.194,-86 2836.806,-86 2836.806,-122"/>
<text text-anchor="middle" x="2719" y="-99.8" font-family="Times,serif" font-size="14.00" fill="#000000">CriticalConfirmationModalComponent</text>
</g>
<!-- CriticalConfirmationModalComponent&#45;&gt;ComponentsModule -->
<g id="edge3" class="edge">
<title>CriticalConfirmationModalComponent&#45;&gt;ComponentsModule</title>
<path fill="none" stroke="#000000" d="M2645.0409,-122.2667C2645.0409,-140.5552 2645.0409,-166 2645.0409,-166 2645.0409,-166 1626.5666,-166 1626.5666,-166"/>
<polygon fill="#000000" stroke="#000000" points="1626.5666,-162.5001 1616.5666,-166 1626.5665,-169.5001 1626.5666,-162.5001"/>
</g>
<!-- ErrorPanelComponent -->
<g id="node4" class="node">
<title>ErrorPanelComponent</title>
<polygon fill="#ffffb3" stroke="#000000" points="2582.9692,-122 2441.0308,-122 2441.0308,-86 2582.9692,-86 2582.9692,-122"/>
<text text-anchor="middle" x="2512" y="-99.8" font-family="Times,serif" font-size="14.00" fill="#000000">ErrorPanelComponent</text>
</g>
<!-- ErrorPanelComponent&#45;&gt;ComponentsModule -->
<g id="edge4" class="edge">
<title>ErrorPanelComponent&#45;&gt;ComponentsModule</title>
<path fill="none" stroke="#000000" d="M2482.9837,-122.002C2482.9837,-139.6754 2482.9837,-164 2482.9837,-164 2482.9837,-164 1626.1649,-164 1626.1649,-164"/>
<polygon fill="#000000" stroke="#000000" points="1626.1649,-160.5001 1616.1649,-164 1626.1648,-167.5001 1626.1649,-160.5001"/>
</g>
<!-- GrafanaComponent -->
<g id="node5" class="node">
<title>GrafanaComponent</title>
<polygon fill="#ffffb3" stroke="#000000" points="2423.4046,-122 2296.5954,-122 2296.5954,-86 2423.4046,-86 2423.4046,-122"/>
<text text-anchor="middle" x="2360" y="-99.8" font-family="Times,serif" font-size="14.00" fill="#000000">GrafanaComponent</text>
</g>
<!-- GrafanaComponent&#45;&gt;ComponentsModule -->
<g id="edge5" class="edge">
<title>GrafanaComponent&#45;&gt;ComponentsModule</title>
<path fill="none" stroke="#000000" d="M2337.1289,-122.0336C2337.1289,-139.0597 2337.1289,-162 2337.1289,-162 2337.1289,-162 1626.3365,-162 1626.3365,-162"/>
<polygon fill="#000000" stroke="#000000" points="1626.3366,-158.5001 1616.3365,-162 1626.3365,-165.5001 1626.3366,-158.5001"/>
</g>
<!-- HelperComponent -->
<g id="node6" class="node">
<title>HelperComponent</title>
<polygon fill="#ffffb3" stroke="#000000" points="2278.9201,-122 2159.0799,-122 2159.0799,-86 2278.9201,-86 2278.9201,-122"/>
<text text-anchor="middle" x="2219" y="-99.8" font-family="Times,serif" font-size="14.00" fill="#000000">HelperComponent</text>
</g>
<!-- HelperComponent&#45;&gt;ComponentsModule -->
<g id="edge6" class="edge">
<title>HelperComponent&#45;&gt;ComponentsModule</title>
<path fill="none" stroke="#000000" d="M2197.9592,-122.027C2197.9592,-138.3976 2197.9592,-160 2197.9592,-160 2197.9592,-160 1626.2944,-160 1626.2944,-160"/>
<polygon fill="#000000" stroke="#000000" points="1626.2944,-156.5001 1616.2944,-160 1626.2943,-163.5001 1626.2944,-156.5001"/>
</g>
<!-- InfoPanelComponent -->
<g id="node7" class="node">
<title>InfoPanelComponent</title>
<polygon fill="#ffffb3" stroke="#000000" points="2140.7562,-122 2005.2438,-122 2005.2438,-86 2140.7562,-86 2140.7562,-122"/>
<text text-anchor="middle" x="2073" y="-99.8" font-family="Times,serif" font-size="14.00" fill="#000000">InfoPanelComponent</text>
</g>
<!-- InfoPanelComponent&#45;&gt;ComponentsModule -->
<g id="edge7" class="edge">
<title>InfoPanelComponent&#45;&gt;ComponentsModule</title>
<path fill="none" stroke="#000000" d="M2042.0353,-122.2819C2042.0353,-137.9478 2042.0353,-158 2042.0353,-158 2042.0353,-158 1626.2057,-158 1626.2057,-158"/>
<polygon fill="#000000" stroke="#000000" points="1626.2057,-154.5001 1616.2057,-158 1626.2057,-161.5001 1626.2057,-154.5001"/>
</g>
<!-- LanguageSelectorComponent -->
<g id="node8" class="node">
<title>LanguageSelectorComponent</title>
<polygon fill="#ffffb3" stroke="#000000" points="1987.3974,-122 1804.6026,-122 1804.6026,-86 1987.3974,-86 1987.3974,-122"/>
<text text-anchor="middle" x="1896" y="-99.8" font-family="Times,serif" font-size="14.00" fill="#000000">LanguageSelectorComponent</text>
</g>
<!-- LanguageSelectorComponent&#45;&gt;ComponentsModule -->
<g id="edge8" class="edge">
<title>LanguageSelectorComponent&#45;&gt;ComponentsModule</title>
<path fill="none" stroke="#000000" d="M1840.0489,-122.1871C1840.0489,-137.1824 1840.0489,-156 1840.0489,-156 1840.0489,-156 1626.2286,-156 1626.2286,-156"/>
<polygon fill="#000000" stroke="#000000" points="1626.2287,-152.5001 1616.2286,-156 1626.2286,-159.5001 1626.2287,-152.5001"/>
</g>
<!-- LoadingPanelComponent -->
<g id="node9" class="node">
<title>LoadingPanelComponent</title>
<polygon fill="#ffffb3" stroke="#000000" points="1786.5926,-122 1627.4074,-122 1627.4074,-86 1786.5926,-86 1786.5926,-122"/>
<text text-anchor="middle" x="1707" y="-99.8" font-family="Times,serif" font-size="14.00" fill="#000000">LoadingPanelComponent</text>
</g>
<!-- LoadingPanelComponent&#45;&gt;ComponentsModule -->
<g id="edge9" class="edge">
<title>LoadingPanelComponent&#45;&gt;ComponentsModule</title>
<path fill="none" stroke="#000000" d="M1661.0724,-122.0511C1661.0724,-136.373 1661.0724,-154 1661.0724,-154 1661.0724,-154 1626.3017,-154 1626.3017,-154"/>
<polygon fill="#000000" stroke="#000000" points="1626.3018,-150.5001 1616.3017,-154 1626.3017,-157.5001 1626.3018,-150.5001"/>
</g>
<!-- ModalComponent -->
<g id="node10" class="node">
<title>ModalComponent</title>
<polygon fill="#ffffb3" stroke="#000000" points="1609.8823,-122 1492.1177,-122 1492.1177,-86 1609.8823,-86 1609.8823,-122"/>
<text text-anchor="middle" x="1551" y="-99.8" font-family="Times,serif" font-size="14.00" fill="#000000">ModalComponent</text>
</g>
<!-- ModalComponent&#45;&gt;ComponentsModule -->
<g id="edge10" class="edge">
<title>ModalComponent&#45;&gt;ComponentsModule</title>
<path fill="none" stroke="#000000" d="M1551,-122.1061C1551,-122.1061 1551,-140.991 1551,-140.991"/>
<polygon fill="#000000" stroke="#000000" points="1547.5001,-140.9909 1551,-150.991 1554.5001,-140.991 1547.5001,-140.9909"/>
</g>
<!-- RefreshSelectorComponent -->
<g id="node11" class="node">
<title>RefreshSelectorComponent</title>
<polygon fill="#ffffb3" stroke="#000000" points="1474.2324,-122 1303.7676,-122 1303.7676,-86 1474.2324,-86 1474.2324,-122"/>
<text text-anchor="middle" x="1389" y="-99.8" font-family="Times,serif" font-size="14.00" fill="#000000">RefreshSelectorComponent</text>
</g>
<!-- RefreshSelectorComponent&#45;&gt;ComponentsModule -->
<g id="edge11" class="edge">
<title>RefreshSelectorComponent&#45;&gt;ComponentsModule</title>
<path fill="none" stroke="#000000" d="M1427.625,-122.0511C1427.625,-136.373 1427.625,-154 1427.625,-154 1427.625,-154 1475.6998,-154 1475.6998,-154"/>
<polygon fill="#000000" stroke="#000000" points="1475.6999,-157.5001 1485.6998,-154 1475.6998,-150.5001 1475.6999,-157.5001"/>
</g>
<!-- SelectBadgesComponent -->
<g id="node12" class="node">
<title>SelectBadgesComponent</title>
<polygon fill="#ffffb3" stroke="#000000" points="1285.2506,-122 1128.7494,-122 1128.7494,-86 1285.2506,-86 1285.2506,-122"/>
<text text-anchor="middle" x="1207" y="-99.8" font-family="Times,serif" font-size="14.00" fill="#000000">SelectBadgesComponent</text>
</g>
<!-- SelectBadgesComponent&#45;&gt;ComponentsModule -->
<g id="edge12" class="edge">
<title>SelectBadgesComponent&#45;&gt;ComponentsModule</title>
<path fill="none" stroke="#000000" d="M1244.125,-122.1871C1244.125,-137.1824 1244.125,-156 1244.125,-156 1244.125,-156 1475.544,-156 1475.544,-156"/>
<polygon fill="#000000" stroke="#000000" points="1475.544,-159.5001 1485.544,-156 1475.544,-152.5001 1475.544,-159.5001"/>
</g>
<!-- SelectComponent -->
<g id="node13" class="node">
<title>SelectComponent</title>
<polygon fill="#ffffb3" stroke="#000000" points="1110.5409,-122 995.4591,-122 995.4591,-86 1110.5409,-86 1110.5409,-122"/>
<text text-anchor="middle" x="1053" y="-99.8" font-family="Times,serif" font-size="14.00" fill="#000000">SelectComponent</text>
</g>
<!-- SelectComponent&#45;&gt;ComponentsModule -->
<g id="edge13" class="edge">
<title>SelectComponent&#45;&gt;ComponentsModule</title>
<path fill="none" stroke="#000000" d="M1088.125,-122.2819C1088.125,-137.9478 1088.125,-158 1088.125,-158 1088.125,-158 1475.663,-158 1475.663,-158"/>
<polygon fill="#000000" stroke="#000000" points="1475.6631,-161.5001 1485.663,-158 1475.663,-154.5001 1475.6631,-161.5001"/>
</g>
<!-- SparklineComponent -->
<g id="node14" class="node">
<title>SparklineComponent</title>
<polygon fill="#ffffb3" stroke="#000000" points="977.486,-122 842.514,-122 842.514,-86 977.486,-86 977.486,-122"/>
<text text-anchor="middle" x="910" y="-99.8" font-family="Times,serif" font-size="14.00" fill="#000000">SparklineComponent</text>
</g>
<!-- SparklineComponent&#45;&gt;ComponentsModule -->
<g id="edge14" class="edge">
<title>SparklineComponent&#45;&gt;ComponentsModule</title>
<path fill="none" stroke="#000000" d="M943.125,-122.027C943.125,-138.3976 943.125,-160 943.125,-160 943.125,-160 1475.6582,-160 1475.6582,-160"/>
<polygon fill="#000000" stroke="#000000" points="1475.6582,-163.5001 1485.6582,-160 1475.6582,-156.5001 1475.6582,-163.5001"/>
</g>
<!-- SubmitButtonComponent -->
<g id="node15" class="node">
<title>SubmitButtonComponent</title>
<polygon fill="#ffffb3" stroke="#000000" points="824.9046,-122 665.0954,-122 665.0954,-86 824.9046,-86 824.9046,-122"/>
<text text-anchor="middle" x="745" y="-99.8" font-family="Times,serif" font-size="14.00" fill="#000000">SubmitButtonComponent</text>
</g>
<!-- SubmitButtonComponent&#45;&gt;ComponentsModule -->
<g id="edge15" class="edge">
<title>SubmitButtonComponent&#45;&gt;ComponentsModule</title>
<path fill="none" stroke="#000000" d="M776.125,-122.0336C776.125,-139.0597 776.125,-162 776.125,-162 776.125,-162 1475.6024,-162 1475.6024,-162"/>
<polygon fill="#000000" stroke="#000000" points="1475.6024,-165.5001 1485.6024,-162 1475.6024,-158.5001 1475.6024,-165.5001"/>
</g>
<!-- UsageBarComponent -->
<g id="node16" class="node">
<title>UsageBarComponent</title>
<polygon fill="#ffffb3" stroke="#000000" points="647.0254,-122 510.9746,-122 510.9746,-86 647.0254,-86 647.0254,-122"/>
<text text-anchor="middle" x="579" y="-99.8" font-family="Times,serif" font-size="14.00" fill="#000000">UsageBarComponent</text>
</g>
<!-- UsageBarComponent&#45;&gt;ComponentsModule -->
<g id="edge16" class="edge">
<title>UsageBarComponent&#45;&gt;ComponentsModule</title>
<path fill="none" stroke="#000000" d="M608.125,-122.002C608.125,-139.6754 608.125,-164 608.125,-164 608.125,-164 1475.8204,-164 1475.8204,-164"/>
<polygon fill="#000000" stroke="#000000" points="1475.8204,-167.5001 1485.8204,-164 1475.8203,-160.5001 1475.8204,-167.5001"/>
</g>
<!-- ViewCacheComponent -->
<g id="node17" class="node">
<title>ViewCacheComponent</title>
<polygon fill="#ffffb3" stroke="#000000" points="492.1317,-122 345.8683,-122 345.8683,-86 492.1317,-86 492.1317,-122"/>
<text text-anchor="middle" x="419" y="-99.8" font-family="Times,serif" font-size="14.00" fill="#000000">ViewCacheComponent</text>
</g>
<!-- ViewCacheComponent&#45;&gt;ComponentsModule -->
<g id="edge17" class="edge">
<title>ViewCacheComponent&#45;&gt;ComponentsModule</title>
<path fill="none" stroke="#000000" d="M446.625,-122.2667C446.625,-140.5552 446.625,-166 446.625,-166 446.625,-166 1475.632,-166 1475.632,-166"/>
<polygon fill="#000000" stroke="#000000" points="1475.6321,-169.5001 1485.632,-166 1475.632,-162.5001 1475.6321,-169.5001"/>
</g>
<!-- WarningPanelComponent -->
<g id="node18" class="node">
<title>WarningPanelComponent</title>
<polygon fill="#ffffb3" stroke="#000000" points="327.9157,-122 166.0843,-122 166.0843,-86 327.9157,-86 327.9157,-122"/>
<text text-anchor="middle" x="247" y="-99.8" font-family="Times,serif" font-size="14.00" fill="#000000">WarningPanelComponent</text>
</g>
<!-- WarningPanelComponent&#45;&gt;ComponentsModule -->
<g id="edge18" class="edge">
<title>WarningPanelComponent&#45;&gt;ComponentsModule</title>
<path fill="none" stroke="#000000" d="M272.625,-122.1686C272.625,-141.0898 272.625,-168 272.625,-168 272.625,-168 1475.405,-168 1475.405,-168"/>
<polygon fill="#000000" stroke="#000000" points="1475.405,-171.5001 1485.405,-168 1475.4049,-164.5001 1475.405,-171.5001"/>
</g>
<!-- BackButtonComponent  -->
<g id="node21" class="node">
<title>BackButtonComponent </title>
<polygon fill="#fb8072" stroke="#000000" points="2858.7163,-252 2707.2837,-252 2707.2837,-216 2858.7163,-216 2858.7163,-252"/>
<text text-anchor="middle" x="2783" y="-229.8" font-family="Times,serif" font-size="14.00" fill="#000000">BackButtonComponent </text>
</g>
<!-- ComponentsModule&#45;&gt;BackButtonComponent  -->
<g id="edge20" class="edge">
<title>ComponentsModule&#45;&gt;BackButtonComponent </title>
<path fill="none" stroke="#000000" stroke-dasharray="5,2" d="M1616.2091,-173C1869.2088,-173 2771.8975,-173 2771.8975,-173 2771.8975,-173 2771.8975,-205.698 2771.8975,-205.698"/>
<polygon fill="#000000" stroke="#000000" points="2768.3975,-205.698 2771.8975,-215.698 2775.3975,-205.698 2768.3975,-205.698"/>
</g>
<!-- ErrorPanelComponent  -->
<g id="node22" class="node">
<title>ErrorPanelComponent </title>
<polygon fill="#fb8072" stroke="#000000" points="2688.97,-252 2543.03,-252 2543.03,-216 2688.97,-216 2688.97,-252"/>
<text text-anchor="middle" x="2616" y="-229.8" font-family="Times,serif" font-size="14.00" fill="#000000">ErrorPanelComponent </text>
</g>
<!-- ComponentsModule&#45;&gt;ErrorPanelComponent  -->
<g id="edge21" class="edge">
<title>ComponentsModule&#45;&gt;ErrorPanelComponent </title>
<path fill="none" stroke="#000000" stroke-dasharray="5,2" d="M1616.2401,-175C1840.0749,-175 2563.125,-175 2563.125,-175 2563.125,-175 2563.125,-205.9775 2563.125,-205.9775"/>
<polygon fill="#000000" stroke="#000000" points="2559.6251,-205.9774 2563.125,-215.9775 2566.6251,-205.9775 2559.6251,-205.9774"/>
</g>
<!-- GrafanaComponent  -->
<g id="node23" class="node">
<title>GrafanaComponent </title>
<polygon fill="#fb8072" stroke="#000000" points="2524.904,-252 2395.096,-252 2395.096,-216 2524.904,-216 2524.904,-252"/>
<text text-anchor="middle" x="2460" y="-229.8" font-family="Times,serif" font-size="14.00" fill="#000000">GrafanaComponent </text>
</g>
<!-- ComponentsModule&#45;&gt;GrafanaComponent  -->
<g id="edge22" class="edge">
<title>ComponentsModule&#45;&gt;GrafanaComponent </title>
<path fill="none" stroke="#000000" stroke-dasharray="5,2" d="M1616.2032,-177C1816.4593,-177 2409.125,-177 2409.125,-177 2409.125,-177 2409.125,-205.9648 2409.125,-205.9648"/>
<polygon fill="#000000" stroke="#000000" points="2405.6251,-205.9648 2409.125,-215.9648 2412.6251,-205.9649 2405.6251,-205.9648"/>
</g>
<!-- HelperComponent  -->
<g id="node24" class="node">
<title>HelperComponent </title>
<polygon fill="#fb8072" stroke="#000000" points="2377.4194,-252 2254.5806,-252 2254.5806,-216 2377.4194,-216 2377.4194,-252"/>
<text text-anchor="middle" x="2316" y="-229.8" font-family="Times,serif" font-size="14.00" fill="#000000">HelperComponent </text>
</g>
<!-- ComponentsModule&#45;&gt;HelperComponent  -->
<g id="edge23" class="edge">
<title>ComponentsModule&#45;&gt;HelperComponent </title>
<path fill="none" stroke="#000000" stroke-dasharray="5,2" d="M1616.4041,-179C1793.0644,-179 2266.625,-179 2266.625,-179 2266.625,-179 2266.625,-205.9909 2266.625,-205.9909"/>
<polygon fill="#000000" stroke="#000000" points="2263.1251,-205.9909 2266.625,-215.9909 2270.1251,-205.991 2263.1251,-205.9909"/>
</g>
<!-- InfoPanelComponent  -->
<g id="node25" class="node">
<title>InfoPanelComponent </title>
<polygon fill="#fb8072" stroke="#000000" points="2236.7562,-252 2097.2438,-252 2097.2438,-216 2236.7562,-216 2236.7562,-252"/>
<text text-anchor="middle" x="2167" y="-229.8" font-family="Times,serif" font-size="14.00" fill="#000000">InfoPanelComponent </text>
</g>
<!-- ComponentsModule&#45;&gt;InfoPanelComponent  -->
<g id="edge24" class="edge">
<title>ComponentsModule&#45;&gt;InfoPanelComponent </title>
<path fill="none" stroke="#000000" stroke-dasharray="5,2" d="M1616.1712,-181C1765.3992,-181 2119.125,-181 2119.125,-181 2119.125,-181 2119.125,-205.7604 2119.125,-205.7604"/>
<polygon fill="#000000" stroke="#000000" points="2115.6251,-205.7604 2119.125,-215.7604 2122.6251,-205.7604 2115.6251,-205.7604"/>
</g>
<!-- LanguageSelectorComponent  -->
<g id="node26" class="node">
<title>LanguageSelectorComponent </title>
<polygon fill="#fb8072" stroke="#000000" points="2078.897,-252 1893.103,-252 1893.103,-216 2078.897,-216 2078.897,-252"/>
<text text-anchor="middle" x="1986" y="-229.8" font-family="Times,serif" font-size="14.00" fill="#000000">LanguageSelectorComponent </text>
</g>
<!-- ComponentsModule&#45;&gt;LanguageSelectorComponent  -->
<g id="edge25" class="edge">
<title>ComponentsModule&#45;&gt;LanguageSelectorComponent </title>
<path fill="none" stroke="#000000" stroke-dasharray="5,2" d="M1616.5697,-183C1727.4674,-183 1940.125,-183 1940.125,-183 1940.125,-183 1940.125,-205.8757 1940.125,-205.8757"/>
<polygon fill="#000000" stroke="#000000" points="1936.6251,-205.8757 1940.125,-215.8757 1943.6251,-205.8757 1936.6251,-205.8757"/>
</g>
<!-- LoadingPanelComponent  -->
<g id="node27" class="node">
<title>LoadingPanelComponent </title>
<polygon fill="#fb8072" stroke="#000000" points="1875.0931,-252 1712.9069,-252 1712.9069,-216 1875.0931,-216 1875.0931,-252"/>
<text text-anchor="middle" x="1794" y="-229.8" font-family="Times,serif" font-size="14.00" fill="#000000">LoadingPanelComponent </text>
</g>
<!-- ComponentsModule&#45;&gt;LoadingPanelComponent  -->
<g id="edge26" class="edge">
<title>ComponentsModule&#45;&gt;LoadingPanelComponent </title>
<path fill="none" stroke="#000000" stroke-dasharray="5,2" d="M1616.3124,-185C1674.2039,-185 1749.625,-185 1749.625,-185 1749.625,-185 1749.625,-205.7542 1749.625,-205.7542"/>
<polygon fill="#000000" stroke="#000000" points="1746.1251,-205.7542 1749.625,-215.7542 1753.1251,-205.7542 1746.1251,-205.7542"/>
</g>
<!-- ModalComponent  -->
<g id="node28" class="node">
<title>ModalComponent </title>
<polygon fill="#fb8072" stroke="#000000" points="1694.8828,-252 1573.1172,-252 1573.1172,-216 1694.8828,-216 1694.8828,-252"/>
<text text-anchor="middle" x="1634" y="-229.8" font-family="Times,serif" font-size="14.00" fill="#000000">ModalComponent </text>
</g>
<!-- ComponentsModule&#45;&gt;ModalComponent  -->
<g id="edge27" class="edge">
<title>ComponentsModule&#45;&gt;ModalComponent </title>
<path fill="none" stroke="#000000" stroke-dasharray="5,2" d="M1594.7362,-187.1061C1594.7362,-187.1061 1594.7362,-205.991 1594.7362,-205.991"/>
<polygon fill="#000000" stroke="#000000" points="1591.2362,-205.9909 1594.7362,-215.991 1598.2362,-205.991 1591.2362,-205.9909"/>
</g>
<!-- RefreshSelectorComponent  -->
<g id="node29" class="node">
<title>RefreshSelectorComponent </title>
<polygon fill="#fb8072" stroke="#000000" points="1555.2324,-252 1380.7676,-252 1380.7676,-216 1555.2324,-216 1555.2324,-252"/>
<text text-anchor="middle" x="1468" y="-229.8" font-family="Times,serif" font-size="14.00" fill="#000000">RefreshSelectorComponent </text>
</g>
<!-- ComponentsModule&#45;&gt;RefreshSelectorComponent  -->
<g id="edge28" class="edge">
<title>ComponentsModule&#45;&gt;RefreshSelectorComponent </title>
<path fill="none" stroke="#000000" stroke-dasharray="5,2" d="M1520.4764,-187.1061C1520.4764,-187.1061 1520.4764,-205.991 1520.4764,-205.991"/>
<polygon fill="#000000" stroke="#000000" points="1516.9764,-205.9909 1520.4764,-215.991 1523.9764,-205.991 1516.9764,-205.9909"/>
</g>
<!-- SelectBadgesComponent  -->
<g id="node30" class="node">
<title>SelectBadgesComponent </title>
<polygon fill="#fb8072" stroke="#000000" points="1363.2506,-252 1202.7494,-252 1202.7494,-216 1363.2506,-216 1363.2506,-252"/>
<text text-anchor="middle" x="1283" y="-229.8" font-family="Times,serif" font-size="14.00" fill="#000000">SelectBadgesComponent </text>
</g>
<!-- ComponentsModule&#45;&gt;SelectBadgesComponent  -->
<g id="edge29" class="edge">
<title>ComponentsModule&#45;&gt;SelectBadgesComponent </title>
<path fill="none" stroke="#000000" stroke-dasharray="5,2" d="M1485.7067,-185C1421.6052,-185 1333.3796,-185 1333.3796,-185 1333.3796,-185 1333.3796,-205.7542 1333.3796,-205.7542"/>
<polygon fill="#000000" stroke="#000000" points="1329.8796,-205.7542 1333.3796,-215.7542 1336.8796,-205.7542 1329.8796,-205.7542"/>
</g>
<!-- SelectComponent  -->
<g id="node31" class="node">
<title>SelectComponent </title>
<polygon fill="#fb8072" stroke="#000000" points="1184.54,-252 1065.46,-252 1065.46,-216 1184.54,-216 1184.54,-252"/>
<text text-anchor="middle" x="1125" y="-229.8" font-family="Times,serif" font-size="14.00" fill="#000000">SelectComponent </text>
</g>
<!-- ComponentsModule&#45;&gt;SelectComponent  -->
<g id="edge30" class="edge">
<title>ComponentsModule&#45;&gt;SelectComponent </title>
<path fill="none" stroke="#000000" stroke-dasharray="5,2" d="M1485.4255,-183C1373.2684,-183 1156.5724,-183 1156.5724,-183 1156.5724,-183 1156.5724,-205.8757 1156.5724,-205.8757"/>
<polygon fill="#000000" stroke="#000000" points="1153.0725,-205.8757 1156.5724,-215.8757 1160.0725,-205.8757 1153.0725,-205.8757"/>
</g>
<!-- SparklineComponent  -->
<g id="node32" class="node">
<title>SparklineComponent </title>
<polygon fill="#fb8072" stroke="#000000" points="1047.4869,-252 908.5131,-252 908.5131,-216 1047.4869,-216 1047.4869,-252"/>
<text text-anchor="middle" x="978" y="-229.8" font-family="Times,serif" font-size="14.00" fill="#000000">SparklineComponent </text>
</g>
<!-- ComponentsModule&#45;&gt;SparklineComponent  -->
<g id="edge31" class="edge">
<title>ComponentsModule&#45;&gt;SparklineComponent </title>
<path fill="none" stroke="#000000" stroke-dasharray="5,2" d="M1485.7751,-181C1344.1744,-181 1021.2365,-181 1021.2365,-181 1021.2365,-181 1021.2365,-205.7604 1021.2365,-205.7604"/>
<polygon fill="#000000" stroke="#000000" points="1017.7366,-205.7604 1021.2365,-215.7604 1024.7366,-205.7604 1017.7366,-205.7604"/>
</g>
<!-- SubmitButtonComponent  -->
<g id="node33" class="node">
<title>SubmitButtonComponent </title>
<polygon fill="#fb8072" stroke="#000000" points="890.9051,-252 727.0949,-252 727.0949,-216 890.9051,-216 890.9051,-252"/>
<text text-anchor="middle" x="809" y="-229.8" font-family="Times,serif" font-size="14.00" fill="#000000">SubmitButtonComponent </text>
</g>
<!-- ComponentsModule&#45;&gt;SubmitButtonComponent  -->
<g id="edge32" class="edge">
<title>ComponentsModule&#45;&gt;SubmitButtonComponent </title>
<path fill="none" stroke="#000000" stroke-dasharray="5,2" d="M1485.6873,-179C1314.6192,-179 866.6047,-179 866.6047,-179 866.6047,-179 866.6047,-205.9909 866.6047,-205.9909"/>
<polygon fill="#000000" stroke="#000000" points="863.1047,-205.9909 866.6047,-215.9909 870.1047,-205.991 863.1047,-205.9909"/>
</g>
<!-- UsageBarComponent  -->
<g id="node34" class="node">
<title>UsageBarComponent </title>
<polygon fill="#fb8072" stroke="#000000" points="709.0246,-252 568.9754,-252 568.9754,-216 709.0246,-216 709.0246,-252"/>
<text text-anchor="middle" x="639" y="-229.8" font-family="Times,serif" font-size="14.00" fill="#000000">UsageBarComponent </text>
</g>
<!-- ComponentsModule&#45;&gt;UsageBarComponent  -->
<g id="edge33" class="edge">
<title>ComponentsModule&#45;&gt;UsageBarComponent </title>
<path fill="none" stroke="#000000" stroke-dasharray="5,2" d="M1485.7077,-177C1284.4339,-177 687.03,-177 687.03,-177 687.03,-177 687.03,-205.9648 687.03,-205.9648"/>
<polygon fill="#000000" stroke="#000000" points="683.5301,-205.9648 687.03,-215.9648 690.5301,-205.9649 683.5301,-205.9648"/>
</g>
<!-- ViewCacheComponent  -->
<g id="node35" class="node">
<title>ViewCacheComponent </title>
<polygon fill="#fb8072" stroke="#000000" points="551.1313,-252 400.8687,-252 400.8687,-216 551.1313,-216 551.1313,-252"/>
<text text-anchor="middle" x="476" y="-229.8" font-family="Times,serif" font-size="14.00" fill="#000000">ViewCacheComponent </text>
</g>
<!-- ComponentsModule&#45;&gt;ViewCacheComponent  -->
<g id="edge34" class="edge">
<title>ComponentsModule&#45;&gt;ViewCacheComponent </title>
<path fill="none" stroke="#000000" stroke-dasharray="5,2" d="M1485.6365,-175C1260.49,-175 530.9017,-175 530.9017,-175 530.9017,-175 530.9017,-205.9775 530.9017,-205.9775"/>
<polygon fill="#000000" stroke="#000000" points="527.4017,-205.9774 530.9017,-215.9775 534.4017,-205.9775 527.4017,-205.9774"/>
</g>
<!-- WarningPanelComponent  -->
<g id="node36" class="node">
<title>WarningPanelComponent </title>
<polygon fill="#fb8072" stroke="#000000" points="382.4152,-252 217.5848,-252 217.5848,-216 382.4152,-216 382.4152,-252"/>
<text text-anchor="middle" x="300" y="-229.8" font-family="Times,serif" font-size="14.00" fill="#000000">WarningPanelComponent </text>
</g>
<!-- ComponentsModule&#45;&gt;WarningPanelComponent  -->
<g id="edge35" class="edge">
<title>ComponentsModule&#45;&gt;WarningPanelComponent </title>
<path fill="none" stroke="#000000" stroke-dasharray="5,2" d="M1485.4949,-173C1236.6683,-173 364.071,-173 364.071,-173 364.071,-173 364.071,-205.698 364.071,-205.698"/>
<polygon fill="#000000" stroke="#000000" points="360.5709,-205.698 364.071,-215.698 367.5709,-205.698 360.5709,-205.698"/>
</g>
<!-- DirectivesModule -->
<g id="node20" class="node">
<title>DirectivesModule</title>
<polygon fill="#8dd3c7" stroke="#000000" points="141.5772,-122 138.5772,-126 117.5772,-126 114.5772,-122 24.4228,-122 24.4228,-86 141.5772,-86 141.5772,-122"/>
<text text-anchor="middle" x="83" y="-99.8" font-family="Times,serif" font-size="14.00" fill="#000000">DirectivesModule</text>
</g>
<!-- DirectivesModule&#45;&gt;ComponentsModule -->
<g id="edge19" class="edge">
<title>DirectivesModule&#45;&gt;ComponentsModule</title>
<path fill="none" stroke="#000000" d="M83,-122.308C83,-142.1455 83,-171 83,-171 83,-171 1475.5502,-171 1475.5502,-171"/>
<polygon fill="#000000" stroke="#000000" points="1475.5503,-174.5001 1485.5502,-171 1475.5502,-167.5001 1475.5503,-174.5001"/>
</g>
</g>
</svg>
