<?xml version="1.0" encoding="UTF-8" standalone="no"?>
<!DOCTYPE svg PUBLIC "-//W3C//DTD SVG 1.1//EN"
 "http://www.w3.org/Graphics/SVG/1.1/DTD/svg11.dtd">
<!-- Generated by graphviz version 2.40.1 (20161225.0304)
 -->
<!-- Title: dependencies Pages: 1 -->
<svg width="4278pt" height="284pt"
 viewBox="0.00 0.00 4278.00 284.00" xmlns="http://www.w3.org/2000/svg" xmlns:xlink="http://www.w3.org/1999/xlink">
<g id="graph0" class="graph" transform="scale(1 1) rotate(0) translate(4 280)">
<title>dependencies</title>
<polygon fill="#ffffff" stroke="transparent" points="-4,4 -4,-280 4274,-280 4274,4 -4,4"/>
<text text-anchor="start" x="2114.0091" y="-42.4" font-family="sans-serif" font-weight="bold" font-size="14.00" fill="#000000">Legend</text>
<polygon fill="#ffffb3" stroke="transparent" points="1901,-10 1901,-30 1921,-30 1921,-10 1901,-10"/>
<text text-anchor="start" x="1924.629" y="-15.4" font-family="sans-serif" font-size="14.00" fill="#000000"> &#160;Declarations</text>
<polygon fill="#8dd3c7" stroke="transparent" points="2014,-10 2014,-30 2034,-30 2034,-10 2014,-10"/>
<text text-anchor="start" x="2037.7251" y="-15.4" font-family="sans-serif" font-size="14.00" fill="#000000"> &#160;Module</text>
<polygon fill="#80b1d3" stroke="transparent" points="2100,-10 2100,-30 2120,-30 2120,-10 2100,-10"/>
<text text-anchor="start" x="2123.7812" y="-15.4" font-family="sans-serif" font-size="14.00" fill="#000000"> &#160;Bootstrap</text>
<polygon fill="#fdb462" stroke="transparent" points="2197,-10 2197,-30 2217,-30 2217,-10 2197,-10"/>
<text text-anchor="start" x="2220.6732" y="-15.4" font-family="sans-serif" font-size="14.00" fill="#000000"> &#160;Providers</text>
<polygon fill="#fb8072" stroke="transparent" points="2293,-10 2293,-30 2313,-30 2313,-10 2293,-10"/>
<text text-anchor="start" x="2316.7258" y="-15.4" font-family="sans-serif" font-size="14.00" fill="#000000"> &#160;Exports</text>
<g id="clust1" class="cluster">
<title>cluster_BlockModule</title>
<polygon fill="none" stroke="#000000" stroke-dasharray="1,5" points="8,-70 8,-268 4262,-268 4262,-70 8,-70"/>
</g>
<g id="clust2" class="cluster">
<title>cluster_BlockModule_declarations</title>
<polygon fill="none" stroke="#000000" points="271,-78 271,-130 4254,-130 4254,-78 271,-78"/>
</g>
<g id="clust23" class="cluster">
<title>cluster_BlockModule_imports</title>
<polygon fill="none" stroke="#000000" points="16,-78 16,-130 263,-130 263,-78 16,-78"/>
</g>
<g id="clust24" class="cluster">
<title>cluster_BlockModule_exports</title>
<polygon fill="none" stroke="#000000" points="1764,-208 1764,-260 2224,-260 2224,-208 1764,-208"/>
</g>
<!-- IscsiComponent -->
<g id="node1" class="node">
<title>IscsiComponent</title>
<polygon fill="#ffffb3" stroke="#000000" points="4246.4874,-122 4139.5126,-122 4139.5126,-86 4246.4874,-86 4246.4874,-122"/>
<text text-anchor="middle" x="4193" y="-99.8" font-family="Times,serif" font-size="14.00" fill="#000000">IscsiComponent</text>
</g>
<!-- BlockModule -->
<g id="node21" class="node">
<title>BlockModule</title>
<polygon fill="#8dd3c7" stroke="#000000" points="2037.4916,-187 2034.4916,-191 2013.4916,-191 2010.4916,-187 1944.5084,-187 1944.5084,-151 2037.4916,-151 2037.4916,-187"/>
<text text-anchor="middle" x="1991" y="-164.8" font-family="Times,serif" font-size="14.00" fill="#000000">BlockModule</text>
</g>
<!-- IscsiComponent&#45;&gt;BlockModule -->
<g id="edge1" class="edge">
<title>IscsiComponent&#45;&gt;BlockModule</title>
<path fill="none" stroke="#000000" d="M4193,-122.1532C4193,-145.7566 4193,-184 4193,-184 4193,-184 2047.5,-184 2047.5,-184"/>
<polygon fill="#000000" stroke="#000000" points="2047.5,-180.5001 2037.5,-184 2047.4999,-187.5001 2047.5,-180.5001"/>
</g>
<!-- IscsiTabsComponent -->
<g id="node2" class="node">
<title>IscsiTabsComponent</title>
<polygon fill="#ffffb3" stroke="#000000" points="4121.1993,-122 3986.8007,-122 3986.8007,-86 4121.1993,-86 4121.1993,-122"/>
<text text-anchor="middle" x="4054" y="-99.8" font-family="Times,serif" font-size="14.00" fill="#000000">IscsiTabsComponent</text>
</g>
<!-- IscsiTabsComponent&#45;&gt;BlockModule -->
<g id="edge2" class="edge">
<title>IscsiTabsComponent&#45;&gt;BlockModule</title>
<path fill="none" stroke="#000000" d="M4054,-122.2479C4054,-145.0179 4054,-181 4054,-181 4054,-181 2047.9648,-181 2047.9648,-181"/>
<polygon fill="#000000" stroke="#000000" points="2047.9648,-177.5001 2037.9648,-181 2047.9647,-184.5001 2047.9648,-177.5001"/>
</g>
<!-- IscsiTargetDetailsComponent -->
<g id="node3" class="node">
<title>IscsiTargetDetailsComponent</title>
<polygon fill="#ffffb3" stroke="#000000" points="3968.6727,-122 3785.3273,-122 3785.3273,-86 3968.6727,-86 3968.6727,-122"/>
<text text-anchor="middle" x="3877" y="-99.8" font-family="Times,serif" font-size="14.00" fill="#000000">IscsiTargetDetailsComponent</text>
</g>
<!-- IscsiTargetDetailsComponent&#45;&gt;BlockModule -->
<g id="edge3" class="edge">
<title>IscsiTargetDetailsComponent&#45;&gt;BlockModule</title>
<path fill="none" stroke="#000000" d="M3877,-122.2921C3877,-144.2057 3877,-178 3877,-178 3877,-178 2047.6205,-178 2047.6205,-178"/>
<polygon fill="#000000" stroke="#000000" points="2047.6205,-174.5001 2037.6205,-178 2047.6204,-181.5001 2047.6205,-174.5001"/>
</g>
<!-- IscsiTargetDiscoveryModalComponent -->
<g id="node4" class="node">
<title>IscsiTargetDiscoveryModalComponent</title>
<polygon fill="#ffffb3" stroke="#000000" points="3767.6021,-122 3530.3979,-122 3530.3979,-86 3767.6021,-86 3767.6021,-122"/>
<text text-anchor="middle" x="3649" y="-99.8" font-family="Times,serif" font-size="14.00" fill="#000000">IscsiTargetDiscoveryModalComponent</text>
</g>
<!-- IscsiTargetDiscoveryModalComponent&#45;&gt;BlockModule -->
<g id="edge4" class="edge">
<title>IscsiTargetDiscoveryModalComponent&#45;&gt;BlockModule</title>
<path fill="none" stroke="#000000" d="M3649,-122.0267C3649,-142.7672 3649,-174 3649,-174 3649,-174 2047.5115,-174 2047.5115,-174"/>
<polygon fill="#000000" stroke="#000000" points="2047.5115,-170.5001 2037.5115,-174 2047.5114,-177.5001 2047.5115,-170.5001"/>
</g>
<!-- IscsiTargetFormComponent -->
<g id="node5" class="node">
<title>IscsiTargetFormComponent</title>
<polygon fill="#ffffb3" stroke="#000000" points="3511.8543,-122 3338.1457,-122 3338.1457,-86 3511.8543,-86 3511.8543,-122"/>
<text text-anchor="middle" x="3425" y="-99.8" font-family="Times,serif" font-size="14.00" fill="#000000">IscsiTargetFormComponent</text>
</g>
<!-- IscsiTargetFormComponent&#45;&gt;BlockModule -->
<g id="edge5" class="edge">
<title>IscsiTargetFormComponent&#45;&gt;BlockModule</title>
<path fill="none" stroke="#000000" d="M3425,-122.308C3425,-142.1455 3425,-171 3425,-171 3425,-171 2047.8965,-171 2047.8965,-171"/>
<polygon fill="#000000" stroke="#000000" points="2047.8965,-167.5001 2037.8965,-171 2047.8964,-174.5001 2047.8965,-167.5001"/>
</g>
<!-- IscsiTargetImageSettingsModalComponent -->
<g id="node6" class="node">
<title>IscsiTargetImageSettingsModalComponent</title>
<polygon fill="#ffffb3" stroke="#000000" points="3320.1643,-122 3059.8357,-122 3059.8357,-86 3320.1643,-86 3320.1643,-122"/>
<text text-anchor="middle" x="3190" y="-99.8" font-family="Times,serif" font-size="14.00" fill="#000000">IscsiTargetImageSettingsModalComponent</text>
</g>
<!-- IscsiTargetImageSettingsModalComponent&#45;&gt;BlockModule -->
<g id="edge6" class="edge">
<title>IscsiTargetImageSettingsModalComponent&#45;&gt;BlockModule</title>
<path fill="none" stroke="#000000" d="M3190,-122.1686C3190,-141.0898 3190,-168 3190,-168 3190,-168 2047.6342,-168 2047.6342,-168"/>
<polygon fill="#000000" stroke="#000000" points="2047.6343,-164.5001 2037.6342,-168 2047.6342,-171.5001 2047.6343,-164.5001"/>
</g>
<!-- IscsiTargetIqnSettingsModalComponent -->
<g id="node7" class="node">
<title>IscsiTargetIqnSettingsModalComponent</title>
<polygon fill="#ffffb3" stroke="#000000" points="3041.8444,-122 2798.1556,-122 2798.1556,-86 3041.8444,-86 3041.8444,-122"/>
<text text-anchor="middle" x="2920" y="-99.8" font-family="Times,serif" font-size="14.00" fill="#000000">IscsiTargetIqnSettingsModalComponent</text>
</g>
<!-- IscsiTargetIqnSettingsModalComponent&#45;&gt;BlockModule -->
<g id="edge7" class="edge">
<title>IscsiTargetIqnSettingsModalComponent&#45;&gt;BlockModule</title>
<path fill="none" stroke="#000000" d="M2920,-122.302C2920,-140.2699 2920,-165 2920,-165 2920,-165 2047.7059,-165 2047.7059,-165"/>
<polygon fill="#000000" stroke="#000000" points="2047.7059,-161.5001 2037.7059,-165 2047.7059,-168.5001 2047.7059,-161.5001"/>
</g>
<!-- IscsiTargetListComponent -->
<g id="node8" class="node">
<title>IscsiTargetListComponent</title>
<polygon fill="#ffffb3" stroke="#000000" points="2779.7991,-122 2614.2009,-122 2614.2009,-86 2779.7991,-86 2779.7991,-122"/>
<text text-anchor="middle" x="2697" y="-99.8" font-family="Times,serif" font-size="14.00" fill="#000000">IscsiTargetListComponent</text>
</g>
<!-- IscsiTargetListComponent&#45;&gt;BlockModule -->
<g id="edge8" class="edge">
<title>IscsiTargetListComponent&#45;&gt;BlockModule</title>
<path fill="none" stroke="#000000" d="M2697,-122.0352C2697,-138.7344 2697,-161 2697,-161 2697,-161 2047.5957,-161 2047.5957,-161"/>
<polygon fill="#000000" stroke="#000000" points="2047.5957,-157.5001 2037.5957,-161 2047.5956,-164.5001 2047.5957,-157.5001"/>
</g>
<!-- RbdConfigurationFormComponent -->
<g id="node9" class="node">
<title>RbdConfigurationFormComponent</title>
<polygon fill="#ffffb3" stroke="#000000" points="2596.5475,-122 2383.4525,-122 2383.4525,-86 2596.5475,-86 2596.5475,-122"/>
<text text-anchor="middle" x="2490" y="-99.8" font-family="Times,serif" font-size="14.00" fill="#000000">RbdConfigurationFormComponent</text>
</g>
<!-- RbdConfigurationFormComponent&#45;&gt;BlockModule -->
<g id="edge9" class="edge">
<title>RbdConfigurationFormComponent&#45;&gt;BlockModule</title>
<path fill="none" stroke="#000000" d="M2490,-122.2819C2490,-137.9478 2490,-158 2490,-158 2490,-158 2047.4966,-158 2047.4966,-158"/>
<polygon fill="#000000" stroke="#000000" points="2047.4966,-154.5001 2037.4966,-158 2047.4966,-161.5001 2047.4966,-154.5001"/>
</g>
<!-- RbdConfigurationListComponent -->
<g id="node10" class="node">
<title>RbdConfigurationListComponent</title>
<polygon fill="#ffffb3" stroke="#000000" points="2365.4916,-122 2160.5084,-122 2160.5084,-86 2365.4916,-86 2365.4916,-122"/>
<text text-anchor="middle" x="2263" y="-99.8" font-family="Times,serif" font-size="14.00" fill="#000000">RbdConfigurationListComponent</text>
</g>
<!-- RbdConfigurationListComponent&#45;&gt;BlockModule -->
<g id="edge10" class="edge">
<title>RbdConfigurationListComponent&#45;&gt;BlockModule</title>
<path fill="none" stroke="#000000" d="M2188.0139,-122.1243C2188.0139,-136.7832 2188.0139,-155 2188.0139,-155 2188.0139,-155 2047.6895,-155 2047.6895,-155"/>
<polygon fill="#000000" stroke="#000000" points="2047.6896,-151.5001 2037.6895,-155 2047.6895,-158.5001 2047.6896,-151.5001"/>
</g>
<!-- RbdDetailsComponent -->
<g id="node11" class="node">
<title>RbdDetailsComponent</title>
<polygon fill="#ffffb3" stroke="#000000" points="2142.3216,-122 1997.6784,-122 1997.6784,-86 2142.3216,-86 2142.3216,-122"/>
<text text-anchor="middle" x="2070" y="-99.8" font-family="Times,serif" font-size="14.00" fill="#000000">RbdDetailsComponent</text>
</g>
<!-- RbdDetailsComponent&#45;&gt;BlockModule -->
<g id="edge11" class="edge">
<title>RbdDetailsComponent&#45;&gt;BlockModule</title>
<path fill="none" stroke="#000000" d="M2017.6676,-122.1061C2017.6676,-122.1061 2017.6676,-140.991 2017.6676,-140.991"/>
<polygon fill="#000000" stroke="#000000" points="2014.1677,-140.9909 2017.6676,-150.991 2021.1677,-140.991 2014.1677,-140.9909"/>
</g>
<!-- RbdFormComponent -->
<g id="node12" class="node">
<title>RbdFormComponent</title>
<polygon fill="#ffffb3" stroke="#000000" points="1979.5028,-122 1844.4972,-122 1844.4972,-86 1979.5028,-86 1979.5028,-122"/>
<text text-anchor="middle" x="1912" y="-99.8" font-family="Times,serif" font-size="14.00" fill="#000000">RbdFormComponent</text>
</g>
<!-- RbdFormComponent&#45;&gt;BlockModule -->
<g id="edge12" class="edge">
<title>RbdFormComponent&#45;&gt;BlockModule</title>
<path fill="none" stroke="#000000" d="M1962.0028,-122.1061C1962.0028,-122.1061 1962.0028,-140.991 1962.0028,-140.991"/>
<polygon fill="#000000" stroke="#000000" points="1958.5029,-140.9909 1962.0028,-150.991 1965.5029,-140.991 1958.5029,-140.9909"/>
</g>
<!-- RbdImagesComponent -->
<g id="node13" class="node">
<title>RbdImagesComponent</title>
<polygon fill="#ffffb3" stroke="#000000" points="1826.594,-122 1681.406,-122 1681.406,-86 1826.594,-86 1826.594,-122"/>
<text text-anchor="middle" x="1754" y="-99.8" font-family="Times,serif" font-size="14.00" fill="#000000">RbdImagesComponent</text>
</g>
<!-- RbdImagesComponent&#45;&gt;BlockModule -->
<g id="edge13" class="edge">
<title>RbdImagesComponent&#45;&gt;BlockModule</title>
<path fill="none" stroke="#000000" d="M1799.1506,-122.1243C1799.1506,-136.7832 1799.1506,-155 1799.1506,-155 1799.1506,-155 1934.0684,-155 1934.0684,-155"/>
<polygon fill="#000000" stroke="#000000" points="1934.0684,-158.5001 1944.0684,-155 1934.0683,-151.5001 1934.0684,-158.5001"/>
</g>
<!-- RbdListComponent -->
<g id="node14" class="node">
<title>RbdListComponent</title>
<polygon fill="#ffffb3" stroke="#000000" points="1663.4482,-122 1536.5518,-122 1536.5518,-86 1663.4482,-86 1663.4482,-122"/>
<text text-anchor="middle" x="1600" y="-99.8" font-family="Times,serif" font-size="14.00" fill="#000000">RbdListComponent</text>
</g>
<!-- RbdListComponent&#45;&gt;BlockModule -->
<g id="edge14" class="edge">
<title>RbdListComponent&#45;&gt;BlockModule</title>
<path fill="none" stroke="#000000" d="M1600,-122.2819C1600,-137.9478 1600,-158 1600,-158 1600,-158 1934.2246,-158 1934.2246,-158"/>
<polygon fill="#000000" stroke="#000000" points="1934.2247,-161.5001 1944.2246,-158 1934.2246,-154.5001 1934.2247,-161.5001"/>
</g>
<!-- RbdSnapshotFormComponent -->
<g id="node15" class="node">
<title>RbdSnapshotFormComponent</title>
<polygon fill="#ffffb3" stroke="#000000" points="1519.3355,-122 1332.6645,-122 1332.6645,-86 1519.3355,-86 1519.3355,-122"/>
<text text-anchor="middle" x="1426" y="-99.8" font-family="Times,serif" font-size="14.00" fill="#000000">RbdSnapshotFormComponent</text>
</g>
<!-- RbdSnapshotFormComponent&#45;&gt;BlockModule -->
<g id="edge15" class="edge">
<title>RbdSnapshotFormComponent&#45;&gt;BlockModule</title>
<path fill="none" stroke="#000000" d="M1426,-122.0352C1426,-138.7344 1426,-161 1426,-161 1426,-161 1934.283,-161 1934.283,-161"/>
<polygon fill="#000000" stroke="#000000" points="1934.283,-164.5001 1944.283,-161 1934.283,-157.5001 1934.283,-164.5001"/>
</g>
<!-- RbdSnapshotListComponent -->
<g id="node16" class="node">
<title>RbdSnapshotListComponent</title>
<polygon fill="#ffffb3" stroke="#000000" points="1314.7799,-122 1137.2201,-122 1137.2201,-86 1314.7799,-86 1314.7799,-122"/>
<text text-anchor="middle" x="1226" y="-99.8" font-family="Times,serif" font-size="14.00" fill="#000000">RbdSnapshotListComponent</text>
</g>
<!-- RbdSnapshotListComponent&#45;&gt;BlockModule -->
<g id="edge16" class="edge">
<title>RbdSnapshotListComponent&#45;&gt;BlockModule</title>
<path fill="none" stroke="#000000" d="M1226,-122.302C1226,-140.2699 1226,-165 1226,-165 1226,-165 1934.2974,-165 1934.2974,-165"/>
<polygon fill="#000000" stroke="#000000" points="1934.2974,-168.5001 1944.2974,-165 1934.2974,-161.5001 1934.2974,-168.5001"/>
</g>
<!-- RbdTrashListComponent -->
<g id="node17" class="node">
<title>RbdTrashListComponent</title>
<polygon fill="#ffffb3" stroke="#000000" points="1119.3201,-122 960.6799,-122 960.6799,-86 1119.3201,-86 1119.3201,-122"/>
<text text-anchor="middle" x="1040" y="-99.8" font-family="Times,serif" font-size="14.00" fill="#000000">RbdTrashListComponent</text>
</g>
<!-- RbdTrashListComponent&#45;&gt;BlockModule -->
<g id="edge17" class="edge">
<title>RbdTrashListComponent&#45;&gt;BlockModule</title>
<path fill="none" stroke="#000000" d="M1040,-122.1686C1040,-141.0898 1040,-168 1040,-168 1040,-168 1934.4875,-168 1934.4875,-168"/>
<polygon fill="#000000" stroke="#000000" points="1934.4876,-171.5001 1944.4875,-168 1934.4875,-164.5001 1934.4876,-171.5001"/>
</g>
<!-- RbdTrashMoveModalComponent -->
<g id="node18" class="node">
<title>RbdTrashMoveModalComponent</title>
<polygon fill="#ffffb3" stroke="#000000" points="942.7506,-122 737.2494,-122 737.2494,-86 942.7506,-86 942.7506,-122"/>
<text text-anchor="middle" x="840" y="-99.8" font-family="Times,serif" font-size="14.00" fill="#000000">RbdTrashMoveModalComponent</text>
</g>
<!-- RbdTrashMoveModalComponent&#45;&gt;BlockModule -->
<g id="edge18" class="edge">
<title>RbdTrashMoveModalComponent&#45;&gt;BlockModule</title>
<path fill="none" stroke="#000000" d="M840,-122.308C840,-142.1455 840,-171 840,-171 840,-171 1934.4539,-171 1934.4539,-171"/>
<polygon fill="#000000" stroke="#000000" points="1934.4539,-174.5001 1944.4539,-171 1934.4538,-167.5001 1934.4539,-174.5001"/>
</g>
<!-- RbdTrashPurgeModalComponent -->
<g id="node19" class="node">
<title>RbdTrashPurgeModalComponent</title>
<polygon fill="#ffffb3" stroke="#000000" points="718.7492,-122 513.2508,-122 513.2508,-86 718.7492,-86 718.7492,-122"/>
<text text-anchor="middle" x="616" y="-99.8" font-family="Times,serif" font-size="14.00" fill="#000000">RbdTrashPurgeModalComponent</text>
</g>
<!-- RbdTrashPurgeModalComponent&#45;&gt;BlockModule -->
<g id="edge19" class="edge">
<title>RbdTrashPurgeModalComponent&#45;&gt;BlockModule</title>
<path fill="none" stroke="#000000" d="M616,-122.0267C616,-142.7672 616,-174 616,-174 616,-174 1934.4634,-174 1934.4634,-174"/>
<polygon fill="#000000" stroke="#000000" points="1934.4634,-177.5001 1944.4634,-174 1934.4634,-170.5001 1934.4634,-177.5001"/>
</g>
<!-- RbdTrashRestoreModalComponent -->
<g id="node20" class="node">
<title>RbdTrashRestoreModalComponent</title>
<polygon fill="#ffffb3" stroke="#000000" points="494.8529,-122 279.1471,-122 279.1471,-86 494.8529,-86 494.8529,-122"/>
<text text-anchor="middle" x="387" y="-99.8" font-family="Times,serif" font-size="14.00" fill="#000000">RbdTrashRestoreModalComponent</text>
</g>
<!-- RbdTrashRestoreModalComponent&#45;&gt;BlockModule -->
<g id="edge20" class="edge">
<title>RbdTrashRestoreModalComponent&#45;&gt;BlockModule</title>
<path fill="none" stroke="#000000" d="M387,-122.2921C387,-144.2057 387,-178 387,-178 387,-178 1934.2955,-178 1934.2955,-178"/>
<polygon fill="#000000" stroke="#000000" points="1934.2956,-181.5001 1944.2955,-178 1934.2955,-174.5001 1934.2956,-181.5001"/>
</g>
<!-- RbdConfigurationFormComponent  -->
<g id="node24" class="node">
<title>RbdConfigurationFormComponent </title>
<polygon fill="#fb8072" stroke="#000000" points="2215.547,-252 1998.453,-252 1998.453,-216 2215.547,-216 2215.547,-252"/>
<text text-anchor="middle" x="2107" y="-229.8" font-family="Times,serif" font-size="14.00" fill="#000000">RbdConfigurationFormComponent </text>
</g>
<!-- BlockModule&#45;&gt;RbdConfigurationFormComponent  -->
<g id="edge23" class="edge">
<title>BlockModule&#45;&gt;RbdConfigurationFormComponent </title>
<path fill="none" stroke="#000000" stroke-dasharray="5,2" d="M2017.9862,-187.1061C2017.9862,-187.1061 2017.9862,-205.991 2017.9862,-205.991"/>
<polygon fill="#000000" stroke="#000000" points="2014.4862,-205.9909 2017.9862,-215.991 2021.4862,-205.991 2014.4862,-205.9909"/>
</g>
<!-- RbdConfigurationListComponent  -->
<g id="node25" class="node">
<title>RbdConfigurationListComponent </title>
<polygon fill="#fb8072" stroke="#000000" points="1980.4922,-252 1771.5078,-252 1771.5078,-216 1980.4922,-216 1980.4922,-252"/>
<text text-anchor="middle" x="1876" y="-229.8" font-family="Times,serif" font-size="14.00" fill="#000000">RbdConfigurationListComponent </text>
</g>
<!-- BlockModule&#45;&gt;RbdConfigurationListComponent  -->
<g id="edge24" class="edge">
<title>BlockModule&#45;&gt;RbdConfigurationListComponent </title>
<path fill="none" stroke="#000000" stroke-dasharray="5,2" d="M1962.375,-187.1061C1962.375,-187.1061 1962.375,-205.991 1962.375,-205.991"/>
<polygon fill="#000000" stroke="#000000" points="1958.8751,-205.9909 1962.375,-215.991 1965.8751,-205.991 1958.8751,-205.9909"/>
</g>
<!-- MirroringModule -->
<g id="node22" class="node">
<title>MirroringModule</title>
<polygon fill="#8dd3c7" stroke="#000000" points="255.2577,-122 252.2577,-126 231.2577,-126 228.2577,-122 140.7423,-122 140.7423,-86 255.2577,-86 255.2577,-122"/>
<text text-anchor="middle" x="198" y="-99.8" font-family="Times,serif" font-size="14.00" fill="#000000">MirroringModule</text>
</g>
<!-- MirroringModule&#45;&gt;BlockModule -->
<g id="edge21" class="edge">
<title>MirroringModule&#45;&gt;BlockModule</title>
<path fill="none" stroke="#000000" d="M198,-122.2479C198,-145.0179 198,-181 198,-181 198,-181 1934.4209,-181 1934.4209,-181"/>
<polygon fill="#000000" stroke="#000000" points="1934.421,-184.5001 1944.4209,-181 1934.4209,-177.5001 1934.421,-184.5001"/>
</g>
<!-- SharedModule -->
<g id="node23" class="node">
<title>SharedModule</title>
<polygon fill="#8dd3c7" stroke="#000000" points="122.4231,-122 119.4231,-126 98.4231,-126 95.4231,-122 23.5769,-122 23.5769,-86 122.4231,-86 122.4231,-122"/>
<text text-anchor="middle" x="73" y="-99.8" font-family="Times,serif" font-size="14.00" fill="#000000">SharedModule</text>
</g>
<!-- SharedModule&#45;&gt;BlockModule -->
<g id="edge22" class="edge">
<title>SharedModule&#45;&gt;BlockModule</title>
<path fill="none" stroke="#000000" d="M73,-122.1532C73,-145.7566 73,-184 73,-184 73,-184 1934.0648,-184 1934.0648,-184"/>
<polygon fill="#000000" stroke="#000000" points="1934.0648,-187.5001 1944.0648,-184 1934.0648,-180.5001 1934.0648,-187.5001"/>
</g>
</g>
</svg>
